<svg width="24" height="24" viewBox="0 0 24 24" fill="none" xmlns="http://www.w3.org/2000/svg">
<path d="M19.3818 12.6585L19.3147 13.154L19.3171 13.1543L19.3818 12.6585ZM18.8305 12.6013L18.7471 12.1084L18.8007 13.1004L18.8305 12.6013ZM19.0105 12.5785L18.9537 12.0817L18.9322 12.0842L18.911 12.0885L19.0105 12.5785ZM18.6955 10.1788L18.7602 9.68294L18.7548 9.6823L18.6955 10.1788ZM17.4128 10.0759L17.3917 10.5755L17.4023 10.5759H17.4128V10.0759ZM16.569 10.0531L16.5479 10.5526L16.5584 10.5531H16.569V10.0531ZM14.78 9.96165L14.8222 9.46343L14.78 9.96165ZM14.3637 9.356L13.8968 9.17721L13.878 9.22629L13.8698 9.2782L14.3637 9.356ZM14.9263 6.03068L15.4259 6.011L15.4258 6.00754L14.9263 6.03068ZM13.3399 4.00806L13.3959 3.5112L13.3926 3.51085L13.3399 4.00806ZM12.226 5.12793L11.745 5.26439L11.7452 5.26528L12.226 5.12793ZM7.50044 11.4243L7.23848 10.9985L7.00044 11.1449V11.4243H7.50044ZM7.50044 18.2807H7.00044V18.5566L7.23386 18.7037L7.50044 18.2807ZM15.9164 19.9948V19.4947L15.9067 19.4949L15.9164 19.9948ZM16.614 19.9719V19.4719H16.603L16.5919 19.4724L16.614 19.9719ZM17.5366 19.9148L17.5741 20.4134L17.5794 20.4129L17.5366 19.9148ZM19.2243 18.6692L18.7251 18.6981L18.7255 18.7031L19.2243 18.6692ZM18.2454 17.6065L18.2079 17.1079L18.1007 18.085L18.2454 17.6065ZM19.1343 17.5379L19.1748 18.0363L19.1771 18.0361L19.1343 17.5379ZM20.4507 16.3495L19.9532 16.4001L19.9541 16.4075L20.4507 16.3495ZM18.8643 15.1268L18.9351 14.6318L18.8998 14.6268H18.8643V15.1268ZM18.7855 15.1153L18.7506 14.6166L18.7855 15.6153V15.1153ZM19.6969 15.0582L19.6754 14.5587L19.6651 14.5591L19.6547 14.56L19.6969 15.0582ZM3 10.8643V10.3643H2.5V10.8643H3ZM3 18.8634H2.5V19.3634H3V18.8634ZM21.4862 13.791C21.4173 13.2835 21.1057 12.8979 20.7341 12.6385C20.364 12.38 19.9045 12.2225 19.4466 12.1627L19.3171 13.1543C19.6468 13.1973 19.9467 13.3083 20.1616 13.4584C20.3751 13.6075 20.4742 13.7704 20.4953 13.9256L21.4862 13.791ZM19.4489 12.163C19.2754 12.1395 19.0699 12.1147 18.8603 12.1022L18.8007 13.1004C18.9736 13.1108 19.1507 13.1317 19.3147 13.154L19.4489 12.163ZM18.914 13.0943C18.927 13.0921 18.9398 13.0908 18.9729 13.0876C19.0004 13.0849 19.053 13.0801 19.1101 13.0685L18.911 12.0885C18.9118 12.0883 18.9082 12.0892 18.8766 12.0922C18.8506 12.0947 18.8015 12.0991 18.7471 12.1084L18.914 13.0943ZM19.0674 13.0752C19.5359 13.0216 19.9878 12.86 20.3202 12.569C20.668 12.2644 20.8698 11.8259 20.7999 11.3113L19.809 11.4459C19.8291 11.5942 19.7833 11.7099 19.6614 11.8167C19.524 11.937 19.284 12.0439 18.9537 12.0817L19.0674 13.0752ZM20.7999 11.3113C20.731 10.8038 20.4194 10.4182 20.0478 10.1588C19.6777 9.90031 19.2182 9.74277 18.7602 9.68297L18.6308 10.6746C18.9604 10.7176 19.2604 10.8286 19.4753 10.9787C19.6888 11.1277 19.7879 11.2907 19.809 11.4459L20.7999 11.3113ZM18.7548 9.6823C18.3585 9.63494 17.9191 9.59983 17.4488 9.57653L17.3994 10.5753C17.8517 10.5977 18.2674 10.6312 18.6362 10.6752L18.7548 9.6823ZM17.4241 10.0759C17.4241 10.5759 17.4241 10.0759 17.4241 9.57592H17.4241C17.4241 9.57592 17.4241 9.57592 17.4241 9.57592C17.4241 9.57592 17.4241 9.57592 17.4241 9.57592H17.4241C17.4241 9.57592 17.4241 9.57592 17.4241 9.57592H17.4241C17.4241 9.57592 17.4241 9.57592 17.4241 9.57592C17.4241 9.57592 17.4241 9.57592 17.4241 9.57592H17.4241C17.4241 9.57592 17.4241 9.57592 17.4241 9.57592C17.4241 9.57592 17.4241 9.57592 17.4241 9.57592H17.4241C17.4241 9.57592 17.4241 9.57592 17.4241 9.57592C17.4241 9.57592 17.4241 9.57592 17.4241 9.57592H17.4241H17.4241C17.4241 9.57592 17.4241 9.57592 17.4241 9.57592C17.4241 9.57592 17.4241 9.57592 17.4241 9.57592C17.4241 9.57592 17.4241 9.57592 17.4241 9.57592C17.4241 9.57592 17.4241 9.57592 17.4241 9.57592C17.4241 9.57592 17.4241 9.57592 17.4241 9.57592C17.4241 9.57592 17.4241 9.57592 17.4241 9.57592C17.4241 9.57592 17.4241 9.57592 17.4241 9.57592C17.4241 9.57592 17.4241 9.57592 17.4241 9.57592C17.4241 9.57592 17.4241 9.57592 17.4241 9.57592H17.4241H17.4241C17.4241 9.57592 17.4241 9.57592 17.4241 9.57592C17.4241 9.57592 17.4241 9.57592 17.4241 9.57592H17.4241H17.4241C17.4241 9.57592 17.4241 9.57592 17.4241 9.57592H17.4241C17.4241 9.57592 17.4241 9.57592 17.4241 9.57592H17.4241C17.4241 9.57592 17.4241 9.57592 17.4241 9.57592H17.4241C17.4241 9.57592 17.4241 9.57592 17.4241 9.57592C17.4241 9.57592 17.4241 9.57592 17.4241 9.57592H17.4241C17.4241 9.57592 17.4241 9.57592 17.4241 9.57592C17.4241 9.57592 17.4241 9.57592 17.4241 9.57592C17.4241 9.57592 17.4241 9.57592 17.424 9.57592C17.424 9.57592 17.424 9.57592 17.424 9.57592H17.424C17.424 9.57592 17.424 9.57592 17.424 9.57592C17.424 9.57592 17.424 9.57592 17.424 9.57592C17.424 9.57592 17.424 9.57592 17.424 9.57592C17.424 9.57592 17.424 9.57592 17.424 9.57592C17.424 9.57592 17.424 9.57592 17.424 9.57592C17.424 9.57592 17.424 9.57592 17.424 9.57592C17.424 9.57592 17.424 9.57592 17.424 9.57592C17.424 9.57592 17.424 9.57592 17.424 9.57592C17.424 9.57592 17.424 9.57592 17.424 9.57592C17.424 9.57592 17.424 9.57592 17.424 9.57592C17.424 9.57592 17.424 9.57592 17.424 9.57592C17.424 9.57592 17.424 9.57592 17.424 9.57592C17.424 9.57592 17.424 9.57592 17.424 9.57592C17.424 9.57592 17.424 9.57592 17.424 9.57592C17.424 9.57592 17.424 9.57592 17.424 9.57592C17.424 9.57592 17.424 9.57592 17.424 9.57592C17.424 9.57592 17.424 9.57592 17.424 9.57592C17.424 9.57592 17.424 9.57592 17.424 9.57592C17.424 9.57592 17.424 9.57592 17.424 9.57592C17.424 9.57592 17.424 9.57592 17.424 9.57592C17.424 9.57592 17.424 9.57592 17.424 9.57592C17.424 9.57592 17.424 9.57592 17.424 9.57592C17.424 9.57592 17.424 9.57592 17.424 9.57592C17.424 9.57592 17.424 9.57592 17.424 9.57592C17.424 9.57592 17.424 9.57592 17.424 9.57592C17.424 9.57592 17.424 9.57592 17.424 9.57592C17.424 9.57592 17.424 9.57592 17.424 9.57592C17.424 9.57592 17.424 9.57592 17.424 9.57592C17.424 9.57592 17.424 9.57592 17.424 9.57592C17.424 9.57592 17.424 9.57592 17.424 9.57592C17.424 9.57592 17.424 9.57592 17.424 9.57592C17.424 9.57592 17.424 9.57592 17.424 9.57592C17.424 9.57592 17.424 9.57592 17.424 9.57592C17.424 9.57592 17.424 9.57592 17.424 9.57592C17.424 9.57592 17.424 9.57592 17.424 9.57592C17.4239 9.57592 17.4239 9.57592 17.4239 9.57592C17.4239 9.57592 17.4239 9.57592 17.4239 9.57592C17.4239 9.57592 17.4239 9.57592 17.4239 9.57592C17.4239 9.57592 17.4239 9.57592 17.4239 9.57592C17.4239 9.57592 17.4239 9.57592 17.4239 9.57592C17.4239 9.57592 17.4239 9.57592 17.4239 9.57592C17.4239 9.57592 17.4239 9.57592 17.4239 9.57592C17.4239 9.57592 17.4239 9.57592 17.4239 9.57592C17.4239 9.57592 17.4239 9.57592 17.4239 9.57592C17.4239 9.57592 17.4239 9.57592 17.4239 9.57592C17.4239 9.57592 17.4239 9.57592 17.4239 9.57592C17.4239 9.57592 17.4239 9.57592 17.4239 9.57592C17.4239 9.57592 17.4239 9.57592 17.4239 9.57592C17.4239 9.57592 17.4239 9.57592 17.4239 9.57592C17.4239 9.57592 17.4239 9.57592 17.4239 9.57592C17.4239 9.57592 17.4239 9.57592 17.4239 9.57592C17.4239 9.57592 17.4239 9.57592 17.4239 9.57592C17.4239 9.57592 17.4239 9.57592 17.4239 9.57592C17.4239 9.57592 17.4239 9.57592 17.4239 9.57592C17.4239 9.57592 17.4239 9.57592 17.4239 9.57592C17.4239 9.57592 17.4239 9.57592 17.4239 9.57592C17.4239 9.57592 17.4239 9.57592 17.4239 9.57592C17.4239 9.57592 17.4239 9.57592 17.4238 9.57592C17.4238 9.57592 17.4238 9.57592 17.4238 9.57592C17.4238 9.57592 17.4238 9.57592 17.4238 9.57592C17.4238 9.57592 17.4238 9.57592 17.4238 9.57592C17.4238 9.57592 17.4238 9.57592 17.4238 9.57592C17.4238 9.57592 17.4238 9.57592 17.4238 9.57592C17.4238 9.57592 17.4238 9.57592 17.4238 9.57592C17.4238 9.57592 17.4238 9.57592 17.4238 9.57592C17.4238 9.57592 17.4238 9.57592 17.4238 9.57592C17.4238 9.57592 17.4238 9.57592 17.4238 9.57592C17.4238 9.57592 17.4238 9.57592 17.4238 9.57592C17.4238 9.57592 17.4238 9.57592 17.4238 9.57592C17.4238 9.57592 17.4238 9.57592 17.4238 9.57592C17.4238 9.57592 17.4238 9.57592 17.4238 9.57592C17.4238 9.57592 17.4238 9.57592 17.4238 9.57592C17.4238 9.57592 17.4238 9.57592 17.4238 9.57592C17.4238 9.57592 17.4238 9.57592 17.4238 9.57592C17.4238 9.57592 17.4238 9.57592 17.4237 9.57592C17.4237 9.57592 17.4237 9.57592 17.4237 9.57592C17.4237 9.57592 17.4237 9.57592 17.4237 9.57592C17.4237 9.57592 17.4237 9.57592 17.4237 9.57592C17.4237 9.57592 17.4237 9.57592 17.4237 9.57592C17.4237 9.57592 17.4237 9.57592 17.4237 9.57592C17.4237 9.57592 17.4237 9.57592 17.4237 9.57592C17.4237 9.57592 17.4237 9.57592 17.4237 9.57592C17.4237 9.57592 17.4237 9.57592 17.4237 9.57592C17.4237 9.57592 17.4237 9.57592 17.4237 9.57592C17.4237 9.57592 17.4237 9.57592 17.4237 9.57592C17.4237 9.57592 17.4237 9.57592 17.4237 9.57592C17.4237 9.57592 17.4237 9.57592 17.4237 9.57592C17.4237 9.57592 17.4237 9.57592 17.4237 9.57592C17.4237 9.57592 17.4237 9.57592 17.4237 9.57592C17.4236 9.57592 17.4236 9.57592 17.4236 9.57592C17.4236 9.57592 17.4236 9.57592 17.4236 9.57592C17.4236 9.57592 17.4236 9.57592 17.4236 9.57592C17.4236 9.57592 17.4236 9.57592 17.4236 9.57592C17.4236 9.57592 17.4236 9.57592 17.4236 9.57592C17.4236 9.57592 17.4236 9.57592 17.4236 9.57592C17.4236 9.57592 17.4236 9.57592 17.4236 9.57592C17.4236 9.57592 17.4236 9.57592 17.4236 9.57592C17.4236 9.57592 17.4236 9.57592 17.4236 9.57592C17.4236 9.57592 17.4236 9.57592 17.4236 9.57592C17.4236 9.57592 17.4236 9.57592 17.4236 9.57592C17.4236 9.57592 17.4236 9.57592 17.4236 9.57592C17.4235 9.57592 17.4235 9.57592 17.4235 9.57592C17.4235 9.57592 17.4235 9.57592 17.4235 9.57592C17.4235 9.57592 17.4235 9.57592 17.4235 9.57592C17.4235 9.57592 17.4235 9.57592 17.4235 9.57592C17.4235 9.57592 17.4235 9.57592 17.4235 9.57592C17.4235 9.57592 17.4235 9.57592 17.4235 9.57592C17.4235 9.57592 17.4235 9.57592 17.4235 9.57592C17.4235 9.57592 17.4235 9.57592 17.4235 9.57592C17.4235 9.57592 17.4235 9.57592 17.4235 9.57592C17.4235 9.57592 17.4235 9.57592 17.4235 9.57592C17.4235 9.57592 17.4235 9.57592 17.4234 9.57592C17.4234 9.57592 17.4234 9.57592 17.4234 9.57592C17.4234 9.57592 17.4234 9.57592 17.4234 9.57592C17.4234 9.57592 17.4234 9.57592 17.4234 9.57592C17.4234 9.57592 17.4234 9.57592 17.4234 9.57592C17.4234 9.57592 17.4234 9.57592 17.4234 9.57592C17.4234 9.57592 17.4234 9.57592 17.4234 9.57592C17.4234 9.57592 17.4234 9.57592 17.4234 9.57592C17.4234 9.57592 17.4234 9.57592 17.4234 9.57592C17.4234 9.57592 17.4234 9.57592 17.4234 9.57592C17.4234 9.57592 17.4233 9.57592 17.4233 9.57592C17.4233 9.57592 17.4233 9.57592 17.4233 9.57592C17.4233 9.57592 17.4233 9.57592 17.4233 9.57592C17.4233 9.57592 17.4233 9.57592 17.4233 9.57592C17.4233 9.57592 17.4233 9.57592 17.4233 9.57592C17.4233 9.57592 17.4233 9.57592 17.4233 9.57592C17.4233 9.57592 17.4233 9.57592 17.4233 9.57592C17.4233 9.57592 17.4233 9.57592 17.4233 9.57592C17.4233 9.57592 17.4233 9.57592 17.4233 9.57592C17.4233 9.57592 17.4232 9.57592 17.4232 9.57592C17.4232 9.57592 17.4232 9.57592 17.4232 9.57592C17.4232 9.57592 17.4232 9.57592 17.4232 9.57592C17.4232 9.57592 17.4232 9.57592 17.4232 9.57592C17.4232 9.57592 17.4232 9.57592 17.4232 9.57592C17.4232 9.57592 17.4232 9.57592 17.4232 9.57592C17.4232 9.57592 17.4232 9.57592 17.4232 9.57592C17.4232 9.57592 17.4232 9.57592 17.4232 9.57592C17.4232 9.57592 17.4231 9.57592 17.4231 9.57592C17.4231 9.57592 17.4231 9.57592 17.4231 9.57592C17.4231 9.57592 17.4231 9.57592 17.4231 9.57592C17.4231 9.57592 17.4231 9.57592 17.4231 9.57592C17.4231 9.57592 17.4231 9.57592 17.4231 9.57592C17.4231 9.57592 17.4231 9.57592 17.4231 9.57592C17.4231 9.57592 17.4231 9.57592 17.4231 9.57592C17.4231 9.57592 17.4231 9.57592 17.4231 9.57592C17.423 9.57592 17.423 9.57592 17.423 9.57592C17.423 9.57592 17.423 9.57592 17.423 9.57592C17.423 9.57592 17.423 9.57592 17.423 9.57592C17.423 9.57592 17.423 9.57592 17.423 9.57592C17.423 9.57592 17.423 9.57592 17.423 9.57592C17.423 9.57592 17.423 9.57592 17.423 9.57592C17.423 9.57592 17.423 9.57592 17.423 9.57592C17.423 9.57592 17.4229 9.57592 17.4229 9.57592C17.4229 9.57592 17.4229 9.57592 17.4229 9.57592C17.4229 9.57592 17.4229 9.57592 17.4229 9.57592C17.4229 9.57592 17.4229 9.57592 17.4229 9.57592C17.4229 9.57592 17.4229 9.57592 17.4229 9.57592C17.4229 9.57592 17.4229 9.57592 17.4229 9.57592C17.4229 9.57592 17.4229 9.57592 17.4229 9.57592C17.4228 9.57592 17.4228 9.57592 17.4228 9.57592C17.4228 9.57592 17.4228 9.57592 17.4228 9.57592C17.4228 9.57592 17.4228 9.57592 17.4228 9.57592C17.4228 9.57592 17.4228 9.57592 17.4228 9.57592C17.4228 9.57592 17.4228 9.57592 17.4228 9.57592C17.4228 9.57592 17.4228 9.57592 17.4228 9.57592C17.4228 9.57592 17.4227 9.57592 17.4227 9.57592C17.4227 9.57592 17.4227 9.57592 17.4227 9.57592C17.4227 9.57592 17.4227 9.57592 17.4227 9.57592C17.4227 9.57592 17.4227 9.57592 17.4227 9.57592C17.4227 9.57592 17.4227 9.57592 17.4227 9.57592C17.4227 9.57592 17.4227 9.57592 17.4227 9.57592C17.4227 9.57592 17.4226 9.57592 17.4226 9.57592C17.4226 9.57592 17.4226 9.57592 17.4226 9.57592C17.4226 9.57592 17.4226 9.57592 17.4226 9.57592C17.4226 9.57592 17.4226 9.57592 17.4226 9.57592C17.4226 9.57592 17.4226 9.57592 17.4226 9.57592C17.4226 9.57592 17.4226 9.57592 17.4226 9.57592C17.4226 9.57592 17.4225 9.57592 17.4225 9.57592C17.4225 9.57592 17.4225 9.57592 17.4225 9.57592C17.4225 9.57592 17.4225 9.57592 17.4225 9.57592C17.4225 9.57592 17.4225 9.57592 17.4225 9.57592C17.4225 9.57592 17.4225 9.57592 17.4225 9.57592C17.4225 9.57592 17.4225 9.57592 17.4225 9.57592C17.4224 9.57592 17.4224 9.57592 17.4224 9.57592C17.4224 9.57592 17.4224 9.57592 17.4224 9.57592C17.4224 9.57592 17.4224 9.57592 17.4224 9.57592C17.4224 9.57592 17.4224 9.57592 17.4224 9.57592C17.4224 9.57592 17.4224 9.57592 17.4224 9.57592C17.4223 9.57592 17.4223 9.57592 17.4223 9.57592C17.4223 9.57592 17.4223 9.57592 17.4223 9.57592C17.4223 9.57592 17.4223 9.57592 17.4223 9.57592C17.4223 9.57592 17.4223 9.57592 17.4223 9.57592C17.4223 9.57592 17.4223 9.57592 17.4223 9.57592C17.4223 9.57592 17.4222 9.57592 17.4222 9.57592C17.4222 9.57592 17.4222 9.57592 17.4222 9.57592C17.4222 9.57592 17.4222 9.57592 17.4222 9.57592C17.4222 9.57592 17.4222 9.57592 17.4222 9.57592C17.4222 9.57592 17.4222 9.57592 17.4222 9.57592C17.4222 9.57592 17.4221 9.57592 17.4221 9.57592C17.4221 9.57592 17.4221 9.57592 17.4221 9.57592C17.4221 9.57592 17.4221 9.57592 17.4221 9.57592C17.4221 9.57592 17.4221 9.57592 17.4221 9.57592C17.4221 9.57592 17.4221 9.57592 17.4221 9.57592C17.422 9.57592 17.422 9.57592 17.422 9.57592C17.422 9.57592 17.422 9.57592 17.422 9.57592C17.422 9.57592 17.422 9.57592 17.422 9.57592C17.422 9.57592 17.422 9.57592 17.422 9.57592C17.422 9.57592 17.422 9.57592 17.4219 9.57592C17.4219 9.57592 17.4219 9.57592 17.4219 9.57592C17.4219 9.57592 17.4219 9.57592 17.4219 9.57592C17.4219 9.57592 17.4219 9.57592 17.4219 9.57592C17.4219 9.57592 17.4219 9.57592 17.4219 9.57592C17.4219 9.57592 17.4218 9.57592 17.4218 9.57592C17.4218 9.57592 17.4218 9.57592 17.4218 9.57592C17.4218 9.57592 17.4218 9.57592 17.4218 9.57592C17.4218 9.57592 17.4218 9.57592 17.4218 9.57592C17.4218 9.57592 17.4218 9.57592 17.4217 9.57592C17.4217 9.57592 17.4217 9.57592 17.4217 9.57592C17.4217 9.57592 17.4217 9.57592 17.4217 9.57592C17.4217 9.57592 17.4217 9.57592 17.4217 9.57592C17.4217 9.57592 17.4217 9.57592 17.4217 9.57592C17.4216 9.57592 17.4216 9.57592 17.4216 9.57592C17.4216 9.57592 17.4216 9.57592 17.4216 9.57592C17.4216 9.57592 17.4216 9.57592 17.4216 9.57592C17.4216 9.57592 17.4216 9.57592 17.4216 9.57592C17.4215 9.57592 17.4215 9.57592 17.4215 9.57592C17.4215 9.57592 17.4215 9.57592 17.4215 9.57592C17.4215 9.57592 17.4215 9.57592 17.4215 9.57592C17.4215 9.57592 17.4215 9.57592 17.4215 9.57592C17.4214 9.57592 17.4214 9.57592 17.4214 9.57592C17.4214 9.57592 17.4214 9.57592 17.4214 9.57592C17.4214 9.57592 17.4214 9.57592 17.4214 9.57592C17.4214 9.57592 17.4214 9.57592 17.4214 9.57592C17.4213 9.57592 17.4213 9.57592 17.4213 9.57592C17.4213 9.57592 17.4213 9.57592 17.4213 9.57592C17.4213 9.57592 17.4213 9.57592 17.4213 9.57592C17.4213 9.57592 17.4213 9.57592 17.4212 9.57592C17.4212 9.57592 17.4212 9.57592 17.4212 9.57592C17.4212 9.57592 17.4212 9.57592 17.4212 9.57592C17.4212 9.57592 17.4212 9.57592 17.4212 9.57592C17.4212 9.57592 17.4212 9.57592 17.4211 9.57592C17.4211 9.57592 17.4211 9.57592 17.4211 9.57592C17.4211 9.57592 17.4211 9.57592 17.4211 9.57592C17.4211 9.57592 17.4211 9.57592 17.4211 9.57592C17.4211 9.57592 17.421 9.57592 17.421 9.57592C17.421 9.57592 17.421 9.57592 17.421 9.57592C17.421 9.57592 17.421 9.57592 17.421 9.57592C17.421 9.57592 17.421 9.57592 17.4209 9.57592C17.4209 9.57592 17.4209 9.57592 17.4209 9.57592C17.4209 9.57592 17.4209 9.57592 17.4209 9.57592C17.4209 9.57592 17.4209 9.57592 17.4209 9.57592C17.4209 9.57592 17.4208 9.57592 17.4208 9.57592C17.4208 9.57592 17.4208 9.57592 17.4208 9.57592C17.4208 9.57592 17.4208 9.57592 17.4208 9.57592C17.4208 9.57592 17.4208 9.57592 17.4207 9.57592C17.4207 9.57592 17.4207 9.57592 17.4207 9.57592C17.4207 9.57592 17.4207 9.57592 17.4207 9.57592C17.4207 9.57592 17.4207 9.57592 17.4207 9.57592C17.4206 9.57592 17.4206 9.57592 17.4206 9.57592C17.4206 9.57592 17.4206 9.57592 17.4206 9.57592C17.4206 9.57592 17.4206 9.57592 17.4206 9.57592C17.4206 9.57592 17.4205 9.57592 17.4205 9.57592C17.4205 9.57592 17.4205 9.57592 17.4205 9.57592C17.4205 9.57592 17.4205 9.57592 17.4205 9.57592C17.4205 9.57592 17.4205 9.57592 17.4204 9.57592C17.4204 9.57592 17.4204 9.57592 17.4204 9.57592C17.4204 9.57592 17.4204 9.57592 17.4204 9.57592C17.4204 9.57592 17.4204 9.57592 17.4203 9.57592C17.4203 9.57592 17.4203 9.57592 17.4203 9.57592C17.4203 9.57592 17.4203 9.57592 17.4203 9.57592C17.4203 9.57592 17.4203 9.57592 17.4203 9.57592C17.4202 9.57592 17.4202 9.57592 17.4202 9.57592C17.4202 9.57592 17.4202 9.57592 17.4202 9.57592C17.4202 9.57592 17.4202 9.57592 17.4202 9.57592C17.4201 9.57592 17.4201 9.57592 17.4201 9.57592C17.4201 9.57592 17.4201 9.57592 17.4201 9.57592C17.4201 9.57592 17.4201 9.57592 17.4201 9.57592C17.42 9.57592 17.42 9.57592 17.42 9.57592C17.42 9.57592 17.42 9.57592 17.42 9.57592C17.42 9.57592 17.42 9.57592 17.42 9.57592C17.4199 9.57592 17.4199 9.57592 17.4199 9.57592C17.4199 9.57592 17.4199 9.57592 17.4199 9.57592C17.4199 9.57592 17.4199 9.57592 17.4199 9.57592C17.4198 9.57592 17.4198 9.57592 17.4198 9.57592C17.4198 9.57592 17.4198 9.57592 17.4198 9.57592C17.4198 9.57592 17.4198 9.57592 17.4197 9.57592C17.4197 9.57592 17.4197 9.57592 17.4197 9.57592C17.4197 9.57592 17.4197 9.57592 17.4197 9.57592C17.4197 9.57592 17.4197 9.57592 17.4196 9.57592C17.4196 9.57592 17.4196 9.57592 17.4196 9.57592C17.4196 9.57592 17.4196 9.57592 17.4196 9.57592C17.4196 9.57592 17.4195 9.57592 17.4195 9.57592C17.4195 9.57592 17.4195 9.57592 17.4195 9.57592C17.4195 9.57592 17.4195 9.57592 17.4195 9.57592C17.4195 9.57592 17.4194 9.57592 17.4194 9.57592C17.4194 9.57592 17.4194 9.57592 17.4194 9.57592C17.4194 9.57592 17.4194 9.57592 17.4194 9.57592C17.4193 9.57592 17.4193 9.57592 17.4193 9.57592C17.4193 9.57592 17.4193 9.57592 17.4193 9.57592C17.4193 9.57592 17.4193 9.57592 17.4192 9.57592C17.4192 9.57592 17.4192 9.57592 17.4192 9.57592C17.4192 9.57592 17.4192 9.57592 17.4192 9.57592C17.4192 9.57592 17.4191 9.57592 17.4191 9.57592C17.4191 9.57592 17.4191 9.57592 17.4191 9.57592C17.4191 9.57592 17.4191 9.57592 17.4191 9.57592C17.419 9.57592 17.419 9.57592 17.419 9.57592C17.419 9.57592 17.419 9.57592 17.419 9.57592C17.419 9.57592 17.4189 9.57592 17.4189 9.57592C17.4189 9.57592 17.4189 9.57592 17.4189 9.57592C17.4189 9.57592 17.4189 9.57592 17.4189 9.57592C17.4188 9.57592 17.4188 9.57592 17.4188 9.57592C17.4188 9.57592 17.4188 9.57592 17.4188 9.57592C17.4188 9.57592 17.4187 9.57592 17.4187 9.57592C17.4187 9.57592 17.4187 9.57592 17.4187 9.57592C17.4187 9.57592 17.4187 9.57592 17.4187 9.57592C17.4186 9.57592 17.4186 9.57592 17.4186 9.57592C17.4186 9.57592 17.4186 9.57592 17.4186 9.57592C17.4186 9.57592 17.4185 9.57592 17.4185 9.57592C17.4185 9.57592 17.4185 9.57592 17.4185 9.57592C17.4185 9.57592 17.4185 9.57592 17.4184 9.57592C17.4184 9.57592 17.4184 9.57592 17.4184 9.57592C17.4184 9.57592 17.4184 9.57592 17.4184 9.57592C17.4184 9.57592 17.4183 9.57592 17.4183 9.57592C17.4183 9.57592 17.4183 9.57592 17.4183 9.57592C17.4183 9.57592 17.4183 9.57592 17.4182 9.57592C17.4182 9.57592 17.4182 9.57592 17.4182 9.57592C17.4182 9.57592 17.4182 9.57592 17.4182 9.57592C17.4181 9.57592 17.4181 9.57592 17.4181 9.57592C17.4181 9.57592 17.4181 9.57592 17.4181 9.57592C17.4181 9.57592 17.418 9.57592 17.418 9.57592C17.418 9.57592 17.418 9.57592 17.418 9.57592C17.418 9.57592 17.4179 9.57592 17.4179 9.57592C17.4179 9.57592 17.4179 9.57592 17.4179 9.57592C17.4179 9.57592 17.4179 9.57592 17.4178 9.57592C17.4178 9.57592 17.4178 9.57592 17.4178 9.57592C17.4178 9.57592 17.4178 9.57592 17.4178 9.57592C17.4177 9.57592 17.4177 9.57592 17.4177 9.57592C17.4177 9.57592 17.4177 9.57592 17.4177 9.57592C17.4177 9.57592 17.4176 9.57592 17.4176 9.57592C17.4176 9.57592 17.4176 9.57592 17.4176 9.57592C17.4176 9.57592 17.4175 9.57592 17.4175 9.57592C17.4175 9.57592 17.4175 9.57592 17.4175 9.57592C17.4175 9.57592 17.4175 9.57592 17.4174 9.57592C17.4174 9.57592 17.4174 9.57592 17.4174 9.57592C17.4174 9.57592 17.4174 9.57592 17.4173 9.57592C17.4173 9.57592 17.4173 9.57592 17.4173 9.57592C17.4173 9.57592 17.4173 9.57592 17.4172 9.57592C17.4172 9.57592 17.4172 9.57592 17.4172 9.57592C17.4172 9.57592 17.4172 9.57592 17.4172 9.57592C17.4171 9.57592 17.4171 9.57592 17.4171 9.57592C17.4171 9.57592 17.4171 9.57592 17.4171 9.57592C17.417 9.57592 17.417 9.57592 17.417 9.57592C17.417 9.57592 17.417 9.57592 17.417 9.57592C17.4169 9.57592 17.4169 9.57592 17.4169 9.57592C17.4169 9.57592 17.4169 9.57592 17.4169 9.57592C17.4168 9.57592 17.4168 9.57592 17.4168 9.57592C17.4168 9.57592 17.4168 9.57592 17.4168 9.57592C17.4167 9.57592 17.4167 9.57592 17.4167 9.57592C17.4167 9.57592 17.4167 9.57592 17.4167 9.57592C17.4166 9.57592 17.4166 9.57592 17.4166 9.57592C17.4166 9.57592 17.4166 9.57592 17.4166 9.57592C17.4165 9.57592 17.4165 9.57592 17.4165 9.57592C17.4165 9.57592 17.4165 9.57592 17.4165 9.57592C17.4164 9.57592 17.4164 9.57592 17.4164 9.57592C17.4164 9.57592 17.4164 9.57592 17.4164 9.57592C17.4163 9.57592 17.4163 9.57592 17.4163 9.57592C17.4163 9.57592 17.4163 9.57592 17.4163 9.57592C17.4162 9.57592 17.4162 9.57592 17.4162 9.57592C17.4162 9.57592 17.4162 9.57592 17.4162 9.57592C17.4161 9.57592 17.4161 9.57592 17.4161 9.57592C17.4161 9.57592 17.4161 9.57592 17.416 9.57592C17.416 9.57592 17.416 9.57592 17.416 9.57592C17.416 9.57592 17.416 9.57592 17.4159 9.57592C17.4159 9.57592 17.4159 9.57592 17.4159 9.57592C17.4159 9.57592 17.4159 9.57592 17.4158 9.57592C17.4158 9.57592 17.4158 9.57592 17.4158 9.57592C17.4158 9.57592 17.4157 9.57592 17.4157 9.57592C17.4157 9.57592 17.4157 9.57592 17.4157 9.57592C17.4157 9.57592 17.4156 9.57592 17.4156 9.57592C17.4156 9.57592 17.4156 9.57592 17.4156 9.57592C17.4155 9.57592 17.4155 9.57592 17.4155 9.57592C17.4155 9.57592 17.4155 9.57592 17.4155 9.57592C17.4154 9.57592 17.4154 9.57592 17.4154 9.57592C17.4154 9.57592 17.4154 9.57592 17.4153 9.57592C17.4153 9.57592 17.4153 9.57592 17.4153 9.57592C17.4153 9.57592 17.4152 9.57592 17.4152 9.57592C17.4152 9.57592 17.4152 9.57592 17.4152 9.57592C17.4152 9.57592 17.4151 9.57592 17.4151 9.57592C17.4151 9.57592 17.4151 9.57592 17.4151 9.57592C17.415 9.57592 17.415 9.57592 17.415 9.57592C17.415 9.57592 17.415 9.57592 17.4149 9.57592C17.4149 9.57592 17.4149 9.57592 17.4149 9.57592C17.4149 9.57592 17.4148 9.57592 17.4148 9.57592C17.4148 9.57592 17.4148 9.57592 17.4148 9.57592C17.4148 9.57592 17.4147 9.57592 17.4147 9.57592C17.4147 9.57592 17.4147 9.57592 17.4147 9.57592C17.4146 9.57592 17.4146 9.57592 17.4146 9.57592C17.4146 9.57592 17.4146 9.57592 17.4145 9.57592C17.4145 9.57592 17.4145 9.57592 17.4145 9.57592C17.4145 9.57592 17.4144 9.57592 17.4144 9.57592C17.4144 9.57592 17.4144 9.57592 17.4144 9.57592C17.4143 9.57592 17.4143 9.57592 17.4143 9.57592C17.4143 9.57592 17.4143 9.57592 17.4142 9.57592C17.4142 9.57592 17.4142 9.57592 17.4142 9.57592C17.4142 9.57592 17.4141 9.57592 17.4141 9.57592C17.4141 9.57592 17.4141 9.57592 17.4141 9.57592C17.414 9.57592 17.414 9.57592 17.414 9.57592C17.414 9.57592 17.414 9.57592 17.4139 9.57592C17.4139 9.57592 17.4139 9.57592 17.4139 9.57592C17.4139 9.57592 17.4138 9.57592 17.4138 9.57592C17.4138 9.57592 17.4138 9.57592 17.4137 9.57592C17.4137 9.57592 17.4137 9.57592 17.4137 9.57592C17.4137 9.57592 17.4136 9.57592 17.4136 9.57592C17.4136 9.57592 17.4136 9.57592 17.4136 9.57592C17.4135 9.57592 17.4135 9.57592 17.4135 9.57592C17.4135 9.57592 17.4135 9.57592 17.4134 9.57592C17.4134 9.57592 17.4134 9.57592 17.4134 9.57592C17.4133 9.57592 17.4133 9.57592 17.4133 9.57592C17.4133 9.57592 17.4133 9.57592 17.4132 9.57592C17.4132 9.57592 17.4132 9.57592 17.4132 9.57592C17.4132 9.57592 17.4131 9.57592 17.4131 9.57592C17.4131 9.57592 17.4131 9.57592 17.413 9.57592C17.413 9.57592 17.413 9.57592 17.413 9.57592C17.413 9.57592 17.4129 9.57592 17.4129 9.57592C17.4129 9.57592 17.4129 9.57592 17.4128 9.57592V10.5759C17.4129 10.5759 17.4129 10.5759 17.4129 10.5759C17.4129 10.5759 17.413 10.5759 17.413 10.5759C17.413 10.5759 17.413 10.5759 17.413 10.5759C17.4131 10.5759 17.4131 10.5759 17.4131 10.5759C17.4131 10.5759 17.4132 10.5759 17.4132 10.5759C17.4132 10.5759 17.4132 10.5759 17.4132 10.5759C17.4133 10.5759 17.4133 10.5759 17.4133 10.5759C17.4133 10.5759 17.4133 10.5759 17.4134 10.5759C17.4134 10.5759 17.4134 10.5759 17.4134 10.5759C17.4135 10.5759 17.4135 10.5759 17.4135 10.5759C17.4135 10.5759 17.4135 10.5759 17.4136 10.5759C17.4136 10.5759 17.4136 10.5759 17.4136 10.5759C17.4136 10.5759 17.4137 10.5759 17.4137 10.5759C17.4137 10.5759 17.4137 10.5759 17.4137 10.5759C17.4138 10.5759 17.4138 10.5759 17.4138 10.5759C17.4138 10.5759 17.4139 10.5759 17.4139 10.5759C17.4139 10.5759 17.4139 10.5759 17.4139 10.5759C17.414 10.5759 17.414 10.5759 17.414 10.5759C17.414 10.5759 17.414 10.5759 17.4141 10.5759C17.4141 10.5759 17.4141 10.5759 17.4141 10.5759C17.4141 10.5759 17.4142 10.5759 17.4142 10.5759C17.4142 10.5759 17.4142 10.5759 17.4142 10.5759C17.4143 10.5759 17.4143 10.5759 17.4143 10.5759C17.4143 10.5759 17.4143 10.5759 17.4144 10.5759C17.4144 10.5759 17.4144 10.5759 17.4144 10.5759C17.4144 10.5759 17.4145 10.5759 17.4145 10.5759C17.4145 10.5759 17.4145 10.5759 17.4145 10.5759C17.4146 10.5759 17.4146 10.5759 17.4146 10.5759C17.4146 10.5759 17.4146 10.5759 17.4147 10.5759C17.4147 10.5759 17.4147 10.5759 17.4147 10.5759C17.4147 10.5759 17.4148 10.5759 17.4148 10.5759C17.4148 10.5759 17.4148 10.5759 17.4148 10.5759C17.4148 10.5759 17.4149 10.5759 17.4149 10.5759C17.4149 10.5759 17.4149 10.5759 17.4149 10.5759C17.415 10.5759 17.415 10.5759 17.415 10.5759C17.415 10.5759 17.415 10.5759 17.4151 10.5759C17.4151 10.5759 17.4151 10.5759 17.4151 10.5759C17.4151 10.5759 17.4152 10.5759 17.4152 10.5759C17.4152 10.5759 17.4152 10.5759 17.4152 10.5759C17.4152 10.5759 17.4153 10.5759 17.4153 10.5759C17.4153 10.5759 17.4153 10.5759 17.4153 10.5759C17.4154 10.5759 17.4154 10.5759 17.4154 10.5759C17.4154 10.5759 17.4154 10.5759 17.4155 10.5759C17.4155 10.5759 17.4155 10.5759 17.4155 10.5759C17.4155 10.5759 17.4155 10.5759 17.4156 10.5759C17.4156 10.5759 17.4156 10.5759 17.4156 10.5759C17.4156 10.5759 17.4157 10.5759 17.4157 10.5759C17.4157 10.5759 17.4157 10.5759 17.4157 10.5759C17.4157 10.5759 17.4158 10.5759 17.4158 10.5759C17.4158 10.5759 17.4158 10.5759 17.4158 10.5759C17.4159 10.5759 17.4159 10.5759 17.4159 10.5759C17.4159 10.5759 17.4159 10.5759 17.4159 10.5759C17.416 10.5759 17.416 10.5759 17.416 10.5759C17.416 10.5759 17.416 10.5759 17.416 10.5759C17.4161 10.5759 17.4161 10.5759 17.4161 10.5759C17.4161 10.5759 17.4161 10.5759 17.4162 10.5759C17.4162 10.5759 17.4162 10.5759 17.4162 10.5759C17.4162 10.5759 17.4162 10.5759 17.4163 10.5759C17.4163 10.5759 17.4163 10.5759 17.4163 10.5759C17.4163 10.5759 17.4163 10.5759 17.4164 10.5759C17.4164 10.5759 17.4164 10.5759 17.4164 10.5759C17.4164 10.5759 17.4164 10.5759 17.4165 10.5759C17.4165 10.5759 17.4165 10.5759 17.4165 10.5759C17.4165 10.5759 17.4165 10.5759 17.4166 10.5759C17.4166 10.5759 17.4166 10.5759 17.4166 10.5759C17.4166 10.5759 17.4166 10.5759 17.4167 10.5759C17.4167 10.5759 17.4167 10.5759 17.4167 10.5759C17.4167 10.5759 17.4167 10.5759 17.4168 10.5759C17.4168 10.5759 17.4168 10.5759 17.4168 10.5759C17.4168 10.5759 17.4168 10.5759 17.4169 10.5759C17.4169 10.5759 17.4169 10.5759 17.4169 10.5759C17.4169 10.5759 17.4169 10.5759 17.417 10.5759C17.417 10.5759 17.417 10.5759 17.417 10.5759C17.417 10.5759 17.417 10.5759 17.4171 10.5759C17.4171 10.5759 17.4171 10.5759 17.4171 10.5759C17.4171 10.5759 17.4171 10.5759 17.4172 10.5759C17.4172 10.5759 17.4172 10.5759 17.4172 10.5759C17.4172 10.5759 17.4172 10.5759 17.4172 10.5759C17.4173 10.5759 17.4173 10.5759 17.4173 10.5759C17.4173 10.5759 17.4173 10.5759 17.4173 10.5759C17.4174 10.5759 17.4174 10.5759 17.4174 10.5759C17.4174 10.5759 17.4174 10.5759 17.4174 10.5759C17.4175 10.5759 17.4175 10.5759 17.4175 10.5759C17.4175 10.5759 17.4175 10.5759 17.4175 10.5759C17.4175 10.5759 17.4176 10.5759 17.4176 10.5759C17.4176 10.5759 17.4176 10.5759 17.4176 10.5759C17.4176 10.5759 17.4177 10.5759 17.4177 10.5759C17.4177 10.5759 17.4177 10.5759 17.4177 10.5759C17.4177 10.5759 17.4177 10.5759 17.4178 10.5759C17.4178 10.5759 17.4178 10.5759 17.4178 10.5759C17.4178 10.5759 17.4178 10.5759 17.4178 10.5759C17.4179 10.5759 17.4179 10.5759 17.4179 10.5759C17.4179 10.5759 17.4179 10.5759 17.4179 10.5759C17.4179 10.5759 17.418 10.5759 17.418 10.5759C17.418 10.5759 17.418 10.5759 17.418 10.5759C17.418 10.5759 17.4181 10.5759 17.4181 10.5759C17.4181 10.5759 17.4181 10.5759 17.4181 10.5759C17.4181 10.5759 17.4181 10.5759 17.4182 10.5759C17.4182 10.5759 17.4182 10.5759 17.4182 10.5759C17.4182 10.5759 17.4182 10.5759 17.4182 10.5759C17.4183 10.5759 17.4183 10.5759 17.4183 10.5759C17.4183 10.5759 17.4183 10.5759 17.4183 10.5759C17.4183 10.5759 17.4184 10.5759 17.4184 10.5759C17.4184 10.5759 17.4184 10.5759 17.4184 10.5759C17.4184 10.5759 17.4184 10.5759 17.4184 10.5759C17.4185 10.5759 17.4185 10.5759 17.4185 10.5759C17.4185 10.5759 17.4185 10.5759 17.4185 10.5759C17.4185 10.5759 17.4186 10.5759 17.4186 10.5759C17.4186 10.5759 17.4186 10.5759 17.4186 10.5759C17.4186 10.5759 17.4186 10.5759 17.4187 10.5759C17.4187 10.5759 17.4187 10.5759 17.4187 10.5759C17.4187 10.5759 17.4187 10.5759 17.4187 10.5759C17.4187 10.5759 17.4188 10.5759 17.4188 10.5759C17.4188 10.5759 17.4188 10.5759 17.4188 10.5759C17.4188 10.5759 17.4188 10.5759 17.4189 10.5759C17.4189 10.5759 17.4189 10.5759 17.4189 10.5759C17.4189 10.5759 17.4189 10.5759 17.4189 10.5759C17.4189 10.5759 17.419 10.5759 17.419 10.5759C17.419 10.5759 17.419 10.5759 17.419 10.5759C17.419 10.5759 17.419 10.5759 17.4191 10.5759C17.4191 10.5759 17.4191 10.5759 17.4191 10.5759C17.4191 10.5759 17.4191 10.5759 17.4191 10.5759C17.4191 10.5759 17.4192 10.5759 17.4192 10.5759C17.4192 10.5759 17.4192 10.5759 17.4192 10.5759C17.4192 10.5759 17.4192 10.5759 17.4192 10.5759C17.4193 10.5759 17.4193 10.5759 17.4193 10.5759C17.4193 10.5759 17.4193 10.5759 17.4193 10.5759C17.4193 10.5759 17.4193 10.5759 17.4194 10.5759C17.4194 10.5759 17.4194 10.5759 17.4194 10.5759C17.4194 10.5759 17.4194 10.5759 17.4194 10.5759C17.4194 10.5759 17.4195 10.5759 17.4195 10.5759C17.4195 10.5759 17.4195 10.5759 17.4195 10.5759C17.4195 10.5759 17.4195 10.5759 17.4195 10.5759C17.4195 10.5759 17.4196 10.5759 17.4196 10.5759C17.4196 10.5759 17.4196 10.5759 17.4196 10.5759C17.4196 10.5759 17.4196 10.5759 17.4196 10.5759C17.4197 10.5759 17.4197 10.5759 17.4197 10.5759C17.4197 10.5759 17.4197 10.5759 17.4197 10.5759C17.4197 10.5759 17.4197 10.5759 17.4197 10.5759C17.4198 10.5759 17.4198 10.5759 17.4198 10.5759C17.4198 10.5759 17.4198 10.5759 17.4198 10.5759C17.4198 10.5759 17.4198 10.5759 17.4199 10.5759C17.4199 10.5759 17.4199 10.5759 17.4199 10.5759C17.4199 10.5759 17.4199 10.5759 17.4199 10.5759C17.4199 10.5759 17.4199 10.5759 17.42 10.5759C17.42 10.5759 17.42 10.5759 17.42 10.5759C17.42 10.5759 17.42 10.5759 17.42 10.5759C17.42 10.5759 17.42 10.5759 17.4201 10.5759C17.4201 10.5759 17.4201 10.5759 17.4201 10.5759C17.4201 10.5759 17.4201 10.5759 17.4201 10.5759C17.4201 10.5759 17.4201 10.5759 17.4202 10.5759C17.4202 10.5759 17.4202 10.5759 17.4202 10.5759C17.4202 10.5759 17.4202 10.5759 17.4202 10.5759C17.4202 10.5759 17.4202 10.5759 17.4203 10.5759C17.4203 10.5759 17.4203 10.5759 17.4203 10.5759C17.4203 10.5759 17.4203 10.5759 17.4203 10.5759C17.4203 10.5759 17.4203 10.5759 17.4203 10.5759C17.4204 10.5759 17.4204 10.5759 17.4204 10.5759C17.4204 10.5759 17.4204 10.5759 17.4204 10.5759C17.4204 10.5759 17.4204 10.5759 17.4204 10.5759C17.4205 10.5759 17.4205 10.5759 17.4205 10.5759C17.4205 10.5759 17.4205 10.5759 17.4205 10.5759C17.4205 10.5759 17.4205 10.5759 17.4205 10.5759C17.4205 10.5759 17.4206 10.5759 17.4206 10.5759C17.4206 10.5759 17.4206 10.5759 17.4206 10.5759C17.4206 10.5759 17.4206 10.5759 17.4206 10.5759C17.4206 10.5759 17.4206 10.5759 17.4207 10.5759C17.4207 10.5759 17.4207 10.5759 17.4207 10.5759C17.4207 10.5759 17.4207 10.5759 17.4207 10.5759C17.4207 10.5759 17.4207 10.5759 17.4207 10.5759C17.4208 10.5759 17.4208 10.5759 17.4208 10.5759C17.4208 10.5759 17.4208 10.5759 17.4208 10.5759C17.4208 10.5759 17.4208 10.5759 17.4208 10.5759C17.4208 10.5759 17.4209 10.5759 17.4209 10.5759C17.4209 10.5759 17.4209 10.5759 17.4209 10.5759C17.4209 10.5759 17.4209 10.5759 17.4209 10.5759C17.4209 10.5759 17.4209 10.5759 17.4209 10.5759C17.421 10.5759 17.421 10.5759 17.421 10.5759C17.421 10.5759 17.421 10.5759 17.421 10.5759C17.421 10.5759 17.421 10.5759 17.421 10.5759C17.421 10.5759 17.4211 10.5759 17.4211 10.5759C17.4211 10.5759 17.4211 10.5759 17.4211 10.5759C17.4211 10.5759 17.4211 10.5759 17.4211 10.5759C17.4211 10.5759 17.4211 10.5759 17.4211 10.5759C17.4212 10.5759 17.4212 10.5759 17.4212 10.5759C17.4212 10.5759 17.4212 10.5759 17.4212 10.5759C17.4212 10.5759 17.4212 10.5759 17.4212 10.5759C17.4212 10.5759 17.4212 10.5759 17.4212 10.5759C17.4213 10.5759 17.4213 10.5759 17.4213 10.5759C17.4213 10.5759 17.4213 10.5759 17.4213 10.5759C17.4213 10.5759 17.4213 10.5759 17.4213 10.5759C17.4213 10.5759 17.4213 10.5759 17.4214 10.5759C17.4214 10.5759 17.4214 10.5759 17.4214 10.5759C17.4214 10.5759 17.4214 10.5759 17.4214 10.5759C17.4214 10.5759 17.4214 10.5759 17.4214 10.5759C17.4214 10.5759 17.4214 10.5759 17.4215 10.5759C17.4215 10.5759 17.4215 10.5759 17.4215 10.5759C17.4215 10.5759 17.4215 10.5759 17.4215 10.5759C17.4215 10.5759 17.4215 10.5759 17.4215 10.5759C17.4215 10.5759 17.4215 10.5759 17.4216 10.5759C17.4216 10.5759 17.4216 10.5759 17.4216 10.5759C17.4216 10.5759 17.4216 10.5759 17.4216 10.5759C17.4216 10.5759 17.4216 10.5759 17.4216 10.5759C17.4216 10.5759 17.4216 10.5759 17.4217 10.5759C17.4217 10.5759 17.4217 10.5759 17.4217 10.5759C17.4217 10.5759 17.4217 10.5759 17.4217 10.5759C17.4217 10.5759 17.4217 10.5759 17.4217 10.5759C17.4217 10.5759 17.4217 10.5759 17.4217 10.5759C17.4218 10.5759 17.4218 10.5759 17.4218 10.5759C17.4218 10.5759 17.4218 10.5759 17.4218 10.5759C17.4218 10.5759 17.4218 10.5759 17.4218 10.5759C17.4218 10.5759 17.4218 10.5759 17.4218 10.5759C17.4218 10.5759 17.4219 10.5759 17.4219 10.5759C17.4219 10.5759 17.4219 10.5759 17.4219 10.5759C17.4219 10.5759 17.4219 10.5759 17.4219 10.5759C17.4219 10.5759 17.4219 10.5759 17.4219 10.5759C17.4219 10.5759 17.4219 10.5759 17.4219 10.5759C17.422 10.5759 17.422 10.5759 17.422 10.5759C17.422 10.5759 17.422 10.5759 17.422 10.5759C17.422 10.5759 17.422 10.5759 17.422 10.5759C17.422 10.5759 17.422 10.5759 17.422 10.5759C17.422 10.5759 17.422 10.5759 17.4221 10.5759C17.4221 10.5759 17.4221 10.5759 17.4221 10.5759C17.4221 10.5759 17.4221 10.5759 17.4221 10.5759C17.4221 10.5759 17.4221 10.5759 17.4221 10.5759C17.4221 10.5759 17.4221 10.5759 17.4221 10.5759C17.4221 10.5759 17.4222 10.5759 17.4222 10.5759C17.4222 10.5759 17.4222 10.5759 17.4222 10.5759C17.4222 10.5759 17.4222 10.5759 17.4222 10.5759C17.4222 10.5759 17.4222 10.5759 17.4222 10.5759C17.4222 10.5759 17.4222 10.5759 17.4222 10.5759C17.4222 10.5759 17.4223 10.5759 17.4223 10.5759C17.4223 10.5759 17.4223 10.5759 17.4223 10.5759C17.4223 10.5759 17.4223 10.5759 17.4223 10.5759C17.4223 10.5759 17.4223 10.5759 17.4223 10.5759C17.4223 10.5759 17.4223 10.5759 17.4223 10.5759C17.4223 10.5759 17.4223 10.5759 17.4224 10.5759C17.4224 10.5759 17.4224 10.5759 17.4224 10.5759C17.4224 10.5759 17.4224 10.5759 17.4224 10.5759C17.4224 10.5759 17.4224 10.5759 17.4224 10.5759C17.4224 10.5759 17.4224 10.5759 17.4224 10.5759C17.4224 10.5759 17.4224 10.5759 17.4225 10.5759C17.4225 10.5759 17.4225 10.5759 17.4225 10.5759C17.4225 10.5759 17.4225 10.5759 17.4225 10.5759C17.4225 10.5759 17.4225 10.5759 17.4225 10.5759C17.4225 10.5759 17.4225 10.5759 17.4225 10.5759C17.4225 10.5759 17.4225 10.5759 17.4225 10.5759C17.4225 10.5759 17.4226 10.5759 17.4226 10.5759C17.4226 10.5759 17.4226 10.5759 17.4226 10.5759C17.4226 10.5759 17.4226 10.5759 17.4226 10.5759C17.4226 10.5759 17.4226 10.5759 17.4226 10.5759C17.4226 10.5759 17.4226 10.5759 17.4226 10.5759C17.4226 10.5759 17.4226 10.5759 17.4226 10.5759C17.4226 10.5759 17.4227 10.5759 17.4227 10.5759C17.4227 10.5759 17.4227 10.5759 17.4227 10.5759C17.4227 10.5759 17.4227 10.5759 17.4227 10.5759C17.4227 10.5759 17.4227 10.5759 17.4227 10.5759C17.4227 10.5759 17.4227 10.5759 17.4227 10.5759C17.4227 10.5759 17.4227 10.5759 17.4227 10.5759C17.4227 10.5759 17.4228 10.5759 17.4228 10.5759C17.4228 10.5759 17.4228 10.5759 17.4228 10.5759C17.4228 10.5759 17.4228 10.5759 17.4228 10.5759C17.4228 10.5759 17.4228 10.5759 17.4228 10.5759C17.4228 10.5759 17.4228 10.5759 17.4228 10.5759C17.4228 10.5759 17.4228 10.5759 17.4228 10.5759C17.4228 10.5759 17.4228 10.5759 17.4229 10.5759C17.4229 10.5759 17.4229 10.5759 17.4229 10.5759C17.4229 10.5759 17.4229 10.5759 17.4229 10.5759C17.4229 10.5759 17.4229 10.5759 17.4229 10.5759C17.4229 10.5759 17.4229 10.5759 17.4229 10.5759C17.4229 10.5759 17.4229 10.5759 17.4229 10.5759C17.4229 10.5759 17.4229 10.5759 17.4229 10.5759C17.4229 10.5759 17.423 10.5759 17.423 10.5759C17.423 10.5759 17.423 10.5759 17.423 10.5759C17.423 10.5759 17.423 10.5759 17.423 10.5759C17.423 10.5759 17.423 10.5759 17.423 10.5759C17.423 10.5759 17.423 10.5759 17.423 10.5759C17.423 10.5759 17.423 10.5759 17.423 10.5759C17.423 10.5759 17.423 10.5759 17.423 10.5759C17.423 10.5759 17.423 10.5759 17.4231 10.5759C17.4231 10.5759 17.4231 10.5759 17.4231 10.5759C17.4231 10.5759 17.4231 10.5759 17.4231 10.5759C17.4231 10.5759 17.4231 10.5759 17.4231 10.5759C17.4231 10.5759 17.4231 10.5759 17.4231 10.5759C17.4231 10.5759 17.4231 10.5759 17.4231 10.5759C17.4231 10.5759 17.4231 10.5759 17.4231 10.5759C17.4231 10.5759 17.4231 10.5759 17.4231 10.5759C17.4231 10.5759 17.4232 10.5759 17.4232 10.5759C17.4232 10.5759 17.4232 10.5759 17.4232 10.5759C17.4232 10.5759 17.4232 10.5759 17.4232 10.5759C17.4232 10.5759 17.4232 10.5759 17.4232 10.5759C17.4232 10.5759 17.4232 10.5759 17.4232 10.5759C17.4232 10.5759 17.4232 10.5759 17.4232 10.5759C17.4232 10.5759 17.4232 10.5759 17.4232 10.5759C17.4232 10.5759 17.4232 10.5759 17.4232 10.5759C17.4232 10.5759 17.4233 10.5759 17.4233 10.5759C17.4233 10.5759 17.4233 10.5759 17.4233 10.5759C17.4233 10.5759 17.4233 10.5759 17.4233 10.5759C17.4233 10.5759 17.4233 10.5759 17.4233 10.5759C17.4233 10.5759 17.4233 10.5759 17.4233 10.5759C17.4233 10.5759 17.4233 10.5759 17.4233 10.5759C17.4233 10.5759 17.4233 10.5759 17.4233 10.5759C17.4233 10.5759 17.4233 10.5759 17.4233 10.5759C17.4233 10.5759 17.4233 10.5759 17.4233 10.5759C17.4233 10.5759 17.4234 10.5759 17.4234 10.5759C17.4234 10.5759 17.4234 10.5759 17.4234 10.5759C17.4234 10.5759 17.4234 10.5759 17.4234 10.5759C17.4234 10.5759 17.4234 10.5759 17.4234 10.5759C17.4234 10.5759 17.4234 10.5759 17.4234 10.5759C17.4234 10.5759 17.4234 10.5759 17.4234 10.5759C17.4234 10.5759 17.4234 10.5759 17.4234 10.5759C17.4234 10.5759 17.4234 10.5759 17.4234 10.5759C17.4234 10.5759 17.4234 10.5759 17.4234 10.5759C17.4234 10.5759 17.4234 10.5759 17.4234 10.5759C17.4235 10.5759 17.4235 10.5759 17.4235 10.5759C17.4235 10.5759 17.4235 10.5759 17.4235 10.5759C17.4235 10.5759 17.4235 10.5759 17.4235 10.5759C17.4235 10.5759 17.4235 10.5759 17.4235 10.5759C17.4235 10.5759 17.4235 10.5759 17.4235 10.5759C17.4235 10.5759 17.4235 10.5759 17.4235 10.5759C17.4235 10.5759 17.4235 10.5759 17.4235 10.5759C17.4235 10.5759 17.4235 10.5759 17.4235 10.5759C17.4235 10.5759 17.4235 10.5759 17.4235 10.5759C17.4235 10.5759 17.4235 10.5759 17.4235 10.5759C17.4235 10.5759 17.4235 10.5759 17.4236 10.5759C17.4236 10.5759 17.4236 10.5759 17.4236 10.5759C17.4236 10.5759 17.4236 10.5759 17.4236 10.5759C17.4236 10.5759 17.4236 10.5759 17.4236 10.5759C17.4236 10.5759 17.4236 10.5759 17.4236 10.5759C17.4236 10.5759 17.4236 10.5759 17.4236 10.5759C17.4236 10.5759 17.4236 10.5759 17.4236 10.5759C17.4236 10.5759 17.4236 10.5759 17.4236 10.5759C17.4236 10.5759 17.4236 10.5759 17.4236 10.5759C17.4236 10.5759 17.4236 10.5759 17.4236 10.5759C17.4236 10.5759 17.4236 10.5759 17.4236 10.5759C17.4236 10.5759 17.4236 10.5759 17.4236 10.5759C17.4236 10.5759 17.4236 10.5759 17.4237 10.5759C17.4237 10.5759 17.4237 10.5759 17.4237 10.5759C17.4237 10.5759 17.4237 10.5759 17.4237 10.5759C17.4237 10.5759 17.4237 10.5759 17.4237 10.5759C17.4237 10.5759 17.4237 10.5759 17.4237 10.5759C17.4237 10.5759 17.4237 10.5759 17.4237 10.5759C17.4237 10.5759 17.4237 10.5759 17.4237 10.5759C17.4237 10.5759 17.4237 10.5759 17.4237 10.5759C17.4237 10.5759 17.4237 10.5759 17.4237 10.5759C17.4237 10.5759 17.4237 10.5759 17.4237 10.5759C17.4237 10.5759 17.4237 10.5759 17.4237 10.5759C17.4237 10.5759 17.4237 10.5759 17.4237 10.5759C17.4237 10.5759 17.4237 10.5759 17.4237 10.5759C17.4237 10.5759 17.4237 10.5759 17.4237 10.5759C17.4237 10.5759 17.4237 10.5759 17.4237 10.5759C17.4238 10.5759 17.4238 10.5759 17.4238 10.5759C17.4238 10.5759 17.4238 10.5759 17.4238 10.5759C17.4238 10.5759 17.4238 10.5759 17.4238 10.5759C17.4238 10.5759 17.4238 10.5759 17.4238 10.5759C17.4238 10.5759 17.4238 10.5759 17.4238 10.5759C17.4238 10.5759 17.4238 10.5759 17.4238 10.5759C17.4238 10.5759 17.4238 10.5759 17.4238 10.5759C17.4238 10.5759 17.4238 10.5759 17.4238 10.5759C17.4238 10.5759 17.4238 10.5759 17.4238 10.5759C17.4238 10.5759 17.4238 10.5759 17.4238 10.5759C17.4238 10.5759 17.4238 10.5759 17.4238 10.5759C17.4238 10.5759 17.4238 10.5759 17.4238 10.5759C17.4238 10.5759 17.4238 10.5759 17.4238 10.5759C17.4238 10.5759 17.4238 10.5759 17.4238 10.5759C17.4238 10.5759 17.4238 10.5759 17.4238 10.5759C17.4238 10.5759 17.4238 10.5759 17.4238 10.5759C17.4238 10.5759 17.4238 10.5759 17.4238 10.5759C17.4239 10.5759 17.4239 10.5759 17.4239 10.5759C17.4239 10.5759 17.4239 10.5759 17.4239 10.5759C17.4239 10.5759 17.4239 10.5759 17.4239 10.5759C17.4239 10.5759 17.4239 10.5759 17.4239 10.5759C17.4239 10.5759 17.4239 10.5759 17.4239 10.5759C17.4239 10.5759 17.4239 10.5759 17.4239 10.5759C17.4239 10.5759 17.4239 10.5759 17.4239 10.5759C17.4239 10.5759 17.4239 10.5759 17.4239 10.5759C17.4239 10.5759 17.4239 10.5759 17.4239 10.5759C17.4239 10.5759 17.4239 10.5759 17.4239 10.5759C17.4239 10.5759 17.4239 10.5759 17.4239 10.5759C17.4239 10.5759 17.4239 10.5759 17.4239 10.5759C17.4239 10.5759 17.4239 10.5759 17.4239 10.5759C17.4239 10.5759 17.4239 10.5759 17.4239 10.5759C17.4239 10.5759 17.4239 10.5759 17.4239 10.5759C17.4239 10.5759 17.4239 10.5759 17.4239 10.5759C17.4239 10.5759 17.4239 10.5759 17.4239 10.5759C17.4239 10.5759 17.4239 10.5759 17.4239 10.5759C17.4239 10.5759 17.4239 10.5759 17.4239 10.5759C17.4239 10.5759 17.4239 10.5759 17.4239 10.5759C17.4239 10.5759 17.4239 10.5759 17.4239 10.5759C17.4239 10.5759 17.4239 10.5759 17.4239 10.5759C17.4239 10.5759 17.4239 10.5759 17.424 10.5759C17.424 10.5759 17.424 10.5759 17.424 10.5759C17.424 10.5759 17.424 10.5759 17.424 10.5759C17.424 10.5759 17.424 10.5759 17.424 10.5759C17.424 10.5759 17.424 10.5759 17.424 10.5759C17.424 10.5759 17.424 10.5759 17.424 10.5759C17.424 10.5759 17.424 10.5759 17.424 10.5759C17.424 10.5759 17.424 10.5759 17.424 10.5759C17.424 10.5759 17.424 10.5759 17.424 10.5759C17.424 10.5759 17.424 10.5759 17.424 10.5759C17.424 10.5759 17.424 10.5759 17.424 10.5759C17.424 10.5759 17.424 10.5759 17.424 10.5759C17.424 10.5759 17.424 10.5759 17.424 10.5759C17.424 10.5759 17.424 10.5759 17.424 10.5759C17.424 10.5759 17.424 10.5759 17.424 10.5759C17.424 10.5759 17.424 10.5759 17.424 10.5759C17.424 10.5759 17.424 10.5759 17.424 10.5759C17.424 10.5759 17.424 10.5759 17.424 10.5759C17.424 10.5759 17.424 10.5759 17.424 10.5759C17.424 10.5759 17.424 10.5759 17.424 10.5759C17.424 10.5759 17.424 10.5759 17.424 10.5759C17.424 10.5759 17.424 10.5759 17.424 10.5759C17.424 10.5759 17.424 10.5759 17.424 10.5759C17.424 10.5759 17.424 10.5759 17.424 10.5759C17.424 10.5759 17.424 10.5759 17.424 10.5759C17.424 10.5759 17.424 10.5759 17.424 10.5759C17.424 10.5759 17.424 10.5759 17.424 10.5759C17.424 10.5759 17.424 10.5759 17.424 10.5759C17.424 10.5759 17.424 10.5759 17.424 10.5759C17.424 10.5759 17.424 10.5759 17.424 10.5759C17.424 10.5759 17.424 10.5759 17.424 10.5759C17.424 10.5759 17.424 10.5759 17.424 10.5759C17.424 10.5759 17.424 10.5759 17.424 10.5759C17.424 10.5759 17.424 10.5759 17.424 10.5759C17.424 10.5759 17.424 10.5759 17.424 10.5759C17.424 10.5759 17.424 10.5759 17.424 10.5759H17.424C17.424 10.5759 17.424 10.5759 17.424 10.5759C17.4241 10.5759 17.4241 10.5759 17.4241 10.5759C17.4241 10.5759 17.4241 10.5759 17.4241 10.5759C17.4241 10.5759 17.4241 10.5759 17.4241 10.5759H17.4241C17.4241 10.5759 17.4241 10.5759 17.4241 10.5759C17.4241 10.5759 17.4241 10.5759 17.4241 10.5759H17.4241C17.4241 10.5759 17.4241 10.5759 17.4241 10.5759H17.4241C17.4241 10.5759 17.4241 10.5759 17.4241 10.5759H17.4241C17.4241 10.5759 17.4241 10.5759 17.4241 10.5759H17.4241H17.4241C17.4241 10.5759 17.4241 10.5759 17.4241 10.5759C17.4241 10.5759 17.4241 10.5759 17.4241 10.5759H17.4241H17.4241C17.4241 10.5759 17.4241 10.5759 17.4241 10.5759C17.4241 10.5759 17.4241 10.5759 17.4241 10.5759C17.4241 10.5759 17.4241 10.5759 17.4241 10.5759C17.4241 10.5759 17.4241 10.5759 17.4241 10.5759C17.4241 10.5759 17.4241 10.5759 17.4241 10.5759C17.4241 10.5759 17.4241 10.5759 17.4241 10.5759C17.4241 10.5759 17.4241 10.5759 17.4241 10.5759C17.4241 10.5759 17.4241 10.5759 17.4241 10.5759C17.4241 10.5759 17.4241 10.5759 17.4241 10.5759H17.4241H17.4241C17.4241 10.5759 17.4241 10.5759 17.4241 10.5759C17.4241 10.5759 17.4241 10.5759 17.4241 10.5759H17.4241C17.4241 10.5759 17.4241 10.5759 17.4241 10.5759C17.4241 10.5759 17.4241 10.5759 17.4241 10.5759H17.4241C17.4241 10.5759 17.4241 10.5759 17.4241 10.5759C17.4241 10.5759 17.4241 10.5759 17.4241 10.5759H17.4241C17.4241 10.5759 17.4241 10.5759 17.4241 10.5759H17.4241C17.4241 10.5759 17.4241 10.5759 17.4241 10.5759C17.4241 10.5759 17.4241 10.5759 17.4241 10.5759H17.4241C17.4241 10.0759 17.4241 9.57592 17.4241 10.0759ZM17.434 9.57637C17.1645 9.56496 16.8734 9.55307 16.569 9.55307V10.5531C16.8496 10.5531 17.1211 10.564 17.3917 10.5755L17.434 9.57637ZM16.5901 9.55351C16.0404 9.53025 15.3485 9.50797 14.8222 9.46343L14.7379 10.4599C15.2918 10.5067 16.0175 10.5302 16.5479 10.5526L16.5901 9.55351ZM14.8222 9.46343C14.7771 9.45961 14.7737 9.45145 14.7906 9.46137C14.7992 9.46639 14.81 9.47438 14.8208 9.48574C14.8315 9.49704 14.8395 9.50871 14.8449 9.51889C14.8552 9.5383 14.8527 9.54526 14.8513 9.52738C14.8507 9.51908 14.8504 9.50697 14.8513 9.49068C14.8522 9.47444 14.8542 9.45549 14.8576 9.43381L13.8698 9.2782C13.8413 9.4592 13.8266 9.73307 13.9614 9.98731C14.1182 10.2832 14.4085 10.432 14.7379 10.4599L14.8222 9.46343ZM14.8307 9.5348C15.2466 8.44857 15.4738 7.22704 15.4259 6.011L14.4267 6.05036C14.4688 7.11977 14.2685 8.20654 13.8968 9.17721L14.8307 9.5348ZM15.4258 6.00754C15.3742 4.89451 14.6419 3.65181 13.3959 3.51121L13.2838 4.50491C13.8606 4.57 14.3884 5.22422 14.4268 6.05382L15.4258 6.00754ZM13.3926 3.51085C12.8914 3.45766 12.4085 3.60205 12.0771 3.92952C11.7355 4.26706 11.601 4.75702 11.745 5.26439L12.707 4.99146C12.6597 4.82463 12.7052 4.71466 12.78 4.64082C12.8649 4.55692 13.0345 4.47847 13.2871 4.50527L13.3926 3.51085ZM11.7452 5.26528C11.9863 6.10918 11.5582 7.1351 10.6195 8.22389C9.70341 9.28644 8.40994 10.2779 7.23848 10.9985L7.7624 11.8502C8.98746 11.0967 10.3718 10.0426 11.3769 8.87687C12.3593 7.73736 13.0957 6.35213 12.7068 4.99058L11.7452 5.26528ZM7.00044 11.4243V18.2807H8.00044V11.4243H7.00044ZM7.23386 18.7037C9.22119 19.9561 12.3624 20.564 15.9262 20.4947L15.9067 19.4949C12.4271 19.5626 9.51512 18.9593 7.76701 17.8577L7.23386 18.7037ZM15.9164 20.4948C16.1442 20.4948 16.3834 20.4826 16.6361 20.4714L16.5919 19.4724C16.327 19.4841 16.1162 19.4948 15.9164 19.4948V20.4948ZM16.614 20.4719C16.6141 20.4719 16.6141 20.4719 16.6142 20.4719C16.6143 20.4719 16.6143 20.4719 16.6144 20.4719C16.6145 20.4719 16.6145 20.4719 16.6146 20.4719C16.6147 20.4719 16.6147 20.4719 16.6148 20.4719C16.6149 20.4719 16.6149 20.4719 16.615 20.4719C16.6151 20.4719 16.6151 20.4719 16.6152 20.4719C16.6153 20.4719 16.6153 20.4719 16.6154 20.4719C16.6155 20.4719 16.6155 20.4719 16.6156 20.4719C16.6157 20.4719 16.6157 20.4719 16.6158 20.4719C16.6159 20.4719 16.6159 20.4719 16.616 20.4719C16.616 20.4719 16.6161 20.4719 16.6162 20.4719C16.6162 20.4719 16.6163 20.4719 16.6164 20.4719C16.6164 20.4719 16.6165 20.4719 16.6166 20.4719C16.6166 20.4719 16.6167 20.4719 16.6168 20.4719C16.6168 20.4719 16.6169 20.4719 16.617 20.4719C16.617 20.4719 16.6171 20.4719 16.6172 20.4719C16.6172 20.4719 16.6173 20.4719 16.6174 20.4719C16.6174 20.4719 16.6175 20.4719 16.6176 20.4719C16.6176 20.4719 16.6177 20.4719 16.6178 20.4719C16.6178 20.4719 16.6179 20.4719 16.618 20.4719C16.618 20.4719 16.6181 20.4719 16.6182 20.4719C16.6182 20.4719 16.6183 20.4719 16.6184 20.4719C16.6184 20.4719 16.6185 20.4719 16.6186 20.4719C16.6186 20.4719 16.6187 20.4719 16.6188 20.4719C16.6188 20.4719 16.6189 20.4719 16.6189 20.4719C16.619 20.4719 16.6191 20.4719 16.6191 20.4719C16.6192 20.4719 16.6193 20.4719 16.6193 20.4719C16.6194 20.4719 16.6195 20.4719 16.6195 20.4719C16.6196 20.4719 16.6197 20.4719 16.6197 20.4719C16.6198 20.4719 16.6199 20.4719 16.6199 20.4719C16.62 20.4719 16.6201 20.4719 16.6201 20.4719C16.6202 20.4719 16.6203 20.4719 16.6203 20.4719C16.6204 20.4719 16.6205 20.4719 16.6205 20.4719C16.6206 20.4719 16.6207 20.4719 16.6207 20.4719C16.6208 20.4719 16.6209 20.4719 16.6209 20.4719C16.621 20.4719 16.6211 20.4719 16.6211 20.4719C16.6212 20.4719 16.6213 20.4719 16.6213 20.4719C16.6214 20.4719 16.6215 20.4719 16.6215 20.4719C16.6216 20.4719 16.6217 20.4719 16.6217 20.4719C16.6218 20.4719 16.6219 20.4719 16.6219 20.4719C16.622 20.4719 16.622 20.4719 16.6221 20.4719C16.6222 20.4719 16.6222 20.4719 16.6223 20.4719C16.6224 20.4719 16.6224 20.4719 16.6225 20.4719C16.6226 20.4719 16.6226 20.4719 16.6227 20.4719C16.6228 20.4719 16.6228 20.4719 16.6229 20.4719C16.623 20.4719 16.623 20.4719 16.6231 20.4719C16.6232 20.4719 16.6232 20.4719 16.6233 20.4719C16.6234 20.4719 16.6234 20.4719 16.6235 20.4719C16.6236 20.4719 16.6236 20.4719 16.6237 20.4719C16.6238 20.4719 16.6238 20.4719 16.6239 20.4719C16.624 20.4719 16.624 20.4719 16.6241 20.4719C16.6242 20.4719 16.6242 20.4719 16.6243 20.4719C16.6244 20.4719 16.6244 20.4719 16.6245 20.4719C16.6246 20.4719 16.6246 20.4719 16.6247 20.4719C16.6248 20.4719 16.6248 20.4719 16.6249 20.4719C16.6249 20.4719 16.625 20.4719 16.6251 20.4719C16.6251 20.4719 16.6252 20.4719 16.6253 20.4719C16.6253 20.4719 16.6254 20.4719 16.6255 20.4719C16.6255 20.4719 16.6256 20.4719 16.6257 20.4719C16.6257 20.4719 16.6258 20.4719 16.6259 20.4719C16.6259 20.4719 16.626 20.4719 16.6261 20.4719C16.6261 20.4719 16.6262 20.4719 16.6263 20.4719C16.6263 20.4719 16.6264 20.4719 16.6265 20.4719C16.6265 20.4719 16.6266 20.4719 16.6267 20.4719C16.6267 20.4719 16.6268 20.4719 16.6269 20.4719C16.6269 20.4719 16.627 20.4719 16.6271 20.4719C16.6271 20.4719 16.6272 20.4719 16.6273 20.4719C16.6273 20.4719 16.6274 20.4719 16.6275 20.4719C16.6275 20.4719 16.6276 20.4719 16.6277 20.4719C16.6277 20.4719 16.6278 20.4719 16.6278 20.4719C16.6279 20.4719 16.628 20.4719 16.628 20.4719C16.6281 20.4719 16.6282 20.4719 16.6282 20.4719C16.6283 20.4719 16.6284 20.4719 16.6284 20.4719C16.6285 20.4719 16.6286 20.4719 16.6286 20.4719C16.6287 20.4719 16.6288 20.4719 16.6288 20.4719C16.6289 20.4719 16.629 20.4719 16.629 20.4719C16.6291 20.4719 16.6292 20.4719 16.6292 20.4719C16.6293 20.4719 16.6294 20.4719 16.6294 20.4719C16.6295 20.4719 16.6296 20.4719 16.6296 20.4719C16.6297 20.4719 16.6298 20.4719 16.6298 20.4719C16.6299 20.4719 16.63 20.4719 16.63 20.4719C16.6301 20.4719 16.6302 20.4719 16.6302 20.4719C16.6303 20.4719 16.6304 20.4719 16.6304 20.4719C16.6305 20.4719 16.6306 20.4719 16.6306 20.4719C16.6307 20.4719 16.6308 20.4719 16.6308 20.4719C16.6309 20.4719 16.6309 20.4719 16.631 20.4719C16.6311 20.4719 16.6311 20.4719 16.6312 20.4719C16.6313 20.4719 16.6313 20.4719 16.6314 20.4719C16.6315 20.4719 16.6315 20.4719 16.6316 20.4719C16.6317 20.4719 16.6317 20.4719 16.6318 20.4719C16.6319 20.4719 16.6319 20.4719 16.632 20.4719C16.6321 20.4719 16.6321 20.4719 16.6322 20.4719C16.6323 20.4719 16.6323 20.4719 16.6324 20.4719C16.6325 20.4719 16.6325 20.4719 16.6326 20.4719C16.6327 20.4719 16.6327 20.4719 16.6328 20.4719C16.6329 20.4719 16.6329 20.4719 16.633 20.4719C16.6331 20.4719 16.6331 20.4719 16.6332 20.4719C16.6333 20.4719 16.6333 20.4719 16.6334 20.4719C16.6335 20.4719 16.6335 20.4719 16.6336 20.4719C16.6337 20.4719 16.6337 20.4719 16.6338 20.4719C16.6338 20.4719 16.6339 20.4719 16.634 20.4719C16.634 20.4719 16.6341 20.4719 16.6342 20.4719C16.6342 20.4719 16.6343 20.4719 16.6344 20.4719C16.6344 20.4719 16.6345 20.4719 16.6346 20.4719C16.6346 20.4719 16.6347 20.4719 16.6348 20.4719C16.6348 20.4719 16.6349 20.4719 16.635 20.4719C16.635 20.4719 16.6351 20.4719 16.6352 20.4719C16.6352 20.4719 16.6353 20.4719 16.6354 20.4719C16.6354 20.4719 16.6355 20.4719 16.6356 20.4719C16.6356 20.4719 16.6357 20.4719 16.6358 20.4719C16.6358 20.4719 16.6359 20.4719 16.636 20.4719C16.636 20.4719 16.6361 20.4719 16.6362 20.4719C16.6362 20.4719 16.6363 20.4719 16.6364 20.4719C16.6364 20.4719 16.6365 20.4719 16.6366 20.4719C16.6366 20.4719 16.6367 20.4719 16.6367 20.4719C16.6368 20.4719 16.6369 20.4719 16.6369 20.4719C16.637 20.4719 16.6371 20.4719 16.6371 20.4719C16.6372 20.4719 16.6373 20.4719 16.6373 20.4719C16.6374 20.4719 16.6375 20.4719 16.6375 20.4719C16.6376 20.4719 16.6377 20.4719 16.6377 20.4719C16.6378 20.4719 16.6379 20.4719 16.6379 20.4719C16.638 20.4719 16.6381 20.4719 16.6381 20.4719C16.6382 20.4719 16.6383 20.4719 16.6383 20.4719C16.6384 20.4719 16.6385 20.4719 16.6385 20.4719C16.6386 20.4719 16.6387 20.4719 16.6387 20.4719C16.6388 20.4719 16.6389 20.4719 16.6389 20.4719C16.639 20.4719 16.6391 20.4719 16.6391 20.4719C16.6392 20.4719 16.6393 20.4719 16.6393 20.4719C16.6394 20.4719 16.6395 20.4719 16.6395 20.4719C16.6396 20.4719 16.6397 20.4719 16.6397 20.4719C16.6398 20.4719 16.6398 20.4719 16.6399 20.4719C16.64 20.4719 16.64 20.4719 16.6401 20.4719C16.6402 20.4719 16.6402 20.4719 16.6403 20.4719C16.6404 20.4719 16.6404 20.4719 16.6405 20.4719C16.6406 20.4719 16.6406 20.4719 16.6407 20.4719C16.6408 20.4719 16.6408 20.4719 16.6409 20.4719C16.641 20.4719 16.641 20.4719 16.6411 20.4719C16.6412 20.4719 16.6412 20.4719 16.6413 20.4719C16.6414 20.4719 16.6414 20.4719 16.6415 20.4719C16.6416 20.4719 16.6416 20.4719 16.6417 20.4719C16.6418 20.4719 16.6418 20.4719 16.6419 20.4719C16.642 20.4719 16.642 20.4719 16.6421 20.4719C16.6422 20.4719 16.6422 20.4719 16.6423 20.4719C16.6424 20.4719 16.6424 20.4719 16.6425 20.4719C16.6426 20.4719 16.6426 20.4719 16.6427 20.4719C16.6427 20.4719 16.6428 20.4719 16.6429 20.4719C16.6429 20.4719 16.643 20.4719 16.6431 20.4719C16.6431 20.4719 16.6432 20.4719 16.6433 20.4719C16.6433 20.4719 16.6434 20.4719 16.6435 20.4719C16.6435 20.4719 16.6436 20.4719 16.6437 20.4719C16.6437 20.4719 16.6438 20.4719 16.6439 20.4719C16.6439 20.4719 16.644 20.4719 16.6441 20.4719C16.6441 20.4719 16.6442 20.4719 16.6443 20.4719C16.6443 20.4719 16.6444 20.4719 16.6445 20.4719C16.6445 20.4719 16.6446 20.4719 16.6447 20.4719C16.6447 20.4719 16.6448 20.4719 16.6449 20.4719C16.6449 20.4719 16.645 20.4719 16.6451 20.4719C16.6451 20.4719 16.6452 20.4719 16.6453 20.4719C16.6453 20.4719 16.6454 20.4719 16.6455 20.4719C16.6455 20.4719 16.6456 20.4719 16.6456 20.4719C16.6457 20.4719 16.6458 20.4719 16.6458 20.4719C16.6459 20.4719 16.646 20.4719 16.646 20.4719C16.6461 20.4719 16.6462 20.4719 16.6462 20.4719C16.6463 20.4719 16.6464 20.4719 16.6464 20.4719C16.6465 20.4719 16.6466 20.4719 16.6466 20.4719C16.6467 20.4719 16.6468 20.4719 16.6468 20.4719C16.6469 20.4719 16.647 20.4719 16.647 20.4719C16.6471 20.4719 16.6472 20.4719 16.6472 20.4719C16.6473 20.4719 16.6474 20.4719 16.6474 20.4719C16.6475 20.4719 16.6476 20.4719 16.6476 20.4719C16.6477 20.4719 16.6478 20.4719 16.6478 20.4719C16.6479 20.4719 16.648 20.4719 16.648 20.4719C16.6481 20.4719 16.6482 20.4719 16.6482 20.4719C16.6483 20.4719 16.6484 20.4719 16.6484 20.4719C16.6485 20.4719 16.6486 20.4719 16.6486 20.4719C16.6487 20.4719 16.6487 20.4719 16.6488 20.4719C16.6489 20.4719 16.6489 20.4719 16.649 20.4719C16.6491 20.4719 16.6491 20.4719 16.6492 20.4719C16.6493 20.4719 16.6493 20.4719 16.6494 20.4719C16.6495 20.4719 16.6495 20.4719 16.6496 20.4719C16.6497 20.4719 16.6497 20.4719 16.6498 20.4719C16.6499 20.4719 16.6499 20.4719 16.65 20.4719C16.6501 20.4719 16.6501 20.4719 16.6502 20.4719C16.6503 20.4719 16.6503 20.4719 16.6504 20.4719C16.6505 20.4719 16.6505 20.4719 16.6506 20.4719C16.6507 20.4719 16.6507 20.4719 16.6508 20.4719C16.6509 20.4719 16.6509 20.4719 16.651 20.4719C16.6511 20.4719 16.6511 20.4719 16.6512 20.4719C16.6513 20.4719 16.6513 20.4719 16.6514 20.4719C16.6515 20.4719 16.6515 20.4719 16.6516 20.4719C16.6516 20.4719 16.6517 20.4719 16.6518 20.4719C16.6518 20.4719 16.6519 20.4719 16.652 20.4719C16.652 20.4719 16.6521 20.4719 16.6522 20.4719C16.6522 20.4719 16.6523 20.4719 16.6524 20.4719C16.6524 20.4719 16.6525 20.4719 16.6526 20.4719C16.6526 20.4719 16.6527 20.4719 16.6528 20.4719C16.6528 20.4719 16.6529 20.4719 16.653 20.4719C16.653 20.4719 16.6531 20.4719 16.6532 20.4719C16.6532 20.4719 16.6533 20.4719 16.6534 20.4719C16.6534 20.4719 16.6535 20.4719 16.6536 20.4719C16.6536 20.4719 16.6537 20.4719 16.6538 20.4719C16.6538 20.4719 16.6539 20.4719 16.654 20.4719C16.654 20.4719 16.6541 20.4719 16.6542 20.4719C16.6542 20.4719 16.6543 20.4719 16.6544 20.4719C16.6544 20.4719 16.6545 20.4719 16.6545 20.4719C16.6546 20.4719 16.6547 20.4719 16.6547 20.4719C16.6548 20.4719 16.6549 20.4719 16.6549 20.4719C16.655 20.4719 16.6551 20.4719 16.6551 20.4719C16.6552 20.4719 16.6553 20.4719 16.6553 20.4719C16.6554 20.4719 16.6555 20.4719 16.6555 20.4719C16.6556 20.4719 16.6557 20.4719 16.6557 20.4719C16.6558 20.4719 16.6559 20.4719 16.6559 20.4719C16.656 20.4719 16.6561 20.4719 16.6561 20.4719C16.6562 20.4719 16.6563 20.4719 16.6563 20.4719C16.6564 20.4719 16.6565 20.4719 16.6565 20.4719C16.6566 20.4719 16.6567 20.4719 16.6567 20.4719C16.6568 20.4719 16.6569 20.4719 16.6569 20.4719C16.657 20.4719 16.6571 20.4719 16.6571 20.4719C16.6572 20.4719 16.6573 20.4719 16.6573 20.4719C16.6574 20.4719 16.6574 20.4719 16.6575 20.4719C16.6576 20.4719 16.6576 20.4719 16.6577 20.4719C16.6578 20.4719 16.6578 20.4719 16.6579 20.4719C16.658 20.4719 16.658 20.4719 16.6581 20.4719C16.6582 20.4719 16.6582 20.4719 16.6583 20.4719C16.6584 20.4719 16.6584 20.4719 16.6585 20.4719C16.6586 20.4719 16.6586 20.4719 16.6587 20.4719C16.6588 20.4719 16.6588 20.4719 16.6589 20.4719C16.659 20.4719 16.659 20.4719 16.6591 20.4719C16.6592 20.4719 16.6592 20.4719 16.6593 20.4719C16.6594 20.4719 16.6594 20.4719 16.6595 20.4719C16.6596 20.4719 16.6596 20.4719 16.6597 20.4719C16.6598 20.4719 16.6598 20.4719 16.6599 20.4719C16.66 20.4719 16.66 20.4719 16.6601 20.4719C16.6602 20.4719 16.6602 20.4719 16.6603 20.4719C16.6604 20.4719 16.6604 20.4719 16.6605 20.4719C16.6605 20.4719 16.6606 20.4719 16.6607 20.4719C16.6607 20.4719 16.6608 20.4719 16.6609 20.4719C16.6609 20.4719 16.661 20.4719 16.6611 20.4719C16.6611 20.4719 16.6612 20.4719 16.6613 20.4719C16.6613 20.4719 16.6614 20.4719 16.6615 20.4719C16.6615 20.4719 16.6616 20.4719 16.6617 20.4719C16.6617 20.4719 16.6618 20.4719 16.6619 20.4719C16.6619 20.4719 16.662 20.4719 16.6621 20.4719C16.6621 20.4719 16.6622 20.4719 16.6623 20.4719C16.6623 20.4719 16.6624 20.4719 16.6625 20.4719C16.6625 20.4719 16.6626 20.4719 16.6627 20.4719C16.6627 20.4719 16.6628 20.4719 16.6629 20.4719C16.6629 20.4719 16.663 20.4719 16.6631 20.4719C16.6631 20.4719 16.6632 20.4719 16.6633 20.4719C16.6633 20.4719 16.6634 20.4719 16.6634 20.4719C16.6635 20.4719 16.6636 20.4719 16.6636 20.4719C16.6637 20.4719 16.6638 20.4719 16.6638 20.4719C16.6639 20.4719 16.664 20.4719 16.664 20.4719C16.6641 20.4719 16.6642 20.4719 16.6642 20.4719C16.6643 20.4719 16.6644 20.4719 16.6644 20.4719C16.6645 20.4719 16.6646 20.4719 16.6646 20.4719C16.6647 20.4719 16.6648 20.4719 16.6648 20.4719C16.6649 20.4719 16.665 20.4719 16.665 20.4719C16.6651 20.4719 16.6652 20.4719 16.6652 20.4719C16.6653 20.4719 16.6654 20.4719 16.6654 20.4719C16.6655 20.4719 16.6656 20.4719 16.6656 20.4719C16.6657 20.4719 16.6658 20.4719 16.6658 20.4719C16.6659 20.4719 16.666 20.4719 16.666 20.4719C16.6661 20.4719 16.6662 20.4719 16.6662 20.4719C16.6663 20.4719 16.6663 20.4719 16.6664 20.4719C16.6665 20.4719 16.6665 20.4719 16.6666 20.4719C16.6667 20.4719 16.6667 20.4719 16.6668 20.4719C16.6669 20.4719 16.6669 20.4719 16.667 20.4719C16.6671 20.4719 16.6671 20.4719 16.6672 20.4719C16.6673 20.4719 16.6673 20.4719 16.6674 20.4719C16.6675 20.4719 16.6675 20.4719 16.6676 20.4719C16.6677 20.4719 16.6677 20.4719 16.6678 20.4719C16.6679 20.4719 16.6679 20.4719 16.668 20.4719C16.6681 20.4719 16.6681 20.4719 16.6682 20.4719C16.6683 20.4719 16.6683 20.4719 16.6684 20.4719C16.6685 20.4719 16.6685 20.4719 16.6686 20.4719C16.6687 20.4719 16.6687 20.4719 16.6688 20.4719C16.6689 20.4719 16.6689 20.4719 16.669 20.4719C16.6691 20.4719 16.6691 20.4719 16.6692 20.4719C16.6693 20.4719 16.6693 20.4719 16.6694 20.4719C16.6694 20.4719 16.6695 20.4719 16.6696 20.4719C16.6696 20.4719 16.6697 20.4719 16.6698 20.4719C16.6698 20.4719 16.6699 20.4719 16.67 20.4719C16.67 20.4719 16.6701 20.4719 16.6702 20.4719C16.6702 20.4719 16.6703 20.4719 16.6704 20.4719C16.6704 20.4719 16.6705 20.4719 16.6706 20.4719C16.6706 20.4719 16.6707 20.4719 16.6708 20.4719C16.6708 20.4719 16.6709 20.4719 16.671 20.4719C16.671 20.4719 16.6711 20.4719 16.6712 20.4719C16.6712 20.4719 16.6713 20.4719 16.6714 20.4719C16.6714 20.4719 16.6715 20.4719 16.6716 20.4719C16.6716 20.4719 16.6717 20.4719 16.6718 20.4719C16.6718 20.4719 16.6719 20.4719 16.672 20.4719C16.672 20.4719 16.6721 20.4719 16.6722 20.4719C16.6722 20.4719 16.6723 20.4719 16.6723 20.4719C16.6724 20.4719 16.6725 20.4719 16.6725 20.4719C16.6726 20.4719 16.6727 20.4719 16.6727 20.4719C16.6728 20.4719 16.6729 20.4719 16.6729 20.4719C16.673 20.4719 16.6731 20.4719 16.6731 20.4719C16.6732 20.4719 16.6733 20.4719 16.6733 20.4719C16.6734 20.4719 16.6735 20.4719 16.6735 20.4719C16.6736 20.4719 16.6737 20.4719 16.6737 20.4719C16.6738 20.4719 16.6739 20.4719 16.6739 20.4719C16.674 20.4719 16.6741 20.4719 16.6741 20.4719C16.6742 20.4719 16.6743 20.4719 16.6743 20.4719C16.6744 20.4719 16.6745 20.4719 16.6745 20.4719C16.6746 20.4719 16.6747 20.4719 16.6747 20.4719C16.6748 20.4719 16.6749 20.4719 16.6749 20.4719C16.675 20.4719 16.6751 20.4719 16.6751 20.4719C16.6752 20.4719 16.6752 20.4719 16.6753 20.4719C16.6754 20.4719 16.6754 20.4719 16.6755 20.4719C16.6756 20.4719 16.6756 20.4719 16.6757 20.4719C16.6758 20.4719 16.6758 20.4719 16.6759 20.4719C16.676 20.4719 16.676 20.4719 16.6761 20.4719C16.6762 20.4719 16.6762 20.4719 16.6763 20.4719C16.6764 20.4719 16.6764 20.4719 16.6765 20.4719C16.6766 20.4719 16.6766 20.4719 16.6767 20.4719C16.6768 20.4719 16.6768 20.4719 16.6769 20.4719C16.677 20.4719 16.677 20.4719 16.6771 20.4719C16.6772 20.4719 16.6772 20.4719 16.6773 20.4719C16.6774 20.4719 16.6774 20.4719 16.6775 20.4719C16.6776 20.4719 16.6776 20.4719 16.6777 20.4719C16.6778 20.4719 16.6778 20.4719 16.6779 20.4719C16.678 20.4719 16.678 20.4719 16.6781 20.4719C16.6782 20.4719 16.6782 20.4719 16.6783 20.4719C16.6783 20.4719 16.6784 20.4719 16.6785 20.4719C16.6785 20.4719 16.6786 20.4719 16.6787 20.4719C16.6787 20.4719 16.6788 20.4719 16.6789 20.4719C16.6789 20.4719 16.679 20.4719 16.6791 20.4719C16.6791 20.4719 16.6792 20.4719 16.6793 20.4719C16.6793 20.4719 16.6794 20.4719 16.6795 20.4719C16.6795 20.4719 16.6796 20.4719 16.6797 20.4719C16.6797 20.4719 16.6798 20.4719 16.6799 20.4719C16.6799 20.4719 16.68 20.4719 16.6801 20.4719C16.6801 20.4719 16.6802 20.4719 16.6803 20.4719C16.6803 20.4719 16.6804 20.4719 16.6805 20.4719C16.6805 20.4719 16.6806 20.4719 16.6807 20.4719C16.6807 20.4719 16.6808 20.4719 16.6809 20.4719C16.6809 20.4719 16.681 20.4719 16.6811 20.4719C16.6811 20.4719 16.6812 20.4719 16.6812 20.4719C16.6813 20.4719 16.6814 20.4719 16.6814 20.4719C16.6815 20.4719 16.6816 20.4719 16.6816 20.4719C16.6817 20.4719 16.6818 20.4719 16.6818 20.4719C16.6819 20.4719 16.682 20.4719 16.682 20.4719C16.6821 20.4719 16.6822 20.4719 16.6822 20.4719C16.6823 20.4719 16.6824 20.4719 16.6824 20.4719C16.6825 20.4719 16.6826 20.4719 16.6826 20.4719C16.6827 20.4719 16.6828 20.4719 16.6828 20.4719C16.6829 20.4719 16.683 20.4719 16.683 20.4719C16.6831 20.4719 16.6832 20.4719 16.6832 20.4719C16.6833 20.4719 16.6834 20.4719 16.6834 20.4719C16.6835 20.4719 16.6836 20.4719 16.6836 20.4719C16.6837 20.4719 16.6838 20.4719 16.6838 20.4719C16.6839 20.4719 16.684 20.4719 16.684 20.4719C16.6841 20.4719 16.6841 20.4719 16.6842 20.4719C16.6843 20.4719 16.6843 20.4719 16.6844 20.4719C16.6845 20.4719 16.6845 20.4719 16.6846 20.4719C16.6847 20.4719 16.6847 20.4719 16.6848 20.4719C16.6849 20.4719 16.6849 20.4719 16.685 20.4719C16.6851 20.4719 16.6851 20.4719 16.6852 20.4719C16.6853 20.4719 16.6853 20.4719 16.6854 20.4719C16.6855 20.4719 16.6855 20.4719 16.6856 20.4719C16.6857 20.4719 16.6857 20.4719 16.6858 20.4719C16.6859 20.4719 16.6859 20.4719 16.686 20.4719C16.6861 20.4719 16.6861 20.4719 16.6862 20.4719C16.6863 20.4719 16.6863 20.4719 16.6864 20.4719C16.6865 20.4719 16.6865 20.4719 16.6866 20.4719C16.6867 20.4719 16.6867 20.4719 16.6868 20.4719C16.6869 20.4719 16.6869 20.4719 16.687 20.4719C16.687 20.4719 16.6871 20.4719 16.6872 20.4719C16.6872 20.4719 16.6873 20.4719 16.6874 20.4719C16.6874 20.4719 16.6875 20.4719 16.6876 20.4719C16.6876 20.4719 16.6877 20.4719 16.6878 20.4719C16.6878 20.4719 16.6879 20.4719 16.688 20.4719C16.688 20.4719 16.6881 20.4719 16.6882 20.4719C16.6882 20.4719 16.6883 20.4719 16.6884 20.4719C16.6884 20.4719 16.6885 20.4719 16.6886 20.4719C16.6886 20.4719 16.6887 20.4719 16.6888 20.4719C16.6888 20.4719 16.6889 20.4719 16.689 20.4719C16.689 20.4719 16.6891 20.4719 16.6892 20.4719C16.6892 20.4719 16.6893 20.4719 16.6894 20.4719C16.6894 20.4719 16.6895 20.4719 16.6896 20.4719C16.6896 20.4719 16.6897 20.4719 16.6898 20.4719C16.6898 20.4719 16.6899 20.4719 16.69 20.4719C16.69 20.4719 16.6901 20.4719 16.6901 20.4719C16.6902 20.4719 16.6903 20.4719 16.6903 20.4719C16.6904 20.4719 16.6905 20.4719 16.6905 20.4719C16.6906 20.4719 16.6907 20.4719 16.6907 20.4719C16.6908 20.4719 16.6909 20.4719 16.6909 20.4719C16.691 20.4719 16.6911 20.4719 16.6911 20.4719C16.6912 20.4719 16.6913 20.4719 16.6913 20.4719C16.6914 20.4719 16.6915 20.4719 16.6915 20.4719C16.6916 20.4719 16.6917 20.4719 16.6917 20.4719C16.6918 20.4719 16.6919 20.4719 16.6919 20.4719C16.692 20.4719 16.6921 20.4719 16.6921 20.4719C16.6922 20.4719 16.6923 20.4719 16.6923 20.4719C16.6924 20.4719 16.6925 20.4719 16.6925 20.4719C16.6926 20.4719 16.6927 20.4719 16.6927 20.4719C16.6928 20.4719 16.6929 20.4719 16.6929 20.4719C16.693 20.4719 16.693 20.4719 16.6931 20.4719C16.6932 20.4719 16.6932 20.4719 16.6933 20.4719C16.6934 20.4719 16.6934 20.4719 16.6935 20.4719C16.6936 20.4719 16.6936 20.4719 16.6937 20.4719C16.6938 20.4719 16.6938 20.4719 16.6939 20.4719C16.694 20.4719 16.694 20.4719 16.6941 20.4719C16.6942 20.4719 16.6942 20.4719 16.6943 20.4719C16.6944 20.4719 16.6944 20.4719 16.6945 20.4719C16.6946 20.4719 16.6946 20.4719 16.6947 20.4719C16.6948 20.4719 16.6948 20.4719 16.6949 20.4719C16.695 20.4719 16.695 20.4719 16.6951 20.4719C16.6952 20.4719 16.6952 20.4719 16.6953 20.4719C16.6954 20.4719 16.6954 20.4719 16.6955 20.4719C16.6956 20.4719 16.6956 20.4719 16.6957 20.4719C16.6958 20.4719 16.6958 20.4719 16.6959 20.4719C16.6959 20.4719 16.696 20.4719 16.6961 20.4719C16.6961 20.4719 16.6962 20.4719 16.6963 20.4719C16.6963 20.4719 16.6964 20.4719 16.6965 20.4719C16.6965 20.4719 16.6966 20.4719 16.6967 20.4719C16.6967 20.4719 16.6968 20.4719 16.6969 20.4719C16.6969 20.4719 16.697 20.4719 16.6971 20.4719C16.6971 20.4719 16.6972 20.4719 16.6973 20.4719C16.6973 20.4719 16.6974 20.4719 16.6975 20.4719C16.6975 20.4719 16.6976 20.4719 16.6977 20.4719C16.6977 20.4719 16.6978 20.4719 16.6979 20.4719C16.6979 20.4719 16.698 20.4719 16.6981 20.4719C16.6981 20.4719 16.6982 20.4719 16.6983 20.4719C16.6983 20.4719 16.6984 20.4719 16.6985 20.4719C16.6985 20.4719 16.6986 20.4719 16.6987 20.4719C16.6987 20.4719 16.6988 20.4719 16.6989 20.4719C16.6989 20.4719 16.699 20.4719 16.699 20.4719C16.6991 20.4719 16.6992 20.4719 16.6992 20.4719C16.6993 20.4719 16.6994 20.4719 16.6994 20.4719C16.6995 20.4719 16.6996 20.4719 16.6996 20.4719C16.6997 20.4719 16.6998 20.4719 16.6998 20.4719C16.6999 20.4719 16.7 20.4719 16.7 20.4719C16.7001 20.4719 16.7002 20.4719 16.7002 20.4719C16.7003 20.4719 16.7004 20.4719 16.7004 20.4719C16.7005 20.4719 16.7006 20.4719 16.7006 20.4719C16.7007 20.4719 16.7008 20.4719 16.7008 20.4719C16.7009 20.4719 16.701 20.4719 16.701 20.4719C16.7011 20.4719 16.7012 20.4719 16.7012 20.4719C16.7013 20.4719 16.7014 20.4719 16.7014 20.4719C16.7015 20.4719 16.7016 20.4719 16.7016 20.4719C16.7017 20.4719 16.7018 20.4719 16.7018 20.4719C16.7019 20.4719 16.7019 20.4719 16.702 20.4719C16.7021 20.4719 16.7021 20.4719 16.7022 20.4719C16.7023 20.4719 16.7023 20.4719 16.7024 20.4719C16.7025 20.4719 16.7025 20.4719 16.7026 20.4719C16.7027 20.4719 16.7027 20.4719 16.7028 20.4719C16.7029 20.4719 16.7029 20.4719 16.703 20.4719C16.7031 20.4719 16.7031 20.4719 16.7032 20.4719C16.7033 20.4719 16.7033 20.4719 16.7034 20.4719C16.7035 20.4719 16.7035 20.4719 16.7036 20.4719C16.7037 20.4719 16.7037 20.4719 16.7038 20.4719C16.7039 20.4719 16.7039 20.4719 16.704 20.4719C16.7041 20.4719 16.7041 20.4719 16.7042 20.4719C16.7043 20.4719 16.7043 20.4719 16.7044 20.4719C16.7045 20.4719 16.7045 20.4719 16.7046 20.4719C16.7047 20.4719 16.7047 20.4719 16.7048 20.4719C16.7049 20.4719 16.7049 20.4719 16.705 20.4719C16.705 20.4719 16.7051 20.4719 16.7052 20.4719C16.7052 20.4719 16.7053 20.4719 16.7054 20.4719C16.7054 20.4719 16.7055 20.4719 16.7056 20.4719C16.7056 20.4719 16.7057 20.4719 16.7058 20.4719C16.7058 20.4719 16.7059 20.4719 16.706 20.4719C16.706 20.4719 16.7061 20.4719 16.7062 20.4719C16.7062 20.4719 16.7063 20.4719 16.7064 20.4719C16.7064 20.4719 16.7065 20.4719 16.7066 20.4719C16.7066 20.4719 16.7067 20.4719 16.7068 20.4719C16.7068 20.4719 16.7069 20.4719 16.707 20.4719C16.707 20.4719 16.7071 20.4719 16.7072 20.4719C16.7072 20.4719 16.7073 20.4719 16.7074 20.4719C16.7074 20.4719 16.7075 20.4719 16.7076 20.4719C16.7076 20.4719 16.7077 20.4719 16.7078 20.4719C16.7078 20.4719 16.7079 20.4719 16.7079 20.4719C16.708 20.4719 16.7081 20.4719 16.7081 20.4719C16.7082 20.4719 16.7083 20.4719 16.7083 20.4719C16.7084 20.4719 16.7085 20.4719 16.7085 20.4719C16.7086 20.4719 16.7087 20.4719 16.7087 20.4719C16.7088 20.4719 16.7089 20.4719 16.7089 20.4719C16.709 20.4719 16.7091 20.4719 16.7091 20.4719C16.7092 20.4719 16.7093 20.4719 16.7093 20.4719C16.7094 20.4719 16.7095 20.4719 16.7095 20.4719C16.7096 20.4719 16.7097 20.4719 16.7097 20.4719C16.7098 20.4719 16.7099 20.4719 16.7099 20.4719C16.71 20.4719 16.7101 20.4719 16.7101 20.4719C16.7102 20.4719 16.7103 20.4719 16.7103 20.4719C16.7104 20.4719 16.7105 20.4719 16.7105 20.4719C16.7106 20.4719 16.7107 20.4719 16.7107 20.4719C16.7108 20.4719 16.7108 20.4719 16.7109 20.4719C16.711 20.4719 16.711 20.4719 16.7111 20.4719C16.7112 20.4719 16.7112 20.4719 16.7113 20.4719C16.7114 20.4719 16.7114 20.4719 16.7115 20.4719C16.7116 20.4719 16.7116 20.4719 16.7117 20.4719C16.7118 20.4719 16.7118 20.4719 16.7119 20.4719C16.712 20.4719 16.712 20.4719 16.7121 20.4719C16.7122 20.4719 16.7122 20.4719 16.7123 20.4719C16.7124 20.4719 16.7124 20.4719 16.7125 20.4719C16.7126 20.4719 16.7126 20.4719 16.7127 20.4719C16.7128 20.4719 16.7128 20.4719 16.7129 20.4719C16.713 20.4719 16.713 20.4719 16.7131 20.4719C16.7132 20.4719 16.7132 20.4719 16.7133 20.4719C16.7134 20.4719 16.7134 20.4719 16.7135 20.4719C16.7136 20.4719 16.7136 20.4719 16.7137 20.4719C16.7137 20.4719 16.7138 20.4719 16.7139 20.4719C16.7139 20.4719 16.714 20.4719 16.7141 20.4719C16.7141 20.4719 16.7142 20.4719 16.7143 20.4719C16.7143 20.4719 16.7144 20.4719 16.7145 20.4719C16.7145 20.4719 16.7146 20.4719 16.7147 20.4719C16.7147 20.4719 16.7148 20.4719 16.7149 20.4719C16.7149 20.4719 16.715 20.4719 16.7151 20.4719C16.7151 20.4719 16.7152 20.4719 16.7153 20.4719V19.4719C16.7152 19.4719 16.7151 19.4719 16.7151 19.4719C16.715 19.4719 16.7149 19.4719 16.7149 19.4719C16.7148 19.4719 16.7147 19.4719 16.7147 19.4719C16.7146 19.4719 16.7145 19.4719 16.7145 19.4719C16.7144 19.4719 16.7143 19.4719 16.7143 19.4719C16.7142 19.4719 16.7141 19.4719 16.7141 19.4719C16.714 19.4719 16.7139 19.4719 16.7139 19.4719C16.7138 19.4719 16.7137 19.4719 16.7137 19.4719C16.7136 19.4719 16.7136 19.4719 16.7135 19.4719C16.7134 19.4719 16.7134 19.4719 16.7133 19.4719C16.7132 19.4719 16.7132 19.4719 16.7131 19.4719C16.713 19.4719 16.713 19.4719 16.7129 19.4719C16.7128 19.4719 16.7128 19.4719 16.7127 19.4719C16.7126 19.4719 16.7126 19.4719 16.7125 19.4719C16.7124 19.4719 16.7124 19.4719 16.7123 19.4719C16.7122 19.4719 16.7122 19.4719 16.7121 19.4719C16.712 19.4719 16.712 19.4719 16.7119 19.4719C16.7118 19.4719 16.7118 19.4719 16.7117 19.4719C16.7116 19.4719 16.7116 19.4719 16.7115 19.4719C16.7114 19.4719 16.7114 19.4719 16.7113 19.4719C16.7112 19.4719 16.7112 19.4719 16.7111 19.4719C16.711 19.4719 16.711 19.4719 16.7109 19.4719C16.7108 19.4719 16.7108 19.4719 16.7107 19.4719C16.7107 19.4719 16.7106 19.4719 16.7105 19.4719C16.7105 19.4719 16.7104 19.4719 16.7103 19.4719C16.7103 19.4719 16.7102 19.4719 16.7101 19.4719C16.7101 19.4719 16.71 19.4719 16.7099 19.4719C16.7099 19.4719 16.7098 19.4719 16.7097 19.4719C16.7097 19.4719 16.7096 19.4719 16.7095 19.4719C16.7095 19.4719 16.7094 19.4719 16.7093 19.4719C16.7093 19.4719 16.7092 19.4719 16.7091 19.4719C16.7091 19.4719 16.709 19.4719 16.7089 19.4719C16.7089 19.4719 16.7088 19.4719 16.7087 19.4719C16.7087 19.4719 16.7086 19.4719 16.7085 19.4719C16.7085 19.4719 16.7084 19.4719 16.7083 19.4719C16.7083 19.4719 16.7082 19.4719 16.7081 19.4719C16.7081 19.4719 16.708 19.4719 16.7079 19.4719C16.7079 19.4719 16.7078 19.4719 16.7078 19.4719C16.7077 19.4719 16.7076 19.4719 16.7076 19.4719C16.7075 19.4719 16.7074 19.4719 16.7074 19.4719C16.7073 19.4719 16.7072 19.4719 16.7072 19.4719C16.7071 19.4719 16.707 19.4719 16.707 19.4719C16.7069 19.4719 16.7068 19.4719 16.7068 19.4719C16.7067 19.4719 16.7066 19.4719 16.7066 19.4719C16.7065 19.4719 16.7064 19.4719 16.7064 19.4719C16.7063 19.4719 16.7062 19.4719 16.7062 19.4719C16.7061 19.4719 16.706 19.4719 16.706 19.4719C16.7059 19.4719 16.7058 19.4719 16.7058 19.4719C16.7057 19.4719 16.7056 19.4719 16.7056 19.4719C16.7055 19.4719 16.7054 19.4719 16.7054 19.4719C16.7053 19.4719 16.7052 19.4719 16.7052 19.4719C16.7051 19.4719 16.705 19.4719 16.705 19.4719C16.7049 19.4719 16.7049 19.4719 16.7048 19.4719C16.7047 19.4719 16.7047 19.4719 16.7046 19.4719C16.7045 19.4719 16.7045 19.4719 16.7044 19.4719C16.7043 19.4719 16.7043 19.4719 16.7042 19.4719C16.7041 19.4719 16.7041 19.4719 16.704 19.4719C16.7039 19.4719 16.7039 19.4719 16.7038 19.4719C16.7037 19.4719 16.7037 19.4719 16.7036 19.4719C16.7035 19.4719 16.7035 19.4719 16.7034 19.4719C16.7033 19.4719 16.7033 19.4719 16.7032 19.4719C16.7031 19.4719 16.7031 19.4719 16.703 19.4719C16.7029 19.4719 16.7029 19.4719 16.7028 19.4719C16.7027 19.4719 16.7027 19.4719 16.7026 19.4719C16.7025 19.4719 16.7025 19.4719 16.7024 19.4719C16.7023 19.4719 16.7023 19.4719 16.7022 19.4719C16.7021 19.4719 16.7021 19.4719 16.702 19.4719C16.7019 19.4719 16.7019 19.4719 16.7018 19.4719C16.7018 19.4719 16.7017 19.4719 16.7016 19.4719C16.7016 19.4719 16.7015 19.4719 16.7014 19.4719C16.7014 19.4719 16.7013 19.4719 16.7012 19.4719C16.7012 19.4719 16.7011 19.4719 16.701 19.4719C16.701 19.4719 16.7009 19.4719 16.7008 19.4719C16.7008 19.4719 16.7007 19.4719 16.7006 19.4719C16.7006 19.4719 16.7005 19.4719 16.7004 19.4719C16.7004 19.4719 16.7003 19.4719 16.7002 19.4719C16.7002 19.4719 16.7001 19.4719 16.7 19.4719C16.7 19.4719 16.6999 19.4719 16.6998 19.4719C16.6998 19.4719 16.6997 19.4719 16.6996 19.4719C16.6996 19.4719 16.6995 19.4719 16.6994 19.4719C16.6994 19.4719 16.6993 19.4719 16.6992 19.4719C16.6992 19.4719 16.6991 19.4719 16.699 19.4719C16.699 19.4719 16.6989 19.4719 16.6989 19.4719C16.6988 19.4719 16.6987 19.4719 16.6987 19.4719C16.6986 19.4719 16.6985 19.4719 16.6985 19.4719C16.6984 19.4719 16.6983 19.4719 16.6983 19.4719C16.6982 19.4719 16.6981 19.4719 16.6981 19.4719C16.698 19.4719 16.6979 19.4719 16.6979 19.4719C16.6978 19.4719 16.6977 19.4719 16.6977 19.4719C16.6976 19.4719 16.6975 19.4719 16.6975 19.4719C16.6974 19.4719 16.6973 19.4719 16.6973 19.4719C16.6972 19.4719 16.6971 19.4719 16.6971 19.4719C16.697 19.4719 16.6969 19.4719 16.6969 19.4719C16.6968 19.4719 16.6967 19.4719 16.6967 19.4719C16.6966 19.4719 16.6965 19.4719 16.6965 19.4719C16.6964 19.4719 16.6963 19.4719 16.6963 19.4719C16.6962 19.4719 16.6961 19.4719 16.6961 19.4719C16.696 19.4719 16.6959 19.4719 16.6959 19.4719C16.6958 19.4719 16.6958 19.4719 16.6957 19.4719C16.6956 19.4719 16.6956 19.4719 16.6955 19.4719C16.6954 19.4719 16.6954 19.4719 16.6953 19.4719C16.6952 19.4719 16.6952 19.4719 16.6951 19.4719C16.695 19.4719 16.695 19.4719 16.6949 19.4719C16.6948 19.4719 16.6948 19.4719 16.6947 19.4719C16.6946 19.4719 16.6946 19.4719 16.6945 19.4719C16.6944 19.4719 16.6944 19.4719 16.6943 19.4719C16.6942 19.4719 16.6942 19.4719 16.6941 19.4719C16.694 19.4719 16.694 19.4719 16.6939 19.4719C16.6938 19.4719 16.6938 19.4719 16.6937 19.4719C16.6936 19.4719 16.6936 19.4719 16.6935 19.4719C16.6934 19.4719 16.6934 19.4719 16.6933 19.4719C16.6932 19.4719 16.6932 19.4719 16.6931 19.4719C16.693 19.4719 16.693 19.4719 16.6929 19.4719C16.6929 19.4719 16.6928 19.4719 16.6927 19.4719C16.6927 19.4719 16.6926 19.4719 16.6925 19.4719C16.6925 19.4719 16.6924 19.4719 16.6923 19.4719C16.6923 19.4719 16.6922 19.4719 16.6921 19.4719C16.6921 19.4719 16.692 19.4719 16.6919 19.4719C16.6919 19.4719 16.6918 19.4719 16.6917 19.4719C16.6917 19.4719 16.6916 19.4719 16.6915 19.4719C16.6915 19.4719 16.6914 19.4719 16.6913 19.4719C16.6913 19.4719 16.6912 19.4719 16.6911 19.4719C16.6911 19.4719 16.691 19.4719 16.6909 19.4719C16.6909 19.4719 16.6908 19.4719 16.6907 19.4719C16.6907 19.4719 16.6906 19.4719 16.6905 19.4719C16.6905 19.4719 16.6904 19.4719 16.6903 19.4719C16.6903 19.4719 16.6902 19.4719 16.6901 19.4719C16.6901 19.4719 16.69 19.4719 16.69 19.4719C16.6899 19.4719 16.6898 19.4719 16.6898 19.4719C16.6897 19.4719 16.6896 19.4719 16.6896 19.4719C16.6895 19.4719 16.6894 19.4719 16.6894 19.4719C16.6893 19.4719 16.6892 19.4719 16.6892 19.4719C16.6891 19.4719 16.689 19.4719 16.689 19.4719C16.6889 19.4719 16.6888 19.4719 16.6888 19.4719C16.6887 19.4719 16.6886 19.4719 16.6886 19.4719C16.6885 19.4719 16.6884 19.4719 16.6884 19.4719C16.6883 19.4719 16.6882 19.4719 16.6882 19.4719C16.6881 19.4719 16.688 19.4719 16.688 19.4719C16.6879 19.4719 16.6878 19.4719 16.6878 19.4719C16.6877 19.4719 16.6876 19.4719 16.6876 19.4719C16.6875 19.4719 16.6874 19.4719 16.6874 19.4719C16.6873 19.4719 16.6872 19.4719 16.6872 19.4719C16.6871 19.4719 16.687 19.4719 16.687 19.4719C16.6869 19.4719 16.6869 19.4719 16.6868 19.4719C16.6867 19.4719 16.6867 19.4719 16.6866 19.4719C16.6865 19.4719 16.6865 19.4719 16.6864 19.4719C16.6863 19.4719 16.6863 19.4719 16.6862 19.4719C16.6861 19.4719 16.6861 19.4719 16.686 19.4719C16.6859 19.4719 16.6859 19.4719 16.6858 19.4719C16.6857 19.4719 16.6857 19.4719 16.6856 19.4719C16.6855 19.4719 16.6855 19.4719 16.6854 19.4719C16.6853 19.4719 16.6853 19.4719 16.6852 19.4719C16.6851 19.4719 16.6851 19.4719 16.685 19.4719C16.6849 19.4719 16.6849 19.4719 16.6848 19.4719C16.6847 19.4719 16.6847 19.4719 16.6846 19.4719C16.6845 19.4719 16.6845 19.4719 16.6844 19.4719C16.6843 19.4719 16.6843 19.4719 16.6842 19.4719C16.6841 19.4719 16.6841 19.4719 16.684 19.4719C16.684 19.4719 16.6839 19.4719 16.6838 19.4719C16.6838 19.4719 16.6837 19.4719 16.6836 19.4719C16.6836 19.4719 16.6835 19.4719 16.6834 19.4719C16.6834 19.4719 16.6833 19.4719 16.6832 19.4719C16.6832 19.4719 16.6831 19.4719 16.683 19.4719C16.683 19.4719 16.6829 19.4719 16.6828 19.4719C16.6828 19.4719 16.6827 19.4719 16.6826 19.4719C16.6826 19.4719 16.6825 19.4719 16.6824 19.4719C16.6824 19.4719 16.6823 19.4719 16.6822 19.4719C16.6822 19.4719 16.6821 19.4719 16.682 19.4719C16.682 19.4719 16.6819 19.4719 16.6818 19.4719C16.6818 19.4719 16.6817 19.4719 16.6816 19.4719C16.6816 19.4719 16.6815 19.4719 16.6814 19.4719C16.6814 19.4719 16.6813 19.4719 16.6812 19.4719C16.6812 19.4719 16.6811 19.4719 16.6811 19.4719C16.681 19.4719 16.6809 19.4719 16.6809 19.4719C16.6808 19.4719 16.6807 19.4719 16.6807 19.4719C16.6806 19.4719 16.6805 19.4719 16.6805 19.4719C16.6804 19.4719 16.6803 19.4719 16.6803 19.4719C16.6802 19.4719 16.6801 19.4719 16.6801 19.4719C16.68 19.4719 16.6799 19.4719 16.6799 19.4719C16.6798 19.4719 16.6797 19.4719 16.6797 19.4719C16.6796 19.4719 16.6795 19.4719 16.6795 19.4719C16.6794 19.4719 16.6793 19.4719 16.6793 19.4719C16.6792 19.4719 16.6791 19.4719 16.6791 19.4719C16.679 19.4719 16.6789 19.4719 16.6789 19.4719C16.6788 19.4719 16.6787 19.4719 16.6787 19.4719C16.6786 19.4719 16.6785 19.4719 16.6785 19.4719C16.6784 19.4719 16.6783 19.4719 16.6783 19.4719C16.6782 19.4719 16.6782 19.4719 16.6781 19.4719C16.678 19.4719 16.678 19.4719 16.6779 19.4719C16.6778 19.4719 16.6778 19.4719 16.6777 19.4719C16.6776 19.4719 16.6776 19.4719 16.6775 19.4719C16.6774 19.4719 16.6774 19.4719 16.6773 19.4719C16.6772 19.4719 16.6772 19.4719 16.6771 19.4719C16.677 19.4719 16.677 19.4719 16.6769 19.4719C16.6768 19.4719 16.6768 19.4719 16.6767 19.4719C16.6766 19.4719 16.6766 19.4719 16.6765 19.4719C16.6764 19.4719 16.6764 19.4719 16.6763 19.4719C16.6762 19.4719 16.6762 19.4719 16.6761 19.4719C16.676 19.4719 16.676 19.4719 16.6759 19.4719C16.6758 19.4719 16.6758 19.4719 16.6757 19.4719C16.6756 19.4719 16.6756 19.4719 16.6755 19.4719C16.6754 19.4719 16.6754 19.4719 16.6753 19.4719C16.6752 19.4719 16.6752 19.4719 16.6751 19.4719C16.6751 19.4719 16.675 19.4719 16.6749 19.4719C16.6749 19.4719 16.6748 19.4719 16.6747 19.4719C16.6747 19.4719 16.6746 19.4719 16.6745 19.4719C16.6745 19.4719 16.6744 19.4719 16.6743 19.4719C16.6743 19.4719 16.6742 19.4719 16.6741 19.4719C16.6741 19.4719 16.674 19.4719 16.6739 19.4719C16.6739 19.4719 16.6738 19.4719 16.6737 19.4719C16.6737 19.4719 16.6736 19.4719 16.6735 19.4719C16.6735 19.4719 16.6734 19.4719 16.6733 19.4719C16.6733 19.4719 16.6732 19.4719 16.6731 19.4719C16.6731 19.4719 16.673 19.4719 16.6729 19.4719C16.6729 19.4719 16.6728 19.4719 16.6727 19.4719C16.6727 19.4719 16.6726 19.4719 16.6725 19.4719C16.6725 19.4719 16.6724 19.4719 16.6723 19.4719C16.6723 19.4719 16.6722 19.4719 16.6722 19.4719C16.6721 19.4719 16.672 19.4719 16.672 19.4719C16.6719 19.4719 16.6718 19.4719 16.6718 19.4719C16.6717 19.4719 16.6716 19.4719 16.6716 19.4719C16.6715 19.4719 16.6714 19.4719 16.6714 19.4719C16.6713 19.4719 16.6712 19.4719 16.6712 19.4719C16.6711 19.4719 16.671 19.4719 16.671 19.4719C16.6709 19.4719 16.6708 19.4719 16.6708 19.4719C16.6707 19.4719 16.6706 19.4719 16.6706 19.4719C16.6705 19.4719 16.6704 19.4719 16.6704 19.4719C16.6703 19.4719 16.6702 19.4719 16.6702 19.4719C16.6701 19.4719 16.67 19.4719 16.67 19.4719C16.6699 19.4719 16.6698 19.4719 16.6698 19.4719C16.6697 19.4719 16.6696 19.4719 16.6696 19.4719C16.6695 19.4719 16.6694 19.4719 16.6694 19.4719C16.6693 19.4719 16.6693 19.4719 16.6692 19.4719C16.6691 19.4719 16.6691 19.4719 16.669 19.4719C16.6689 19.4719 16.6689 19.4719 16.6688 19.4719C16.6687 19.4719 16.6687 19.4719 16.6686 19.4719C16.6685 19.4719 16.6685 19.4719 16.6684 19.4719C16.6683 19.4719 16.6683 19.4719 16.6682 19.4719C16.6681 19.4719 16.6681 19.4719 16.668 19.4719C16.6679 19.4719 16.6679 19.4719 16.6678 19.4719C16.6677 19.4719 16.6677 19.4719 16.6676 19.4719C16.6675 19.4719 16.6675 19.4719 16.6674 19.4719C16.6673 19.4719 16.6673 19.4719 16.6672 19.4719C16.6671 19.4719 16.6671 19.4719 16.667 19.4719C16.6669 19.4719 16.6669 19.4719 16.6668 19.4719C16.6667 19.4719 16.6667 19.4719 16.6666 19.4719C16.6665 19.4719 16.6665 19.4719 16.6664 19.4719C16.6663 19.4719 16.6663 19.4719 16.6662 19.4719C16.6662 19.4719 16.6661 19.4719 16.666 19.4719C16.666 19.4719 16.6659 19.4719 16.6658 19.4719C16.6658 19.4719 16.6657 19.4719 16.6656 19.4719C16.6656 19.4719 16.6655 19.4719 16.6654 19.4719C16.6654 19.4719 16.6653 19.4719 16.6652 19.4719C16.6652 19.4719 16.6651 19.4719 16.665 19.4719C16.665 19.4719 16.6649 19.4719 16.6648 19.4719C16.6648 19.4719 16.6647 19.4719 16.6646 19.4719C16.6646 19.4719 16.6645 19.4719 16.6644 19.4719C16.6644 19.4719 16.6643 19.4719 16.6642 19.4719C16.6642 19.4719 16.6641 19.4719 16.664 19.4719C16.664 19.4719 16.6639 19.4719 16.6638 19.4719C16.6638 19.4719 16.6637 19.4719 16.6636 19.4719C16.6636 19.4719 16.6635 19.4719 16.6634 19.4719C16.6634 19.4719 16.6633 19.4719 16.6633 19.4719C16.6632 19.4719 16.6631 19.4719 16.6631 19.4719C16.663 19.4719 16.6629 19.4719 16.6629 19.4719C16.6628 19.4719 16.6627 19.4719 16.6627 19.4719C16.6626 19.4719 16.6625 19.4719 16.6625 19.4719C16.6624 19.4719 16.6623 19.4719 16.6623 19.4719C16.6622 19.4719 16.6621 19.4719 16.6621 19.4719C16.662 19.4719 16.6619 19.4719 16.6619 19.4719C16.6618 19.4719 16.6617 19.4719 16.6617 19.4719C16.6616 19.4719 16.6615 19.4719 16.6615 19.4719C16.6614 19.4719 16.6613 19.4719 16.6613 19.4719C16.6612 19.4719 16.6611 19.4719 16.6611 19.4719C16.661 19.4719 16.6609 19.4719 16.6609 19.4719C16.6608 19.4719 16.6607 19.4719 16.6607 19.4719C16.6606 19.4719 16.6605 19.4719 16.6605 19.4719C16.6604 19.4719 16.6604 19.4719 16.6603 19.4719C16.6602 19.4719 16.6602 19.4719 16.6601 19.4719C16.66 19.4719 16.66 19.4719 16.6599 19.4719C16.6598 19.4719 16.6598 19.4719 16.6597 19.4719C16.6596 19.4719 16.6596 19.4719 16.6595 19.4719C16.6594 19.4719 16.6594 19.4719 16.6593 19.4719C16.6592 19.4719 16.6592 19.4719 16.6591 19.4719C16.659 19.4719 16.659 19.4719 16.6589 19.4719C16.6588 19.4719 16.6588 19.4719 16.6587 19.4719C16.6586 19.4719 16.6586 19.4719 16.6585 19.4719C16.6584 19.4719 16.6584 19.4719 16.6583 19.4719C16.6582 19.4719 16.6582 19.4719 16.6581 19.4719C16.658 19.4719 16.658 19.4719 16.6579 19.4719C16.6578 19.4719 16.6578 19.4719 16.6577 19.4719C16.6576 19.4719 16.6576 19.4719 16.6575 19.4719C16.6574 19.4719 16.6574 19.4719 16.6573 19.4719C16.6573 19.4719 16.6572 19.4719 16.6571 19.4719C16.6571 19.4719 16.657 19.4719 16.6569 19.4719C16.6569 19.4719 16.6568 19.4719 16.6567 19.4719C16.6567 19.4719 16.6566 19.4719 16.6565 19.4719C16.6565 19.4719 16.6564 19.4719 16.6563 19.4719C16.6563 19.4719 16.6562 19.4719 16.6561 19.4719C16.6561 19.4719 16.656 19.4719 16.6559 19.4719C16.6559 19.4719 16.6558 19.4719 16.6557 19.4719C16.6557 19.4719 16.6556 19.4719 16.6555 19.4719C16.6555 19.4719 16.6554 19.4719 16.6553 19.4719C16.6553 19.4719 16.6552 19.4719 16.6551 19.4719C16.6551 19.4719 16.655 19.4719 16.6549 19.4719C16.6549 19.4719 16.6548 19.4719 16.6547 19.4719C16.6547 19.4719 16.6546 19.4719 16.6545 19.4719C16.6545 19.4719 16.6544 19.4719 16.6544 19.4719C16.6543 19.4719 16.6542 19.4719 16.6542 19.4719C16.6541 19.4719 16.654 19.4719 16.654 19.4719C16.6539 19.4719 16.6538 19.4719 16.6538 19.4719C16.6537 19.4719 16.6536 19.4719 16.6536 19.4719C16.6535 19.4719 16.6534 19.4719 16.6534 19.4719C16.6533 19.4719 16.6532 19.4719 16.6532 19.4719C16.6531 19.4719 16.653 19.4719 16.653 19.4719C16.6529 19.4719 16.6528 19.4719 16.6528 19.4719C16.6527 19.4719 16.6526 19.4719 16.6526 19.4719C16.6525 19.4719 16.6524 19.4719 16.6524 19.4719C16.6523 19.4719 16.6522 19.4719 16.6522 19.4719C16.6521 19.4719 16.652 19.4719 16.652 19.4719C16.6519 19.4719 16.6518 19.4719 16.6518 19.4719C16.6517 19.4719 16.6516 19.4719 16.6516 19.4719C16.6515 19.4719 16.6515 19.4719 16.6514 19.4719C16.6513 19.4719 16.6513 19.4719 16.6512 19.4719C16.6511 19.4719 16.6511 19.4719 16.651 19.4719C16.6509 19.4719 16.6509 19.4719 16.6508 19.4719C16.6507 19.4719 16.6507 19.4719 16.6506 19.4719C16.6505 19.4719 16.6505 19.4719 16.6504 19.4719C16.6503 19.4719 16.6503 19.4719 16.6502 19.4719C16.6501 19.4719 16.6501 19.4719 16.65 19.4719C16.6499 19.4719 16.6499 19.4719 16.6498 19.4719C16.6497 19.4719 16.6497 19.4719 16.6496 19.4719C16.6495 19.4719 16.6495 19.4719 16.6494 19.4719C16.6493 19.4719 16.6493 19.4719 16.6492 19.4719C16.6491 19.4719 16.6491 19.4719 16.649 19.4719C16.6489 19.4719 16.6489 19.4719 16.6488 19.4719C16.6487 19.4719 16.6487 19.4719 16.6486 19.4719C16.6486 19.4719 16.6485 19.4719 16.6484 19.4719C16.6484 19.4719 16.6483 19.4719 16.6482 19.4719C16.6482 19.4719 16.6481 19.4719 16.648 19.4719C16.648 19.4719 16.6479 19.4719 16.6478 19.4719C16.6478 19.4719 16.6477 19.4719 16.6476 19.4719C16.6476 19.4719 16.6475 19.4719 16.6474 19.4719C16.6474 19.4719 16.6473 19.4719 16.6472 19.4719C16.6472 19.4719 16.6471 19.4719 16.647 19.4719C16.647 19.4719 16.6469 19.4719 16.6468 19.4719C16.6468 19.4719 16.6467 19.4719 16.6466 19.4719C16.6466 19.4719 16.6465 19.4719 16.6464 19.4719C16.6464 19.4719 16.6463 19.4719 16.6462 19.4719C16.6462 19.4719 16.6461 19.4719 16.646 19.4719C16.646 19.4719 16.6459 19.4719 16.6458 19.4719C16.6458 19.4719 16.6457 19.4719 16.6456 19.4719C16.6456 19.4719 16.6455 19.4719 16.6455 19.4719C16.6454 19.4719 16.6453 19.4719 16.6453 19.4719C16.6452 19.4719 16.6451 19.4719 16.6451 19.4719C16.645 19.4719 16.6449 19.4719 16.6449 19.4719C16.6448 19.4719 16.6447 19.4719 16.6447 19.4719C16.6446 19.4719 16.6445 19.4719 16.6445 19.4719C16.6444 19.4719 16.6443 19.4719 16.6443 19.4719C16.6442 19.4719 16.6441 19.4719 16.6441 19.4719C16.644 19.4719 16.6439 19.4719 16.6439 19.4719C16.6438 19.4719 16.6437 19.4719 16.6437 19.4719C16.6436 19.4719 16.6435 19.4719 16.6435 19.4719C16.6434 19.4719 16.6433 19.4719 16.6433 19.4719C16.6432 19.4719 16.6431 19.4719 16.6431 19.4719C16.643 19.4719 16.6429 19.4719 16.6429 19.4719C16.6428 19.4719 16.6427 19.4719 16.6427 19.4719C16.6426 19.4719 16.6426 19.4719 16.6425 19.4719C16.6424 19.4719 16.6424 19.4719 16.6423 19.4719C16.6422 19.4719 16.6422 19.4719 16.6421 19.4719C16.642 19.4719 16.642 19.4719 16.6419 19.4719C16.6418 19.4719 16.6418 19.4719 16.6417 19.4719C16.6416 19.4719 16.6416 19.4719 16.6415 19.4719C16.6414 19.4719 16.6414 19.4719 16.6413 19.4719C16.6412 19.4719 16.6412 19.4719 16.6411 19.4719C16.641 19.4719 16.641 19.4719 16.6409 19.4719C16.6408 19.4719 16.6408 19.4719 16.6407 19.4719C16.6406 19.4719 16.6406 19.4719 16.6405 19.4719C16.6404 19.4719 16.6404 19.4719 16.6403 19.4719C16.6402 19.4719 16.6402 19.4719 16.6401 19.4719C16.64 19.4719 16.64 19.4719 16.6399 19.4719C16.6398 19.4719 16.6398 19.4719 16.6397 19.4719C16.6397 19.4719 16.6396 19.4719 16.6395 19.4719C16.6395 19.4719 16.6394 19.4719 16.6393 19.4719C16.6393 19.4719 16.6392 19.4719 16.6391 19.4719C16.6391 19.4719 16.639 19.4719 16.6389 19.4719C16.6389 19.4719 16.6388 19.4719 16.6387 19.4719C16.6387 19.4719 16.6386 19.4719 16.6385 19.4719C16.6385 19.4719 16.6384 19.4719 16.6383 19.4719C16.6383 19.4719 16.6382 19.4719 16.6381 19.4719C16.6381 19.4719 16.638 19.4719 16.6379 19.4719C16.6379 19.4719 16.6378 19.4719 16.6377 19.4719C16.6377 19.4719 16.6376 19.4719 16.6375 19.4719C16.6375 19.4719 16.6374 19.4719 16.6373 19.4719C16.6373 19.4719 16.6372 19.4719 16.6371 19.4719C16.6371 19.4719 16.637 19.4719 16.6369 19.4719C16.6369 19.4719 16.6368 19.4719 16.6367 19.4719C16.6367 19.4719 16.6366 19.4719 16.6366 19.4719C16.6365 19.4719 16.6364 19.4719 16.6364 19.4719C16.6363 19.4719 16.6362 19.4719 16.6362 19.4719C16.6361 19.4719 16.636 19.4719 16.636 19.4719C16.6359 19.4719 16.6358 19.4719 16.6358 19.4719C16.6357 19.4719 16.6356 19.4719 16.6356 19.4719C16.6355 19.4719 16.6354 19.4719 16.6354 19.4719C16.6353 19.4719 16.6352 19.4719 16.6352 19.4719C16.6351 19.4719 16.635 19.4719 16.635 19.4719C16.6349 19.4719 16.6348 19.4719 16.6348 19.4719C16.6347 19.4719 16.6346 19.4719 16.6346 19.4719C16.6345 19.4719 16.6344 19.4719 16.6344 19.4719C16.6343 19.4719 16.6342 19.4719 16.6342 19.4719C16.6341 19.4719 16.634 19.4719 16.634 19.4719C16.6339 19.4719 16.6338 19.4719 16.6338 19.4719C16.6337 19.4719 16.6337 19.4719 16.6336 19.4719C16.6335 19.4719 16.6335 19.4719 16.6334 19.4719C16.6333 19.4719 16.6333 19.4719 16.6332 19.4719C16.6331 19.4719 16.6331 19.4719 16.633 19.4719C16.6329 19.4719 16.6329 19.4719 16.6328 19.4719C16.6327 19.4719 16.6327 19.4719 16.6326 19.4719C16.6325 19.4719 16.6325 19.4719 16.6324 19.4719C16.6323 19.4719 16.6323 19.4719 16.6322 19.4719C16.6321 19.4719 16.6321 19.4719 16.632 19.4719C16.6319 19.4719 16.6319 19.4719 16.6318 19.4719C16.6317 19.4719 16.6317 19.4719 16.6316 19.4719C16.6315 19.4719 16.6315 19.4719 16.6314 19.4719C16.6313 19.4719 16.6313 19.4719 16.6312 19.4719C16.6311 19.4719 16.6311 19.4719 16.631 19.4719C16.6309 19.4719 16.6309 19.4719 16.6308 19.4719C16.6308 19.4719 16.6307 19.4719 16.6306 19.4719C16.6306 19.4719 16.6305 19.4719 16.6304 19.4719C16.6304 19.4719 16.6303 19.4719 16.6302 19.4719C16.6302 19.4719 16.6301 19.4719 16.63 19.4719C16.63 19.4719 16.6299 19.4719 16.6298 19.4719C16.6298 19.4719 16.6297 19.4719 16.6296 19.4719C16.6296 19.4719 16.6295 19.4719 16.6294 19.4719C16.6294 19.4719 16.6293 19.4719 16.6292 19.4719C16.6292 19.4719 16.6291 19.4719 16.629 19.4719C16.629 19.4719 16.6289 19.4719 16.6288 19.4719C16.6288 19.4719 16.6287 19.4719 16.6286 19.4719C16.6286 19.4719 16.6285 19.4719 16.6284 19.4719C16.6284 19.4719 16.6283 19.4719 16.6282 19.4719C16.6282 19.4719 16.6281 19.4719 16.628 19.4719C16.628 19.4719 16.6279 19.4719 16.6278 19.4719C16.6278 19.4719 16.6277 19.4719 16.6277 19.4719C16.6276 19.4719 16.6275 19.4719 16.6275 19.4719C16.6274 19.4719 16.6273 19.4719 16.6273 19.4719C16.6272 19.4719 16.6271 19.4719 16.6271 19.4719C16.627 19.4719 16.6269 19.4719 16.6269 19.4719C16.6268 19.4719 16.6267 19.4719 16.6267 19.4719C16.6266 19.4719 16.6265 19.4719 16.6265 19.4719C16.6264 19.4719 16.6263 19.4719 16.6263 19.4719C16.6262 19.4719 16.6261 19.4719 16.6261 19.4719C16.626 19.4719 16.6259 19.4719 16.6259 19.4719C16.6258 19.4719 16.6257 19.4719 16.6257 19.4719C16.6256 19.4719 16.6255 19.4719 16.6255 19.4719C16.6254 19.4719 16.6253 19.4719 16.6253 19.4719C16.6252 19.4719 16.6251 19.4719 16.6251 19.4719C16.625 19.4719 16.6249 19.4719 16.6249 19.4719C16.6248 19.4719 16.6248 19.4719 16.6247 19.4719C16.6246 19.4719 16.6246 19.4719 16.6245 19.4719C16.6244 19.4719 16.6244 19.4719 16.6243 19.4719C16.6242 19.4719 16.6242 19.4719 16.6241 19.4719C16.624 19.4719 16.624 19.4719 16.6239 19.4719C16.6238 19.4719 16.6238 19.4719 16.6237 19.4719C16.6236 19.4719 16.6236 19.4719 16.6235 19.4719C16.6234 19.4719 16.6234 19.4719 16.6233 19.4719C16.6232 19.4719 16.6232 19.4719 16.6231 19.4719C16.623 19.4719 16.623 19.4719 16.6229 19.4719C16.6228 19.4719 16.6228 19.4719 16.6227 19.4719C16.6226 19.4719 16.6226 19.4719 16.6225 19.4719C16.6224 19.4719 16.6224 19.4719 16.6223 19.4719C16.6222 19.4719 16.6222 19.4719 16.6221 19.4719C16.622 19.4719 16.622 19.4719 16.6219 19.4719C16.6219 19.4719 16.6218 19.4719 16.6217 19.4719C16.6217 19.4719 16.6216 19.4719 16.6215 19.4719C16.6215 19.4719 16.6214 19.4719 16.6213 19.4719C16.6213 19.4719 16.6212 19.4719 16.6211 19.4719C16.6211 19.4719 16.621 19.4719 16.6209 19.4719C16.6209 19.4719 16.6208 19.4719 16.6207 19.4719C16.6207 19.4719 16.6206 19.4719 16.6205 19.4719C16.6205 19.4719 16.6204 19.4719 16.6203 19.4719C16.6203 19.4719 16.6202 19.4719 16.6201 19.4719C16.6201 19.4719 16.62 19.4719 16.6199 19.4719C16.6199 19.4719 16.6198 19.4719 16.6197 19.4719C16.6197 19.4719 16.6196 19.4719 16.6195 19.4719C16.6195 19.4719 16.6194 19.4719 16.6193 19.4719C16.6193 19.4719 16.6192 19.4719 16.6191 19.4719C16.6191 19.4719 16.619 19.4719 16.6189 19.4719C16.6189 19.4719 16.6188 19.4719 16.6188 19.4719C16.6187 19.4719 16.6186 19.4719 16.6186 19.4719C16.6185 19.4719 16.6184 19.4719 16.6184 19.4719C16.6183 19.4719 16.6182 19.4719 16.6182 19.4719C16.6181 19.4719 16.618 19.4719 16.618 19.4719C16.6179 19.4719 16.6178 19.4719 16.6178 19.4719C16.6177 19.4719 16.6176 19.4719 16.6176 19.4719C16.6175 19.4719 16.6174 19.4719 16.6174 19.4719C16.6173 19.4719 16.6172 19.4719 16.6172 19.4719C16.6171 19.4719 16.617 19.4719 16.617 19.4719C16.6169 19.4719 16.6168 19.4719 16.6168 19.4719C16.6167 19.4719 16.6166 19.4719 16.6166 19.4719C16.6165 19.4719 16.6164 19.4719 16.6164 19.4719C16.6163 19.4719 16.6162 19.4719 16.6162 19.4719C16.6161 19.4719 16.616 19.4719 16.616 19.4719C16.6159 19.4719 16.6159 19.4719 16.6158 19.4719C16.6157 19.4719 16.6157 19.4719 16.6156 19.4719C16.6155 19.4719 16.6155 19.4719 16.6154 19.4719C16.6153 19.4719 16.6153 19.4719 16.6152 19.4719C16.6151 19.4719 16.6151 19.4719 16.615 19.4719C16.6149 19.4719 16.6149 19.4719 16.6148 19.4719C16.6147 19.4719 16.6147 19.4719 16.6146 19.4719C16.6145 19.4719 16.6145 19.4719 16.6144 19.4719C16.6143 19.4719 16.6143 19.4719 16.6142 19.4719C16.6141 19.4719 16.6141 19.4719 16.614 19.4719V20.4719ZM16.7383 20.4714C16.9954 20.4595 17.2775 20.4357 17.5741 20.4134L17.4991 19.4162C17.1882 19.4396 16.9302 19.4614 16.6922 19.4724L16.7383 20.4714ZM17.5794 20.4129C18.0573 20.3719 18.5728 20.2003 18.9756 19.93C19.3627 19.6701 19.7636 19.2308 19.7232 18.6353L18.7255 18.7031C18.73 18.7703 18.6865 18.9196 18.4182 19.0997C18.1656 19.2692 17.8148 19.3891 17.4939 19.4166L17.5794 20.4129ZM19.7235 18.6403C19.6724 17.7577 19.0164 17.3173 18.3902 17.1279L18.1007 18.085C18.5321 18.2156 18.7088 18.4151 18.7251 18.6981L19.7235 18.6403ZM18.283 18.1051C18.5864 18.0822 18.8917 18.0593 19.1748 18.0363L19.0938 17.0395C18.8143 17.0623 18.5121 17.085 18.2079 17.1079L18.283 18.1051ZM19.1771 18.0361C19.65 17.9955 20.1074 17.8405 20.4464 17.551C20.8001 17.2488 21.0078 16.8094 20.9473 16.2915L19.9541 16.4075C19.9723 16.5638 19.9213 16.6843 19.7968 16.7906C19.6576 16.9096 19.4174 17.0118 19.0915 17.0397L19.1771 18.0361ZM20.9481 16.2988C20.896 15.7872 20.5932 15.3938 20.2248 15.1273C19.8583 14.8622 19.398 14.698 18.9351 14.6318L18.7935 15.6217C19.1294 15.6698 19.4286 15.7856 19.6387 15.9375C19.8469 16.0881 19.9379 16.249 19.9533 16.4001L20.9481 16.2988ZM18.8643 14.6268C18.882 14.6268 18.8961 14.6279 18.9052 14.6288C18.9144 14.6297 18.9213 14.6307 18.9248 14.6313C18.9302 14.6321 18.9336 14.6329 18.9244 14.631C18.9195 14.6301 18.9021 14.6264 18.8833 14.6234C18.8731 14.6218 18.8597 14.6199 18.8442 14.6183C18.829 14.6168 18.8089 14.6153 18.7855 14.6153V15.6153C18.7678 15.6153 18.7536 15.6142 18.7446 15.6133C18.7354 15.6124 18.7285 15.6114 18.725 15.6108C18.7196 15.6099 18.7162 15.6092 18.7254 15.611C18.7303 15.612 18.7477 15.6157 18.7665 15.6187C18.7767 15.6203 18.7901 15.6222 18.8055 15.6238C18.8208 15.6253 18.8409 15.6268 18.8643 15.6268V14.6268ZM18.8204 15.6141C19.1141 15.5935 19.4733 15.5789 19.739 15.5564L19.6547 14.56C19.3804 14.5832 19.1095 14.5914 18.7506 14.6166L18.8204 15.6141ZM19.7183 15.5577C20.2122 15.5365 20.6764 15.3694 21.0129 15.0645C21.3583 14.7515 21.5554 14.3007 21.4862 13.791L20.4953 13.9256C20.5161 14.0787 20.4657 14.2108 20.3414 14.3234C20.2081 14.4442 19.9804 14.5456 19.6754 14.5587L19.7183 15.5577ZM5.25026 10.3643H3V11.3643H5.25026V10.3643ZM2.5 10.8643V18.8634H3.5V10.8643H2.5ZM3 19.3634H5.25026V18.3634H3V19.3634ZM5.25026 19.3634C6.15251 19.3634 6.8754 18.618 6.8754 17.7207H5.8754C5.8754 18.0804 5.58566 18.3634 5.25026 18.3634V19.3634ZM6.8754 17.7207V12.007H5.8754V17.7207H6.8754ZM6.8754 12.007C6.8754 11.095 6.14927 10.3643 5.25026 10.3643V11.3643C5.5889 11.3643 5.8754 11.6392 5.8754 12.007H6.8754Z" fill="#BACAF5"/>
</svg>
