<svg width="16" height="16" viewBox="0 0 16 16" fill="none" xmlns="http://www.w3.org/2000/svg">
<g clip-path="url(#clip0_0_386)">
<path d="M8.57153 0.571533H2.85725C2.55414 0.571533 2.26345 0.691941 2.04913 0.906268C1.8348 1.1206 1.71439 1.41129 1.71439 1.71439V12.0001L0.571533 15.4287L5.14296 14.2858H14.2858C14.5889 14.2858 14.8796 14.1654 15.0939 13.9511C15.3083 13.7368 15.4287 13.4461 15.4287 13.143V7.42868" stroke="#FBFAFC" stroke-linecap="round" stroke-linejoin="round"/>
<path d="M9.55772 9.29948L6.12915 9.91663L6.70058 6.44234L12.1063 1.05948C12.2125 0.952227 12.3388 0.867083 12.4781 0.808975C12.6174 0.750867 12.7668 0.720947 12.9177 0.720947C13.0686 0.720947 13.2181 0.750867 13.3573 0.808975C13.4966 0.867083 13.623 0.952227 13.7291 1.05948L14.9406 2.27091C15.0476 2.37723 15.1325 2.50366 15.1904 2.64292C15.2483 2.78217 15.2782 2.93151 15.2782 3.08234C15.2782 3.23317 15.2483 3.38251 15.1904 3.52176C15.1325 3.66102 15.0476 3.78745 14.9406 3.89377L9.55772 9.29948Z" stroke="#FBFAFC" stroke-linecap="round" stroke-linejoin="round"/>
</g>
<defs>
<clipPath id="clip0_0_386">
<rect width="16" height="16" fill="white"/>
</clipPath>
</defs>
</svg>
