<svg width="16" height="16" viewBox="0 0 16 16" fill="none" xmlns="http://www.w3.org/2000/svg">
<path fill-rule="evenodd" clip-rule="evenodd" d="M2.98689 1.06689H2.93356C2.68929 1.06689 2.47916 1.06689 2.29356 1.11063C2.00624 1.17928 1.74353 1.32614 1.53455 1.53494C1.32557 1.74373 1.17848 2.0063 1.10956 2.29356C1.06689 2.47916 1.06689 2.68823 1.06689 2.93356V5.60023C1.06689 5.84449 1.06689 6.05463 1.11063 6.24023C1.17928 6.52755 1.32614 6.79025 1.53494 6.99924C1.74373 7.20822 2.0063 7.35531 2.29356 7.42423C2.47916 7.4669 2.68823 7.4669 2.93356 7.4669H5.60023C5.84449 7.4669 6.05463 7.4669 6.24023 7.42316C6.52755 7.35451 6.79025 7.20765 6.99924 6.99885C7.20822 6.79006 7.35531 6.52749 7.42423 6.24023C7.4669 6.05463 7.4669 5.84556 7.4669 5.60023V2.93356C7.4669 2.68929 7.4669 2.47916 7.42316 2.29356C7.35451 2.00624 7.20765 1.74353 6.99885 1.53455C6.79006 1.32557 6.52749 1.17848 6.24023 1.10956C6.05463 1.06689 5.84556 1.06689 5.60023 1.06689H5.54689H2.98689ZM2.54209 2.14849C2.58796 2.13783 2.65943 2.13356 2.98689 2.13356H5.54689C5.87543 2.13356 5.94583 2.13676 5.99169 2.14849C6.08751 2.17141 6.17511 2.22041 6.24478 2.29008C6.31444 2.35974 6.36345 2.44734 6.38636 2.54316C6.39703 2.58796 6.40023 2.65836 6.40023 2.98689V5.54689C6.40023 5.87543 6.39703 5.94583 6.38529 5.99169C6.36238 6.08751 6.31337 6.17511 6.24371 6.24478C6.17405 6.31444 6.08645 6.36345 5.99063 6.38636C5.9469 6.39596 5.87649 6.40023 5.54689 6.40023H2.98689C2.65836 6.40023 2.58796 6.39703 2.54209 6.38529C2.44628 6.36238 2.35868 6.31337 2.28901 6.24371C2.21935 6.17405 2.17034 6.08645 2.14743 5.99063C2.13783 5.9469 2.13356 5.87649 2.13356 5.54689V2.98689C2.13356 2.65836 2.13676 2.58796 2.14849 2.54209C2.17141 2.44628 2.22041 2.35868 2.29008 2.28901C2.35974 2.21935 2.44734 2.17034 2.54316 2.14743M10.4536 1.06689H10.4002C10.156 1.06689 9.94583 1.06689 9.76023 1.11063C9.47291 1.17928 9.2102 1.32614 9.00122 1.53494C8.79224 1.74373 8.64514 2.0063 8.57623 2.29356C8.53356 2.47916 8.53356 2.68823 8.53356 2.93356V5.60023C8.53356 5.84449 8.53356 6.05463 8.5773 6.24023C8.64595 6.52755 8.79281 6.79025 9.0016 6.99924C9.2104 7.20822 9.47297 7.35531 9.76023 7.42423C9.94583 7.4669 10.1549 7.4669 10.4002 7.4669H13.0669C13.3112 7.4669 13.5213 7.4669 13.7069 7.42316C13.9942 7.35451 14.2569 7.20765 14.4659 6.99885C14.6749 6.79006 14.822 6.52749 14.8909 6.24023C14.9336 6.05463 14.9336 5.84556 14.9336 5.60023V2.93356C14.9336 2.68929 14.9336 2.47916 14.8898 2.29356C14.8212 2.00624 14.6743 1.74353 14.4655 1.53455C14.2567 1.32557 13.9942 1.17848 13.7069 1.10956C13.5213 1.06689 13.3122 1.06689 13.0669 1.06689H13.0136H10.4536ZM10.0088 2.14849C10.0546 2.13783 10.1261 2.13356 10.4536 2.13356H13.0136C13.3421 2.13356 13.4125 2.13676 13.4584 2.14849C13.5542 2.17141 13.6418 2.22041 13.7114 2.29008C13.7811 2.35974 13.8301 2.44734 13.853 2.54316C13.8637 2.58796 13.8669 2.65836 13.8669 2.98689V5.54689C13.8669 5.87543 13.8626 5.94583 13.852 5.99169C13.829 6.08751 13.78 6.17511 13.7104 6.24478C13.6407 6.31444 13.5531 6.36345 13.4573 6.38636C13.4125 6.39703 13.3421 6.40023 13.0136 6.40023H10.4536C10.125 6.40023 10.0546 6.39703 10.0088 6.38529C9.91294 6.36238 9.82534 6.31337 9.75568 6.24371C9.68602 6.17405 9.63701 6.08645 9.61409 5.99063C9.60449 5.9469 9.60023 5.87649 9.60023 5.54689V2.98689C9.60023 2.65836 9.60343 2.58796 9.61516 2.54209C9.63807 2.44628 9.68708 2.35868 9.75675 2.28901C9.82641 2.21935 9.91401 2.17034 10.0098 2.14743M2.93356 8.53356H5.60023C5.84449 8.53356 6.05463 8.53356 6.24023 8.5773C6.52755 8.64595 6.79025 8.79281 6.99924 9.0016C7.20822 9.2104 7.35531 9.47297 7.42423 9.76023C7.4669 9.94583 7.4669 10.1549 7.4669 10.4002V13.0669C7.4669 13.3112 7.4669 13.5213 7.42316 13.7069C7.35451 13.9942 7.20765 14.2569 6.99885 14.4659C6.79006 14.6749 6.52749 14.822 6.24023 14.8909C6.05463 14.9336 5.84556 14.9336 5.60023 14.9336H2.93356C2.68929 14.9336 2.47916 14.9336 2.29356 14.8898C2.00624 14.8212 1.74353 14.6743 1.53455 14.4655C1.32557 14.2567 1.17848 13.9942 1.10956 13.7069C1.06689 13.5213 1.06689 13.3122 1.06689 13.0669V10.4002C1.06689 10.156 1.06689 9.94583 1.11063 9.76023C1.17928 9.47291 1.32614 9.2102 1.53494 9.00122C1.74373 8.79224 2.0063 8.64514 2.29356 8.57623C2.47916 8.53356 2.68823 8.53356 2.93356 8.53356ZM2.98689 9.60023C2.65836 9.60023 2.58796 9.60343 2.54209 9.61516C2.44628 9.63807 2.35868 9.68708 2.28901 9.75675C2.21935 9.82641 2.17034 9.91401 2.14743 10.0098C2.13783 10.0536 2.13356 10.124 2.13356 10.4536V13.0136C2.13356 13.3421 2.13676 13.4125 2.14849 13.4584C2.17141 13.5542 2.22041 13.6418 2.29008 13.7114C2.35974 13.7811 2.44734 13.8301 2.54316 13.853C2.58796 13.8637 2.65836 13.8669 2.98689 13.8669H5.54689C5.87543 13.8669 5.94583 13.8626 5.99169 13.852C6.08751 13.829 6.17511 13.78 6.24478 13.7104C6.31444 13.6407 6.36345 13.5531 6.38636 13.4573C6.39703 13.4125 6.40023 13.3421 6.40023 13.0136V10.4536C6.40023 10.125 6.39703 10.0546 6.38529 10.0088C6.36238 9.91294 6.31337 9.82534 6.24371 9.75568C6.17405 9.68602 6.08645 9.63701 5.99063 9.61409C5.9469 9.60449 5.87649 9.60023 5.54689 9.60023H2.98689ZM10.4536 8.53356H10.4002C10.156 8.53356 9.94583 8.53356 9.76023 8.5773C9.47291 8.64595 9.2102 8.79281 9.00122 9.0016C8.79224 9.2104 8.64514 9.47297 8.57623 9.76023C8.53356 9.94583 8.53356 10.1549 8.53356 10.4002V13.0669C8.53356 13.3112 8.53356 13.5213 8.5773 13.7069C8.64595 13.9942 8.79281 14.2569 9.0016 14.4659C9.2104 14.6749 9.47297 14.822 9.76023 14.8909C9.94583 14.9346 10.156 14.9346 10.4002 14.9346H13.0669C13.3112 14.9346 13.5213 14.9346 13.7069 14.8909C13.994 14.8221 14.2565 14.6751 14.4653 14.4663C14.6741 14.2576 14.821 13.9951 14.8898 13.708C14.9336 13.5224 14.9336 13.3122 14.9336 13.068V10.4002C14.9336 10.156 14.9336 9.94583 14.8898 9.76023C14.8212 9.47291 14.6743 9.2102 14.4655 9.00122C14.2567 8.79224 13.9942 8.64514 13.7069 8.57623C13.5213 8.53356 13.3122 8.53356 13.0669 8.53356H13.0136H10.4536ZM10.0088 9.61516C10.0546 9.6045 10.1261 9.60023 10.4536 9.60023H13.0136C13.3421 9.60023 13.4125 9.60343 13.4584 9.61516C13.5542 9.63807 13.6418 9.68708 13.7114 9.75675C13.7811 9.82641 13.8301 9.91401 13.853 10.0098C13.8637 10.0546 13.8669 10.125 13.8669 10.4536V13.0136C13.8669 13.3421 13.8626 13.4125 13.852 13.4584C13.829 13.5542 13.78 13.6418 13.7104 13.7114C13.6407 13.7811 13.5531 13.8301 13.4573 13.853C13.4125 13.8637 13.3421 13.8669 13.0136 13.8669H10.4536C10.125 13.8669 10.0546 13.8626 10.0088 13.852C9.91294 13.829 9.82534 13.78 9.75568 13.7104C9.68602 13.6407 9.63701 13.5531 9.61409 13.4573C9.60449 13.4136 9.60023 13.3432 9.60023 13.0136V10.4536C9.60023 10.125 9.60343 10.0546 9.61516 10.0088C9.63807 9.91294 9.68708 9.82534 9.75675 9.75568C9.82641 9.68602 9.91401 9.63701 10.0098 9.61409" fill="#FBFAFC"/>
</svg>
