<svg width="32" height="32" viewBox="0 0 32 32" fill="none" xmlns="http://www.w3.org/2000/svg">
<rect width="32" height="32" rx="16" fill="#303030"/>
<mask id="path-2-outside-1_420_13852" maskUnits="userSpaceOnUse" x="7.25" y="7.25" width="18" height="18" fill="black">
<rect fill="white" x="7.25" y="7.25" width="18" height="18"/>
<path d="M16.8654 8.25H10.7115C10.3851 8.25 10.0721 8.37967 9.84125 8.61048C9.61044 8.8413 9.48077 9.15435 9.48077 9.48077V20.5577L8.25 24.25L13.1731 23.0192H23.0192C23.3457 23.0192 23.6587 22.8896 23.8895 22.6587C24.1203 22.4279 24.25 22.1149 24.25 21.7885V15.6346"/>
</mask>
<path d="M16.8654 9.25C17.4177 9.25 17.8654 8.80228 17.8654 8.25C17.8654 7.69772 17.4177 7.25 16.8654 7.25V9.25ZM10.7115 8.25V7.25V8.25ZM9.48077 9.48077H8.48077H9.48077ZM9.48077 20.5577L10.4295 20.8739C10.4634 20.772 10.4808 20.6652 10.4808 20.5577H9.48077ZM8.25 24.25L7.30132 23.9338C7.1859 24.28 7.26829 24.6617 7.51628 24.9295C7.76426 25.1972 8.13845 25.3087 8.49254 25.2201L8.25 24.25ZM13.1731 23.0192V22.0192C13.0913 22.0192 13.0099 22.0293 12.9305 22.0491L13.1731 23.0192ZM25.25 15.6346C25.25 15.0823 24.8023 14.6346 24.25 14.6346C23.6977 14.6346 23.25 15.0823 23.25 15.6346H25.25ZM16.8654 7.25H10.7115V9.25H16.8654V7.25ZM10.7115 7.25C10.1199 7.25 9.5525 7.48503 9.13415 7.90338L10.5484 9.31759C10.5916 9.27431 10.6503 9.25 10.7115 9.25V7.25ZM9.13415 7.90338C8.7158 8.32173 8.48077 8.88913 8.48077 9.48077H10.4808C10.4808 9.41957 10.5051 9.36087 10.5484 9.31759L9.13415 7.90338ZM8.48077 9.48077V20.5577H10.4808V9.48077H8.48077ZM8.53209 20.2415L7.30132 23.9338L9.19868 24.5662L10.4295 20.8739L8.53209 20.2415ZM8.49254 25.2201L13.4156 23.9894L12.9305 22.0491L8.00746 23.2799L8.49254 25.2201ZM13.1731 24.0192H23.0192V22.0192H13.1731V24.0192ZM23.0192 24.0192C23.6109 24.0192 24.1783 23.7842 24.5966 23.3659L23.1824 21.9516C23.1391 21.9949 23.0804 22.0192 23.0192 22.0192V24.0192ZM24.5966 23.3659C25.015 22.9475 25.25 22.3801 25.25 21.7885H23.25C23.25 21.8497 23.2257 21.9084 23.1824 21.9516L24.5966 23.3659ZM25.25 21.7885V15.6346H23.25V21.7885H25.25Z" fill="#FBFAFC" mask="url(#path-2-outside-1_420_13852)"/>
<path d="M18.0157 18.1416C18.1165 18.1235 18.2092 18.0749 18.2815 18.0024L24.0765 12.1827C24.0769 12.1823 24.0772 12.182 24.0776 12.1817C24.2391 12.0209 24.3672 11.8298 24.4548 11.6195C24.5425 11.4086 24.5876 11.1825 24.5876 10.9542C24.5876 10.7258 24.5425 10.4997 24.4548 10.2889C24.3672 10.0783 24.2388 9.88709 24.0771 9.72624C24.0769 9.72605 24.0767 9.72587 24.0765 9.72568L22.7748 8.42397C22.7745 8.42368 22.7743 8.42338 22.774 8.42309C22.6133 8.26102 22.4222 8.13235 22.2116 8.04448C22.0006 7.95646 21.7742 7.91113 21.5456 7.91113C21.317 7.91113 21.0907 7.95646 20.8797 8.04448C20.6693 8.13225 20.4784 8.26075 20.3178 8.42256L14.4974 14.2183C14.4231 14.2924 14.3739 14.3879 14.3569 14.4915L13.7415 18.233C13.7151 18.3933 13.7683 18.5564 13.884 18.6704C13.9997 18.7844 14.1636 18.835 14.3234 18.8063L18.0157 18.1416Z" stroke="#FBFAFC" stroke-linecap="round" stroke-linejoin="round"/>
</svg>
