<svg width="15" height="16" viewBox="0 0 15 16" fill="none" xmlns="http://www.w3.org/2000/svg">
<path fill-rule="evenodd" clip-rule="evenodd" d="M14.026 4H0.51948C0.228571 4 0 4.22 0 4.5C0 4.78 0.228571 5 0.51948 5H1.03896V15C1.03896 15.55 1.50649 16 2.07792 16H12.4675C13.039 16 13.5065 15.55 13.5065 15V5H14.026C14.3169 5 14.5455 4.78 14.5455 4.5C14.5455 4.22 14.3169 4 14.026 4ZM5.19488 13C5.19488 13.55 4.72735 14 4.15592 14C3.58449 14 3.11696 13.55 3.11696 13V7C3.11696 6.45 3.58449 6 4.15592 6C4.72735 6 5.19488 6.45 5.19488 7V13ZM8.31184 13C8.31184 13.55 7.84431 14 7.27288 14C6.70145 14 6.23392 13.55 6.23392 13V7C6.23392 6.45 6.70145 6 7.27288 6C7.84431 6 8.31184 6.45 8.31184 7V13ZM11.4286 13C11.4286 13.55 10.961 14 10.3896 14C9.81818 14 9.35064 13.55 9.35064 13V7C9.35064 6.45 9.81818 6 10.3896 6C10.961 6 11.4286 6.45 11.4286 7V13ZM13.5065 1H9.35065C9.35065 0.45 8.88312 0 8.31169 0H6.23377C5.66234 0 5.19481 0.45 5.19481 1H1.03896C0.467532 1 0 1.45 0 2V3H14.5455V2C14.5455 1.45 14.0779 1 13.5065 1Z" fill="#D14343" fill-opacity="0.6"/>
</svg>
