<svg width="100" height="100" viewBox="0 0 100 100" fill="none" xmlns="http://www.w3.org/2000/svg">
<path fill-rule="evenodd" clip-rule="evenodd" d="M87.5 18.75C85.75 18.75 84.1875 19.4375 83.0625 20.5625L37.5 66.1875L16.9375 45.5625C15.8125 44.4375 14.25 43.75 12.5 43.75C9.0625 43.75 6.25 46.5625 6.25 50C6.25 51.75 6.9375 53.3125 8.0625 54.4375L33.0625 79.4375C34.1875 80.5625 35.75 81.25 37.5 81.25C39.25 81.25 40.8125 80.5625 41.9375 79.4375L91.9375 29.4375C93.0625 28.3125 93.75 26.75 93.75 25C93.75 21.5625 90.9375 18.75 87.5 18.75Z" fill="#3366FF"/>
</svg>
