<svg width="16" height="15" viewBox="0 0 16 15" fill="none" xmlns="http://www.w3.org/2000/svg">
<path fill-rule="evenodd" clip-rule="evenodd" d="M15.992 8.62811C15.9119 8.04804 15.2619 7.66799 14.5618 7.57798C14.4118 7.55798 14.2417 7.53797 14.0717 7.52797C14.1317 7.51797 14.1817 7.51797 14.2317 7.50797C14.9418 7.42796 15.4619 7.03791 15.3819 6.45784C15.3019 5.87777 14.6518 5.49773 13.9517 5.40771C13.6117 5.36771 13.2316 5.33771 12.8216 5.3177C12.8216 5.3177 12.8216 5.3177 12.8116 5.3177C12.5715 5.3077 12.3215 5.2977 12.0615 5.2977C11.5814 5.2777 10.9513 5.2577 10.4713 5.21769C10.1112 5.18769 10.0612 4.93766 10.1012 4.68763C10.4513 3.78752 10.6413 2.77739 10.6013 1.77727C10.5613 0.927167 10.0012 0.0970655 9.19112 0.00705455C8.52104 -0.062954 8.03098 0.397102 8.201 0.987174C8.76107 2.91741 6.13075 5.20769 4.00049 6.49785V12.4986C5.66069 13.5287 8.35102 14.0588 11.4814 13.9988C11.6714 13.9988 11.8714 13.9888 12.1015 13.9788C12.1315 13.9788 12.1615 13.9788 12.1915 13.9788C12.4115 13.9688 12.6515 13.9488 12.9216 13.9288C13.6317 13.8687 14.4618 13.4187 14.4218 12.8386C14.3918 12.3286 14.0217 12.0485 13.5517 11.9085C13.8217 11.8885 14.0917 11.8685 14.3418 11.8485C15.0518 11.7885 15.5819 11.3984 15.5119 10.8084C15.4519 10.2283 14.8118 9.83826 14.1017 9.73824C14.0817 9.73824 14.0517 9.72824 14.0317 9.72824C14.3217 9.70824 14.6018 9.69824 14.8418 9.67823C15.5519 9.64823 16.072 9.20818 15.992 8.62811ZM2.00024 6.00779H0V13.0086H2.00024C2.55031 13.0086 3.00037 12.5586 3.00037 12.0085V7.00791C3.00037 6.44784 2.55031 6.00779 2.00024 6.00779Z" fill="#8F95B2"/>
</svg>
