<svg width="24" height="24" viewBox="0 0 24 24" fill="none" xmlns="http://www.w3.org/2000/svg">
<path d="M3.00195 5.14471V4.64471H2.50195V5.14471H3.00195ZM3.00195 13.1388H2.50195V13.6388H3.00195V13.1388ZM20.9928 10.1478L20.4973 10.0805L20.4963 10.0888L20.9928 10.1478ZM19.6989 8.94868L19.7203 8.44914L19.7192 8.44909L19.6989 8.94868ZM18.7875 8.89158V8.39158L18.7526 9.39036L18.7875 8.89158ZM18.8663 8.88016V9.38016H18.9024L18.9381 9.37498L18.8663 8.88016ZM20.4527 7.6582L20.9493 7.71725L20.9502 7.7089L20.4527 7.6582ZM19.1363 6.47051L19.1861 5.97291L19.1768 5.97215L19.1363 6.47051ZM18.2475 6.40199L18.0934 5.92632L18.21 6.90058L18.2475 6.40199ZM19.2263 5.33992L18.7275 5.30602L18.7272 5.31099L19.2263 5.33992ZM17.5386 4.09512L17.5814 3.59692L17.5761 3.59653L17.5386 4.09512ZM16.616 4.03802L16.5721 4.53609L16.594 4.53802H16.616V4.03802ZM15.9185 4.00376L15.9451 3.50447L15.9359 3.50398L15.9266 3.50383L15.9185 4.00376ZM7.50247 5.7282L7.23417 5.30628L7.00247 5.45362V5.7282H7.50247ZM7.50247 12.5803H7.00247V12.8605L7.24152 13.0068L7.50247 12.5803ZM12.2393 18.8728L12.7182 19.0167L12.7205 19.0086L12.2393 18.8728ZM13.3419 19.9919L13.3946 20.4892L13.3979 20.4888L13.3419 19.9919ZM14.9171 17.9592L14.4175 17.9395L14.4174 17.9422L14.9171 17.9592ZM14.3545 14.6359L13.8606 14.7138L13.8688 14.7657L13.8876 14.8148L14.3545 14.6359ZM14.7708 14.0306L14.7398 13.5315L14.7287 13.5324L14.7708 14.0306ZM16.5598 13.9393V13.4393H16.5492L16.5387 13.4397L16.5598 13.9393ZM17.4036 13.9164V13.4164H17.3931L17.3825 13.4169L17.4036 13.9164ZM18.6863 13.8137L18.7473 14.3099L18.751 14.3095L18.6863 13.8137ZM19.0013 11.4154L18.9018 11.9054L18.923 11.9097L18.9445 11.9122L19.0013 11.4154ZM18.8213 11.3926L18.7915 10.8935L18.7218 11.8826L18.8213 11.3926ZM19.3726 11.3355L19.3166 10.8386L19.3097 10.8395L19.3726 11.3355ZM5.25222 4.64471H3.00195V5.64471H5.25222V4.64471ZM2.50195 5.14471V13.1388H3.50195V5.14471H2.50195ZM3.00195 13.6388H5.25222V12.6388H3.00195V13.6388ZM5.25222 13.6388C6.15418 13.6388 6.87735 12.894 6.87735 11.9968H5.87735C5.87735 12.3558 5.5879 12.6388 5.25222 12.6388V13.6388ZM6.87735 11.9968V6.28672H5.87735V11.9968H6.87735ZM6.87735 6.28672C6.87735 5.38952 6.15418 4.64471 5.25222 4.64471V5.64471C5.5879 5.64471 5.87735 5.92771 5.87735 6.28672H6.87735ZM21.4882 10.2151C21.5575 9.70552 21.3602 9.2549 21.0148 8.94208C20.6783 8.63737 20.2142 8.47032 19.7203 8.44914L19.6775 9.44822C19.9825 9.4613 20.2103 9.56262 20.3435 9.68331C20.4679 9.79589 20.5181 9.92769 20.4974 10.0805L21.4882 10.2151ZM19.7192 8.44909C19.4473 8.43805 19.1533 8.41596 18.8225 8.3928L18.7526 9.39036C19.0743 9.41288 19.388 9.43647 19.6786 9.44827L19.7192 8.44909ZM18.7875 9.39158C18.8109 9.39158 18.831 9.39013 18.8463 9.3886C18.8617 9.38706 18.8751 9.38513 18.8853 9.38349C18.904 9.38049 18.9215 9.37687 18.9264 9.37587C18.9356 9.37401 18.9322 9.37478 18.9268 9.37564C18.9233 9.37621 18.9164 9.37724 18.9072 9.37816C18.8982 9.37906 18.884 9.38016 18.8663 9.38016V8.38016C18.8429 8.38016 18.8228 8.38161 18.8076 8.38313C18.7921 8.38468 18.7788 8.3866 18.7685 8.38824C18.7498 8.39124 18.7323 8.39487 18.7274 8.39586C18.7183 8.39772 18.7217 8.39696 18.7271 8.39609C18.7306 8.39553 18.7375 8.39449 18.7467 8.39357C18.7557 8.39267 18.7698 8.39158 18.7875 8.39158V9.39158ZM18.9381 9.37498C19.3961 9.30857 19.8528 9.14412 20.2183 8.87996C20.5852 8.61468 20.8889 8.22457 20.9492 7.71724L19.9562 7.59917C19.9378 7.7542 19.8421 7.91797 19.6324 8.06953C19.4212 8.2222 19.1241 8.33755 18.7946 8.38533L18.9381 9.37498ZM20.9502 7.7089C21.0021 7.19888 20.7942 6.76642 20.4452 6.46664C20.1098 6.17855 19.6576 6.02017 19.1861 5.97299L19.0865 6.96802C19.4139 7.00079 19.6537 7.10507 19.7936 7.22525C19.92 7.33374 19.9708 7.45516 19.9553 7.60751L20.9502 7.7089ZM19.1768 5.97215C18.8938 5.94917 18.5884 5.92621 18.285 5.9034L18.21 6.90058C18.5141 6.92345 18.8163 6.94617 19.0959 6.96887L19.1768 5.97215ZM18.4016 6.87765C18.707 6.77871 19.023 6.62731 19.2729 6.38183C19.5339 6.12544 19.7013 5.7867 19.7255 5.36885L18.7272 5.31099C18.7176 5.47556 18.66 5.5822 18.5722 5.66842C18.4733 5.76555 18.3168 5.85397 18.0934 5.92632L18.4016 6.87765ZM19.7252 5.37381C19.7657 4.77833 19.3645 4.33924 18.9775 4.07961C18.5747 3.80939 18.0592 3.63794 17.5814 3.59695L17.4959 4.59329C17.8169 4.62083 18.1678 4.74059 18.4204 4.91005C18.6888 5.09009 18.732 5.23914 18.7275 5.30602L19.7252 5.37381ZM17.5761 3.59653C17.2795 3.57423 16.9974 3.55041 16.7403 3.53855L16.6943 4.53749C16.9322 4.54847 17.1902 4.57034 17.5012 4.59372L17.5761 3.59653ZM16.7173 3.53802C16.7172 3.53802 16.7172 3.53802 16.7171 3.53802C16.717 3.53802 16.717 3.53802 16.7169 3.53802C16.7168 3.53802 16.7168 3.53802 16.7167 3.53802C16.7166 3.53802 16.7166 3.53802 16.7165 3.53802C16.7164 3.53802 16.7164 3.53802 16.7163 3.53802C16.7162 3.53802 16.7162 3.53802 16.7161 3.53802C16.716 3.53802 16.716 3.53802 16.7159 3.53802C16.7158 3.53802 16.7158 3.53802 16.7157 3.53802C16.7157 3.53802 16.7156 3.53802 16.7155 3.53802C16.7155 3.53802 16.7154 3.53802 16.7153 3.53802C16.7153 3.53802 16.7152 3.53802 16.7151 3.53802C16.7151 3.53802 16.715 3.53802 16.7149 3.53802C16.7149 3.53802 16.7148 3.53802 16.7147 3.53802C16.7147 3.53802 16.7146 3.53802 16.7145 3.53802C16.7145 3.53802 16.7144 3.53802 16.7143 3.53802C16.7143 3.53802 16.7142 3.53802 16.7141 3.53802C16.7141 3.53802 16.714 3.53802 16.7139 3.53802C16.7139 3.53802 16.7138 3.53802 16.7137 3.53802C16.7137 3.53802 16.7136 3.53802 16.7135 3.53802C16.7135 3.53802 16.7134 3.53802 16.7133 3.53802C16.7133 3.53802 16.7132 3.53802 16.7131 3.53802C16.7131 3.53802 16.713 3.53802 16.7129 3.53802C16.7129 3.53802 16.7128 3.53802 16.7128 3.53802C16.7127 3.53802 16.7126 3.53802 16.7126 3.53802C16.7125 3.53802 16.7124 3.53802 16.7124 3.53802C16.7123 3.53802 16.7122 3.53802 16.7122 3.53802C16.7121 3.53802 16.712 3.53802 16.712 3.53802C16.7119 3.53802 16.7118 3.53802 16.7118 3.53802C16.7117 3.53802 16.7116 3.53802 16.7116 3.53802C16.7115 3.53802 16.7114 3.53802 16.7114 3.53802C16.7113 3.53802 16.7112 3.53802 16.7112 3.53802C16.7111 3.53802 16.711 3.53802 16.711 3.53802C16.7109 3.53802 16.7108 3.53802 16.7108 3.53802C16.7107 3.53802 16.7106 3.53802 16.7106 3.53802C16.7105 3.53802 16.7104 3.53802 16.7104 3.53802C16.7103 3.53802 16.7102 3.53802 16.7102 3.53802C16.7101 3.53802 16.71 3.53802 16.71 3.53802C16.7099 3.53802 16.7098 3.53802 16.7098 3.53802C16.7097 3.53802 16.7097 3.53802 16.7096 3.53802C16.7095 3.53802 16.7095 3.53802 16.7094 3.53802C16.7093 3.53802 16.7093 3.53802 16.7092 3.53802C16.7091 3.53802 16.7091 3.53802 16.709 3.53802C16.7089 3.53802 16.7089 3.53802 16.7088 3.53802C16.7087 3.53802 16.7087 3.53802 16.7086 3.53802C16.7085 3.53802 16.7085 3.53802 16.7084 3.53802C16.7083 3.53802 16.7083 3.53802 16.7082 3.53802C16.7081 3.53802 16.7081 3.53802 16.708 3.53802C16.7079 3.53802 16.7079 3.53802 16.7078 3.53802C16.7077 3.53802 16.7077 3.53802 16.7076 3.53802C16.7075 3.53802 16.7075 3.53802 16.7074 3.53802C16.7073 3.53802 16.7073 3.53802 16.7072 3.53802C16.7071 3.53802 16.7071 3.53802 16.707 3.53802C16.7069 3.53802 16.7069 3.53802 16.7068 3.53802C16.7068 3.53802 16.7067 3.53802 16.7066 3.53802C16.7066 3.53802 16.7065 3.53802 16.7064 3.53802C16.7064 3.53802 16.7063 3.53802 16.7062 3.53802C16.7062 3.53802 16.7061 3.53802 16.706 3.53802C16.706 3.53802 16.7059 3.53802 16.7058 3.53802C16.7058 3.53802 16.7057 3.53802 16.7056 3.53802C16.7056 3.53802 16.7055 3.53802 16.7054 3.53802C16.7054 3.53802 16.7053 3.53802 16.7052 3.53802C16.7052 3.53802 16.7051 3.53802 16.705 3.53802C16.705 3.53802 16.7049 3.53802 16.7048 3.53802C16.7048 3.53802 16.7047 3.53802 16.7046 3.53802C16.7046 3.53802 16.7045 3.53802 16.7044 3.53802C16.7044 3.53802 16.7043 3.53802 16.7042 3.53802C16.7042 3.53802 16.7041 3.53802 16.704 3.53802C16.704 3.53802 16.7039 3.53802 16.7039 3.53802C16.7038 3.53802 16.7037 3.53802 16.7037 3.53802C16.7036 3.53802 16.7035 3.53802 16.7035 3.53802C16.7034 3.53802 16.7033 3.53802 16.7033 3.53802C16.7032 3.53802 16.7031 3.53802 16.7031 3.53802C16.703 3.53802 16.7029 3.53802 16.7029 3.53802C16.7028 3.53802 16.7027 3.53802 16.7027 3.53802C16.7026 3.53802 16.7025 3.53802 16.7025 3.53802C16.7024 3.53802 16.7023 3.53802 16.7023 3.53802C16.7022 3.53802 16.7021 3.53802 16.7021 3.53802C16.702 3.53802 16.7019 3.53802 16.7019 3.53802C16.7018 3.53802 16.7017 3.53802 16.7017 3.53802C16.7016 3.53802 16.7015 3.53802 16.7015 3.53802C16.7014 3.53802 16.7013 3.53802 16.7013 3.53802C16.7012 3.53802 16.7011 3.53802 16.7011 3.53802C16.701 3.53802 16.7009 3.53802 16.7009 3.53802C16.7008 3.53802 16.7008 3.53802 16.7007 3.53802C16.7006 3.53802 16.7006 3.53802 16.7005 3.53802C16.7004 3.53802 16.7004 3.53802 16.7003 3.53802C16.7002 3.53802 16.7002 3.53802 16.7001 3.53802C16.7 3.53802 16.7 3.53802 16.6999 3.53802C16.6998 3.53802 16.6998 3.53802 16.6997 3.53802C16.6996 3.53802 16.6996 3.53802 16.6995 3.53802C16.6994 3.53802 16.6994 3.53802 16.6993 3.53802C16.6992 3.53802 16.6992 3.53802 16.6991 3.53802C16.699 3.53802 16.699 3.53802 16.6989 3.53802C16.6988 3.53802 16.6988 3.53802 16.6987 3.53802C16.6986 3.53802 16.6986 3.53802 16.6985 3.53802C16.6984 3.53802 16.6984 3.53802 16.6983 3.53802C16.6982 3.53802 16.6982 3.53802 16.6981 3.53802C16.698 3.53802 16.698 3.53802 16.6979 3.53802C16.6979 3.53802 16.6978 3.53802 16.6977 3.53802C16.6977 3.53802 16.6976 3.53802 16.6975 3.53802C16.6975 3.53802 16.6974 3.53802 16.6973 3.53802C16.6973 3.53802 16.6972 3.53802 16.6971 3.53802C16.6971 3.53802 16.697 3.53802 16.6969 3.53802C16.6969 3.53802 16.6968 3.53802 16.6967 3.53802C16.6967 3.53802 16.6966 3.53802 16.6965 3.53802C16.6965 3.53802 16.6964 3.53802 16.6963 3.53802C16.6963 3.53802 16.6962 3.53802 16.6961 3.53802C16.6961 3.53802 16.696 3.53802 16.6959 3.53802C16.6959 3.53802 16.6958 3.53802 16.6957 3.53802C16.6957 3.53802 16.6956 3.53802 16.6955 3.53802C16.6955 3.53802 16.6954 3.53802 16.6953 3.53802C16.6953 3.53802 16.6952 3.53802 16.6951 3.53802C16.6951 3.53802 16.695 3.53802 16.695 3.53802C16.6949 3.53802 16.6948 3.53802 16.6948 3.53802C16.6947 3.53802 16.6946 3.53802 16.6946 3.53802C16.6945 3.53802 16.6944 3.53802 16.6944 3.53802C16.6943 3.53802 16.6942 3.53802 16.6942 3.53802C16.6941 3.53802 16.694 3.53802 16.694 3.53802C16.6939 3.53802 16.6938 3.53802 16.6938 3.53802C16.6937 3.53802 16.6936 3.53802 16.6936 3.53802C16.6935 3.53802 16.6934 3.53802 16.6934 3.53802C16.6933 3.53802 16.6932 3.53802 16.6932 3.53802C16.6931 3.53802 16.693 3.53802 16.693 3.53802C16.6929 3.53802 16.6928 3.53802 16.6928 3.53802C16.6927 3.53802 16.6926 3.53802 16.6926 3.53802C16.6925 3.53802 16.6924 3.53802 16.6924 3.53802C16.6923 3.53802 16.6922 3.53802 16.6922 3.53802C16.6921 3.53802 16.692 3.53802 16.692 3.53802C16.6919 3.53802 16.6919 3.53802 16.6918 3.53802C16.6917 3.53802 16.6917 3.53802 16.6916 3.53802C16.6915 3.53802 16.6915 3.53802 16.6914 3.53802C16.6913 3.53802 16.6913 3.53802 16.6912 3.53802C16.6911 3.53802 16.6911 3.53802 16.691 3.53802C16.6909 3.53802 16.6909 3.53802 16.6908 3.53802C16.6907 3.53802 16.6907 3.53802 16.6906 3.53802C16.6905 3.53802 16.6905 3.53802 16.6904 3.53802C16.6903 3.53802 16.6903 3.53802 16.6902 3.53802C16.6901 3.53802 16.6901 3.53802 16.69 3.53802C16.6899 3.53802 16.6899 3.53802 16.6898 3.53802C16.6897 3.53802 16.6897 3.53802 16.6896 3.53802C16.6895 3.53802 16.6895 3.53802 16.6894 3.53802C16.6893 3.53802 16.6893 3.53802 16.6892 3.53802C16.6891 3.53802 16.6891 3.53802 16.689 3.53802C16.689 3.53802 16.6889 3.53802 16.6888 3.53802C16.6888 3.53802 16.6887 3.53802 16.6886 3.53802C16.6886 3.53802 16.6885 3.53802 16.6884 3.53802C16.6884 3.53802 16.6883 3.53802 16.6882 3.53802C16.6882 3.53802 16.6881 3.53802 16.688 3.53802C16.688 3.53802 16.6879 3.53802 16.6878 3.53802C16.6878 3.53802 16.6877 3.53802 16.6876 3.53802C16.6876 3.53802 16.6875 3.53802 16.6874 3.53802C16.6874 3.53802 16.6873 3.53802 16.6872 3.53802C16.6872 3.53802 16.6871 3.53802 16.687 3.53802C16.687 3.53802 16.6869 3.53802 16.6868 3.53802C16.6868 3.53802 16.6867 3.53802 16.6866 3.53802C16.6866 3.53802 16.6865 3.53802 16.6864 3.53802C16.6864 3.53802 16.6863 3.53802 16.6862 3.53802C16.6862 3.53802 16.6861 3.53802 16.6861 3.53802C16.686 3.53802 16.6859 3.53802 16.6859 3.53802C16.6858 3.53802 16.6857 3.53802 16.6857 3.53802C16.6856 3.53802 16.6855 3.53802 16.6855 3.53802C16.6854 3.53802 16.6853 3.53802 16.6853 3.53802C16.6852 3.53802 16.6851 3.53802 16.6851 3.53802C16.685 3.53802 16.6849 3.53802 16.6849 3.53802C16.6848 3.53802 16.6847 3.53802 16.6847 3.53802C16.6846 3.53802 16.6845 3.53802 16.6845 3.53802C16.6844 3.53802 16.6843 3.53802 16.6843 3.53802C16.6842 3.53802 16.6841 3.53802 16.6841 3.53802C16.684 3.53802 16.6839 3.53802 16.6839 3.53802C16.6838 3.53802 16.6837 3.53802 16.6837 3.53802C16.6836 3.53802 16.6835 3.53802 16.6835 3.53802C16.6834 3.53802 16.6833 3.53802 16.6833 3.53802C16.6832 3.53802 16.6832 3.53802 16.6831 3.53802C16.683 3.53802 16.683 3.53802 16.6829 3.53802C16.6828 3.53802 16.6828 3.53802 16.6827 3.53802C16.6826 3.53802 16.6826 3.53802 16.6825 3.53802C16.6824 3.53802 16.6824 3.53802 16.6823 3.53802C16.6822 3.53802 16.6822 3.53802 16.6821 3.53802C16.682 3.53802 16.682 3.53802 16.6819 3.53802C16.6818 3.53802 16.6818 3.53802 16.6817 3.53802C16.6816 3.53802 16.6816 3.53802 16.6815 3.53802C16.6814 3.53802 16.6814 3.53802 16.6813 3.53802C16.6812 3.53802 16.6812 3.53802 16.6811 3.53802C16.681 3.53802 16.681 3.53802 16.6809 3.53802C16.6808 3.53802 16.6808 3.53802 16.6807 3.53802C16.6806 3.53802 16.6806 3.53802 16.6805 3.53802C16.6804 3.53802 16.6804 3.53802 16.6803 3.53802C16.6802 3.53802 16.6802 3.53802 16.6801 3.53802C16.6801 3.53802 16.68 3.53802 16.6799 3.53802C16.6799 3.53802 16.6798 3.53802 16.6797 3.53802C16.6797 3.53802 16.6796 3.53802 16.6795 3.53802C16.6795 3.53802 16.6794 3.53802 16.6793 3.53802C16.6793 3.53802 16.6792 3.53802 16.6791 3.53802C16.6791 3.53802 16.679 3.53802 16.6789 3.53802C16.6789 3.53802 16.6788 3.53802 16.6787 3.53802C16.6787 3.53802 16.6786 3.53802 16.6785 3.53802C16.6785 3.53802 16.6784 3.53802 16.6783 3.53802C16.6783 3.53802 16.6782 3.53802 16.6781 3.53802C16.6781 3.53802 16.678 3.53802 16.6779 3.53802C16.6779 3.53802 16.6778 3.53802 16.6777 3.53802C16.6777 3.53802 16.6776 3.53802 16.6775 3.53802C16.6775 3.53802 16.6774 3.53802 16.6773 3.53802C16.6773 3.53802 16.6772 3.53802 16.6772 3.53802C16.6771 3.53802 16.677 3.53802 16.677 3.53802C16.6769 3.53802 16.6768 3.53802 16.6768 3.53802C16.6767 3.53802 16.6766 3.53802 16.6766 3.53802C16.6765 3.53802 16.6764 3.53802 16.6764 3.53802C16.6763 3.53802 16.6762 3.53802 16.6762 3.53802C16.6761 3.53802 16.676 3.53802 16.676 3.53802C16.6759 3.53802 16.6758 3.53802 16.6758 3.53802C16.6757 3.53802 16.6756 3.53802 16.6756 3.53802C16.6755 3.53802 16.6754 3.53802 16.6754 3.53802C16.6753 3.53802 16.6752 3.53802 16.6752 3.53802C16.6751 3.53802 16.675 3.53802 16.675 3.53802C16.6749 3.53802 16.6748 3.53802 16.6748 3.53802C16.6747 3.53802 16.6746 3.53802 16.6746 3.53802C16.6745 3.53802 16.6744 3.53802 16.6744 3.53802C16.6743 3.53802 16.6743 3.53802 16.6742 3.53802C16.6741 3.53802 16.6741 3.53802 16.674 3.53802C16.6739 3.53802 16.6739 3.53802 16.6738 3.53802C16.6737 3.53802 16.6737 3.53802 16.6736 3.53802C16.6735 3.53802 16.6735 3.53802 16.6734 3.53802C16.6733 3.53802 16.6733 3.53802 16.6732 3.53802C16.6731 3.53802 16.6731 3.53802 16.673 3.53802C16.6729 3.53802 16.6729 3.53802 16.6728 3.53802C16.6727 3.53802 16.6727 3.53802 16.6726 3.53802C16.6725 3.53802 16.6725 3.53802 16.6724 3.53802C16.6723 3.53802 16.6723 3.53802 16.6722 3.53802C16.6721 3.53802 16.6721 3.53802 16.672 3.53802C16.6719 3.53802 16.6719 3.53802 16.6718 3.53802C16.6717 3.53802 16.6717 3.53802 16.6716 3.53802C16.6715 3.53802 16.6715 3.53802 16.6714 3.53802C16.6713 3.53802 16.6713 3.53802 16.6712 3.53802C16.6712 3.53802 16.6711 3.53802 16.671 3.53802C16.671 3.53802 16.6709 3.53802 16.6708 3.53802C16.6708 3.53802 16.6707 3.53802 16.6706 3.53802C16.6706 3.53802 16.6705 3.53802 16.6704 3.53802C16.6704 3.53802 16.6703 3.53802 16.6702 3.53802C16.6702 3.53802 16.6701 3.53802 16.67 3.53802C16.67 3.53802 16.6699 3.53802 16.6698 3.53802C16.6698 3.53802 16.6697 3.53802 16.6696 3.53802C16.6696 3.53802 16.6695 3.53802 16.6694 3.53802C16.6694 3.53802 16.6693 3.53802 16.6692 3.53802C16.6692 3.53802 16.6691 3.53802 16.669 3.53802C16.669 3.53802 16.6689 3.53802 16.6688 3.53802C16.6688 3.53802 16.6687 3.53802 16.6686 3.53802C16.6686 3.53802 16.6685 3.53802 16.6684 3.53802C16.6684 3.53802 16.6683 3.53802 16.6683 3.53802C16.6682 3.53802 16.6681 3.53802 16.6681 3.53802C16.668 3.53802 16.6679 3.53802 16.6679 3.53802C16.6678 3.53802 16.6677 3.53802 16.6677 3.53802C16.6676 3.53802 16.6675 3.53802 16.6675 3.53802C16.6674 3.53802 16.6673 3.53802 16.6673 3.53802C16.6672 3.53802 16.6671 3.53802 16.6671 3.53802C16.667 3.53802 16.6669 3.53802 16.6669 3.53802C16.6668 3.53802 16.6667 3.53802 16.6667 3.53802C16.6666 3.53802 16.6665 3.53802 16.6665 3.53802C16.6664 3.53802 16.6663 3.53802 16.6663 3.53802C16.6662 3.53802 16.6661 3.53802 16.6661 3.53802C16.666 3.53802 16.6659 3.53802 16.6659 3.53802C16.6658 3.53802 16.6657 3.53802 16.6657 3.53802C16.6656 3.53802 16.6655 3.53802 16.6655 3.53802C16.6654 3.53802 16.6653 3.53802 16.6653 3.53802C16.6652 3.53802 16.6652 3.53802 16.6651 3.53802C16.665 3.53802 16.665 3.53802 16.6649 3.53802C16.6648 3.53802 16.6648 3.53802 16.6647 3.53802C16.6646 3.53802 16.6646 3.53802 16.6645 3.53802C16.6644 3.53802 16.6644 3.53802 16.6643 3.53802C16.6642 3.53802 16.6642 3.53802 16.6641 3.53802C16.664 3.53802 16.664 3.53802 16.6639 3.53802C16.6638 3.53802 16.6638 3.53802 16.6637 3.53802C16.6636 3.53802 16.6636 3.53802 16.6635 3.53802C16.6634 3.53802 16.6634 3.53802 16.6633 3.53802C16.6632 3.53802 16.6632 3.53802 16.6631 3.53802C16.663 3.53802 16.663 3.53802 16.6629 3.53802C16.6628 3.53802 16.6628 3.53802 16.6627 3.53802C16.6626 3.53802 16.6626 3.53802 16.6625 3.53802C16.6624 3.53802 16.6624 3.53802 16.6623 3.53802C16.6623 3.53802 16.6622 3.53802 16.6621 3.53802C16.6621 3.53802 16.662 3.53802 16.6619 3.53802C16.6619 3.53802 16.6618 3.53802 16.6617 3.53802C16.6617 3.53802 16.6616 3.53802 16.6615 3.53802C16.6615 3.53802 16.6614 3.53802 16.6613 3.53802C16.6613 3.53802 16.6612 3.53802 16.6611 3.53802C16.6611 3.53802 16.661 3.53802 16.6609 3.53802C16.6609 3.53802 16.6608 3.53802 16.6607 3.53802C16.6607 3.53802 16.6606 3.53802 16.6605 3.53802C16.6605 3.53802 16.6604 3.53802 16.6603 3.53802C16.6603 3.53802 16.6602 3.53802 16.6601 3.53802C16.6601 3.53802 16.66 3.53802 16.6599 3.53802C16.6599 3.53802 16.6598 3.53802 16.6597 3.53802C16.6597 3.53802 16.6596 3.53802 16.6595 3.53802C16.6595 3.53802 16.6594 3.53802 16.6594 3.53802C16.6593 3.53802 16.6592 3.53802 16.6592 3.53802C16.6591 3.53802 16.659 3.53802 16.659 3.53802C16.6589 3.53802 16.6588 3.53802 16.6588 3.53802C16.6587 3.53802 16.6586 3.53802 16.6586 3.53802C16.6585 3.53802 16.6584 3.53802 16.6584 3.53802C16.6583 3.53802 16.6582 3.53802 16.6582 3.53802C16.6581 3.53802 16.658 3.53802 16.658 3.53802C16.6579 3.53802 16.6578 3.53802 16.6578 3.53802C16.6577 3.53802 16.6576 3.53802 16.6576 3.53802C16.6575 3.53802 16.6574 3.53802 16.6574 3.53802C16.6573 3.53802 16.6572 3.53802 16.6572 3.53802C16.6571 3.53802 16.657 3.53802 16.657 3.53802C16.6569 3.53802 16.6568 3.53802 16.6568 3.53802C16.6567 3.53802 16.6566 3.53802 16.6566 3.53802C16.6565 3.53802 16.6565 3.53802 16.6564 3.53802C16.6563 3.53802 16.6563 3.53802 16.6562 3.53802C16.6561 3.53802 16.6561 3.53802 16.656 3.53802C16.6559 3.53802 16.6559 3.53802 16.6558 3.53802C16.6557 3.53802 16.6557 3.53802 16.6556 3.53802C16.6555 3.53802 16.6555 3.53802 16.6554 3.53802C16.6553 3.53802 16.6553 3.53802 16.6552 3.53802C16.6551 3.53802 16.6551 3.53802 16.655 3.53802C16.6549 3.53802 16.6549 3.53802 16.6548 3.53802C16.6547 3.53802 16.6547 3.53802 16.6546 3.53802C16.6545 3.53802 16.6545 3.53802 16.6544 3.53802C16.6543 3.53802 16.6543 3.53802 16.6542 3.53802C16.6541 3.53802 16.6541 3.53802 16.654 3.53802C16.6539 3.53802 16.6539 3.53802 16.6538 3.53802C16.6537 3.53802 16.6537 3.53802 16.6536 3.53802C16.6536 3.53802 16.6535 3.53802 16.6534 3.53802C16.6534 3.53802 16.6533 3.53802 16.6532 3.53802C16.6532 3.53802 16.6531 3.53802 16.653 3.53802C16.653 3.53802 16.6529 3.53802 16.6528 3.53802C16.6528 3.53802 16.6527 3.53802 16.6526 3.53802C16.6526 3.53802 16.6525 3.53802 16.6524 3.53802C16.6524 3.53802 16.6523 3.53802 16.6522 3.53802C16.6522 3.53802 16.6521 3.53802 16.652 3.53802C16.652 3.53802 16.6519 3.53802 16.6518 3.53802C16.6518 3.53802 16.6517 3.53802 16.6516 3.53802C16.6516 3.53802 16.6515 3.53802 16.6514 3.53802C16.6514 3.53802 16.6513 3.53802 16.6512 3.53802C16.6512 3.53802 16.6511 3.53802 16.651 3.53802C16.651 3.53802 16.6509 3.53802 16.6508 3.53802C16.6508 3.53802 16.6507 3.53802 16.6506 3.53802C16.6506 3.53802 16.6505 3.53802 16.6505 3.53802C16.6504 3.53802 16.6503 3.53802 16.6503 3.53802C16.6502 3.53802 16.6501 3.53802 16.6501 3.53802C16.65 3.53802 16.6499 3.53802 16.6499 3.53802C16.6498 3.53802 16.6497 3.53802 16.6497 3.53802C16.6496 3.53802 16.6495 3.53802 16.6495 3.53802C16.6494 3.53802 16.6493 3.53802 16.6493 3.53802C16.6492 3.53802 16.6491 3.53802 16.6491 3.53802C16.649 3.53802 16.6489 3.53802 16.6489 3.53802C16.6488 3.53802 16.6487 3.53802 16.6487 3.53802C16.6486 3.53802 16.6485 3.53802 16.6485 3.53802C16.6484 3.53802 16.6483 3.53802 16.6483 3.53802C16.6482 3.53802 16.6481 3.53802 16.6481 3.53802C16.648 3.53802 16.6479 3.53802 16.6479 3.53802C16.6478 3.53802 16.6477 3.53802 16.6477 3.53802C16.6476 3.53802 16.6476 3.53802 16.6475 3.53802C16.6474 3.53802 16.6474 3.53802 16.6473 3.53802C16.6472 3.53802 16.6472 3.53802 16.6471 3.53802C16.647 3.53802 16.647 3.53802 16.6469 3.53802C16.6468 3.53802 16.6468 3.53802 16.6467 3.53802C16.6466 3.53802 16.6466 3.53802 16.6465 3.53802C16.6464 3.53802 16.6464 3.53802 16.6463 3.53802C16.6462 3.53802 16.6462 3.53802 16.6461 3.53802C16.646 3.53802 16.646 3.53802 16.6459 3.53802C16.6458 3.53802 16.6458 3.53802 16.6457 3.53802C16.6456 3.53802 16.6456 3.53802 16.6455 3.53802C16.6454 3.53802 16.6454 3.53802 16.6453 3.53802C16.6452 3.53802 16.6452 3.53802 16.6451 3.53802C16.645 3.53802 16.645 3.53802 16.6449 3.53802C16.6448 3.53802 16.6448 3.53802 16.6447 3.53802C16.6446 3.53802 16.6446 3.53802 16.6445 3.53802C16.6445 3.53802 16.6444 3.53802 16.6443 3.53802C16.6443 3.53802 16.6442 3.53802 16.6441 3.53802C16.6441 3.53802 16.644 3.53802 16.6439 3.53802C16.6439 3.53802 16.6438 3.53802 16.6437 3.53802C16.6437 3.53802 16.6436 3.53802 16.6435 3.53802C16.6435 3.53802 16.6434 3.53802 16.6433 3.53802C16.6433 3.53802 16.6432 3.53802 16.6431 3.53802C16.6431 3.53802 16.643 3.53802 16.6429 3.53802C16.6429 3.53802 16.6428 3.53802 16.6427 3.53802C16.6427 3.53802 16.6426 3.53802 16.6425 3.53802C16.6425 3.53802 16.6424 3.53802 16.6423 3.53802C16.6423 3.53802 16.6422 3.53802 16.6421 3.53802C16.6421 3.53802 16.642 3.53802 16.6419 3.53802C16.6419 3.53802 16.6418 3.53802 16.6417 3.53802C16.6417 3.53802 16.6416 3.53802 16.6416 3.53802C16.6415 3.53802 16.6414 3.53802 16.6414 3.53802C16.6413 3.53802 16.6412 3.53802 16.6412 3.53802C16.6411 3.53802 16.641 3.53802 16.641 3.53802C16.6409 3.53802 16.6408 3.53802 16.6408 3.53802C16.6407 3.53802 16.6406 3.53802 16.6406 3.53802C16.6405 3.53802 16.6404 3.53802 16.6404 3.53802C16.6403 3.53802 16.6402 3.53802 16.6402 3.53802C16.6401 3.53802 16.64 3.53802 16.64 3.53802C16.6399 3.53802 16.6398 3.53802 16.6398 3.53802C16.6397 3.53802 16.6396 3.53802 16.6396 3.53802C16.6395 3.53802 16.6394 3.53802 16.6394 3.53802C16.6393 3.53802 16.6392 3.53802 16.6392 3.53802C16.6391 3.53802 16.639 3.53802 16.639 3.53802C16.6389 3.53802 16.6388 3.53802 16.6388 3.53802C16.6387 3.53802 16.6387 3.53802 16.6386 3.53802C16.6385 3.53802 16.6385 3.53802 16.6384 3.53802C16.6383 3.53802 16.6383 3.53802 16.6382 3.53802C16.6381 3.53802 16.6381 3.53802 16.638 3.53802C16.6379 3.53802 16.6379 3.53802 16.6378 3.53802C16.6377 3.53802 16.6377 3.53802 16.6376 3.53802C16.6375 3.53802 16.6375 3.53802 16.6374 3.53802C16.6373 3.53802 16.6373 3.53802 16.6372 3.53802C16.6371 3.53802 16.6371 3.53802 16.637 3.53802C16.6369 3.53802 16.6369 3.53802 16.6368 3.53802C16.6367 3.53802 16.6367 3.53802 16.6366 3.53802C16.6365 3.53802 16.6365 3.53802 16.6364 3.53802C16.6363 3.53802 16.6363 3.53802 16.6362 3.53802C16.6361 3.53802 16.6361 3.53802 16.636 3.53802C16.6359 3.53802 16.6359 3.53802 16.6358 3.53802C16.6357 3.53802 16.6357 3.53802 16.6356 3.53802C16.6356 3.53802 16.6355 3.53802 16.6354 3.53802C16.6354 3.53802 16.6353 3.53802 16.6352 3.53802C16.6352 3.53802 16.6351 3.53802 16.635 3.53802C16.635 3.53802 16.6349 3.53802 16.6348 3.53802C16.6348 3.53802 16.6347 3.53802 16.6346 3.53802C16.6346 3.53802 16.6345 3.53802 16.6344 3.53802C16.6344 3.53802 16.6343 3.53802 16.6342 3.53802C16.6342 3.53802 16.6341 3.53802 16.634 3.53802C16.634 3.53802 16.6339 3.53802 16.6338 3.53802C16.6338 3.53802 16.6337 3.53802 16.6336 3.53802C16.6336 3.53802 16.6335 3.53802 16.6334 3.53802C16.6334 3.53802 16.6333 3.53802 16.6332 3.53802C16.6332 3.53802 16.6331 3.53802 16.633 3.53802C16.633 3.53802 16.6329 3.53802 16.6328 3.53802C16.6328 3.53802 16.6327 3.53802 16.6327 3.53802C16.6326 3.53802 16.6325 3.53802 16.6325 3.53802C16.6324 3.53802 16.6323 3.53802 16.6323 3.53802C16.6322 3.53802 16.6321 3.53802 16.6321 3.53802C16.632 3.53802 16.6319 3.53802 16.6319 3.53802C16.6318 3.53802 16.6317 3.53802 16.6317 3.53802C16.6316 3.53802 16.6315 3.53802 16.6315 3.53802C16.6314 3.53802 16.6313 3.53802 16.6313 3.53802C16.6312 3.53802 16.6311 3.53802 16.6311 3.53802C16.631 3.53802 16.6309 3.53802 16.6309 3.53802C16.6308 3.53802 16.6307 3.53802 16.6307 3.53802C16.6306 3.53802 16.6305 3.53802 16.6305 3.53802C16.6304 3.53802 16.6303 3.53802 16.6303 3.53802C16.6302 3.53802 16.6301 3.53802 16.6301 3.53802C16.63 3.53802 16.6299 3.53802 16.6299 3.53802C16.6298 3.53802 16.6298 3.53802 16.6297 3.53802C16.6296 3.53802 16.6296 3.53802 16.6295 3.53802C16.6294 3.53802 16.6294 3.53802 16.6293 3.53802C16.6292 3.53802 16.6292 3.53802 16.6291 3.53802C16.629 3.53802 16.629 3.53802 16.6289 3.53802C16.6288 3.53802 16.6288 3.53802 16.6287 3.53802C16.6286 3.53802 16.6286 3.53802 16.6285 3.53802C16.6284 3.53802 16.6284 3.53802 16.6283 3.53802C16.6282 3.53802 16.6282 3.53802 16.6281 3.53802C16.628 3.53802 16.628 3.53802 16.6279 3.53802C16.6278 3.53802 16.6278 3.53802 16.6277 3.53802C16.6276 3.53802 16.6276 3.53802 16.6275 3.53802C16.6274 3.53802 16.6274 3.53802 16.6273 3.53802C16.6272 3.53802 16.6272 3.53802 16.6271 3.53802C16.627 3.53802 16.627 3.53802 16.6269 3.53802C16.6269 3.53802 16.6268 3.53802 16.6267 3.53802C16.6267 3.53802 16.6266 3.53802 16.6265 3.53802C16.6265 3.53802 16.6264 3.53802 16.6263 3.53802C16.6263 3.53802 16.6262 3.53802 16.6261 3.53802C16.6261 3.53802 16.626 3.53802 16.6259 3.53802C16.6259 3.53802 16.6258 3.53802 16.6257 3.53802C16.6257 3.53802 16.6256 3.53802 16.6255 3.53802C16.6255 3.53802 16.6254 3.53802 16.6253 3.53802C16.6253 3.53802 16.6252 3.53802 16.6251 3.53802C16.6251 3.53802 16.625 3.53802 16.6249 3.53802C16.6249 3.53802 16.6248 3.53802 16.6247 3.53802C16.6247 3.53802 16.6246 3.53802 16.6245 3.53802C16.6245 3.53802 16.6244 3.53802 16.6243 3.53802C16.6243 3.53802 16.6242 3.53802 16.6241 3.53802C16.6241 3.53802 16.624 3.53802 16.6239 3.53802C16.6239 3.53802 16.6238 3.53802 16.6238 3.53802C16.6237 3.53802 16.6236 3.53802 16.6236 3.53802C16.6235 3.53802 16.6234 3.53802 16.6234 3.53802C16.6233 3.53802 16.6232 3.53802 16.6232 3.53802C16.6231 3.53802 16.623 3.53802 16.623 3.53802C16.6229 3.53802 16.6228 3.53802 16.6228 3.53802C16.6227 3.53802 16.6226 3.53802 16.6226 3.53802C16.6225 3.53802 16.6224 3.53802 16.6224 3.53802C16.6223 3.53802 16.6222 3.53802 16.6222 3.53802C16.6221 3.53802 16.622 3.53802 16.622 3.53802C16.6219 3.53802 16.6218 3.53802 16.6218 3.53802C16.6217 3.53802 16.6216 3.53802 16.6216 3.53802C16.6215 3.53802 16.6214 3.53802 16.6214 3.53802C16.6213 3.53802 16.6212 3.53802 16.6212 3.53802C16.6211 3.53802 16.621 3.53802 16.621 3.53802C16.6209 3.53802 16.6209 3.53802 16.6208 3.53802C16.6207 3.53802 16.6207 3.53802 16.6206 3.53802C16.6205 3.53802 16.6205 3.53802 16.6204 3.53802C16.6203 3.53802 16.6203 3.53802 16.6202 3.53802C16.6201 3.53802 16.6201 3.53802 16.62 3.53802C16.6199 3.53802 16.6199 3.53802 16.6198 3.53802C16.6197 3.53802 16.6197 3.53802 16.6196 3.53802C16.6195 3.53802 16.6195 3.53802 16.6194 3.53802C16.6193 3.53802 16.6193 3.53802 16.6192 3.53802C16.6191 3.53802 16.6191 3.53802 16.619 3.53802C16.6189 3.53802 16.6189 3.53802 16.6188 3.53802C16.6187 3.53802 16.6187 3.53802 16.6186 3.53802C16.6185 3.53802 16.6185 3.53802 16.6184 3.53802C16.6183 3.53802 16.6183 3.53802 16.6182 3.53802C16.6181 3.53802 16.6181 3.53802 16.618 3.53802C16.618 3.53802 16.6179 3.53802 16.6178 3.53802C16.6178 3.53802 16.6177 3.53802 16.6176 3.53802C16.6176 3.53802 16.6175 3.53802 16.6174 3.53802C16.6174 3.53802 16.6173 3.53802 16.6172 3.53802C16.6172 3.53802 16.6171 3.53802 16.617 3.53802C16.617 3.53802 16.6169 3.53802 16.6168 3.53802C16.6168 3.53802 16.6167 3.53802 16.6166 3.53802C16.6166 3.53802 16.6165 3.53802 16.6164 3.53802C16.6164 3.53802 16.6163 3.53802 16.6162 3.53802C16.6162 3.53802 16.6161 3.53802 16.616 3.53802V4.53802C16.6161 4.53802 16.6162 4.53802 16.6162 4.53802C16.6163 4.53802 16.6164 4.53802 16.6164 4.53802C16.6165 4.53802 16.6166 4.53802 16.6166 4.53802C16.6167 4.53802 16.6168 4.53802 16.6168 4.53802C16.6169 4.53802 16.617 4.53802 16.617 4.53802C16.6171 4.53802 16.6172 4.53802 16.6172 4.53802C16.6173 4.53802 16.6174 4.53802 16.6174 4.53802C16.6175 4.53802 16.6176 4.53802 16.6176 4.53802C16.6177 4.53802 16.6178 4.53802 16.6178 4.53802C16.6179 4.53802 16.618 4.53802 16.618 4.53802C16.6181 4.53802 16.6181 4.53802 16.6182 4.53802C16.6183 4.53802 16.6183 4.53802 16.6184 4.53802C16.6185 4.53802 16.6185 4.53802 16.6186 4.53802C16.6187 4.53802 16.6187 4.53802 16.6188 4.53802C16.6189 4.53802 16.6189 4.53802 16.619 4.53802C16.6191 4.53802 16.6191 4.53802 16.6192 4.53802C16.6193 4.53802 16.6193 4.53802 16.6194 4.53802C16.6195 4.53802 16.6195 4.53802 16.6196 4.53802C16.6197 4.53802 16.6197 4.53802 16.6198 4.53802C16.6199 4.53802 16.6199 4.53802 16.62 4.53802C16.6201 4.53802 16.6201 4.53802 16.6202 4.53802C16.6203 4.53802 16.6203 4.53802 16.6204 4.53802C16.6205 4.53802 16.6205 4.53802 16.6206 4.53802C16.6207 4.53802 16.6207 4.53802 16.6208 4.53802C16.6209 4.53802 16.6209 4.53802 16.621 4.53802C16.621 4.53802 16.6211 4.53802 16.6212 4.53802C16.6212 4.53802 16.6213 4.53802 16.6214 4.53802C16.6214 4.53802 16.6215 4.53802 16.6216 4.53802C16.6216 4.53802 16.6217 4.53802 16.6218 4.53802C16.6218 4.53802 16.6219 4.53802 16.622 4.53802C16.622 4.53802 16.6221 4.53802 16.6222 4.53802C16.6222 4.53802 16.6223 4.53802 16.6224 4.53802C16.6224 4.53802 16.6225 4.53802 16.6226 4.53802C16.6226 4.53802 16.6227 4.53802 16.6228 4.53802C16.6228 4.53802 16.6229 4.53802 16.623 4.53802C16.623 4.53802 16.6231 4.53802 16.6232 4.53802C16.6232 4.53802 16.6233 4.53802 16.6234 4.53802C16.6234 4.53802 16.6235 4.53802 16.6236 4.53802C16.6236 4.53802 16.6237 4.53802 16.6238 4.53802C16.6238 4.53802 16.6239 4.53802 16.6239 4.53802C16.624 4.53802 16.6241 4.53802 16.6241 4.53802C16.6242 4.53802 16.6243 4.53802 16.6243 4.53802C16.6244 4.53802 16.6245 4.53802 16.6245 4.53802C16.6246 4.53802 16.6247 4.53802 16.6247 4.53802C16.6248 4.53802 16.6249 4.53802 16.6249 4.53802C16.625 4.53802 16.6251 4.53802 16.6251 4.53802C16.6252 4.53802 16.6253 4.53802 16.6253 4.53802C16.6254 4.53802 16.6255 4.53802 16.6255 4.53802C16.6256 4.53802 16.6257 4.53802 16.6257 4.53802C16.6258 4.53802 16.6259 4.53802 16.6259 4.53802C16.626 4.53802 16.6261 4.53802 16.6261 4.53802C16.6262 4.53802 16.6263 4.53802 16.6263 4.53802C16.6264 4.53802 16.6265 4.53802 16.6265 4.53802C16.6266 4.53802 16.6267 4.53802 16.6267 4.53802C16.6268 4.53802 16.6269 4.53802 16.6269 4.53802C16.627 4.53802 16.627 4.53802 16.6271 4.53802C16.6272 4.53802 16.6272 4.53802 16.6273 4.53802C16.6274 4.53802 16.6274 4.53802 16.6275 4.53802C16.6276 4.53802 16.6276 4.53802 16.6277 4.53802C16.6278 4.53802 16.6278 4.53802 16.6279 4.53802C16.628 4.53802 16.628 4.53802 16.6281 4.53802C16.6282 4.53802 16.6282 4.53802 16.6283 4.53802C16.6284 4.53802 16.6284 4.53802 16.6285 4.53802C16.6286 4.53802 16.6286 4.53802 16.6287 4.53802C16.6288 4.53802 16.6288 4.53802 16.6289 4.53802C16.629 4.53802 16.629 4.53802 16.6291 4.53802C16.6292 4.53802 16.6292 4.53802 16.6293 4.53802C16.6294 4.53802 16.6294 4.53802 16.6295 4.53802C16.6296 4.53802 16.6296 4.53802 16.6297 4.53802C16.6298 4.53802 16.6298 4.53802 16.6299 4.53802C16.6299 4.53802 16.63 4.53802 16.6301 4.53802C16.6301 4.53802 16.6302 4.53802 16.6303 4.53802C16.6303 4.53802 16.6304 4.53802 16.6305 4.53802C16.6305 4.53802 16.6306 4.53802 16.6307 4.53802C16.6307 4.53802 16.6308 4.53802 16.6309 4.53802C16.6309 4.53802 16.631 4.53802 16.6311 4.53802C16.6311 4.53802 16.6312 4.53802 16.6313 4.53802C16.6313 4.53802 16.6314 4.53802 16.6315 4.53802C16.6315 4.53802 16.6316 4.53802 16.6317 4.53802C16.6317 4.53802 16.6318 4.53802 16.6319 4.53802C16.6319 4.53802 16.632 4.53802 16.6321 4.53802C16.6321 4.53802 16.6322 4.53802 16.6323 4.53802C16.6323 4.53802 16.6324 4.53802 16.6325 4.53802C16.6325 4.53802 16.6326 4.53802 16.6327 4.53802C16.6327 4.53802 16.6328 4.53802 16.6328 4.53802C16.6329 4.53802 16.633 4.53802 16.633 4.53802C16.6331 4.53802 16.6332 4.53802 16.6332 4.53802C16.6333 4.53802 16.6334 4.53802 16.6334 4.53802C16.6335 4.53802 16.6336 4.53802 16.6336 4.53802C16.6337 4.53802 16.6338 4.53802 16.6338 4.53802C16.6339 4.53802 16.634 4.53802 16.634 4.53802C16.6341 4.53802 16.6342 4.53802 16.6342 4.53802C16.6343 4.53802 16.6344 4.53802 16.6344 4.53802C16.6345 4.53802 16.6346 4.53802 16.6346 4.53802C16.6347 4.53802 16.6348 4.53802 16.6348 4.53802C16.6349 4.53802 16.635 4.53802 16.635 4.53802C16.6351 4.53802 16.6352 4.53802 16.6352 4.53802C16.6353 4.53802 16.6354 4.53802 16.6354 4.53802C16.6355 4.53802 16.6356 4.53802 16.6356 4.53802C16.6357 4.53802 16.6357 4.53802 16.6358 4.53802C16.6359 4.53802 16.6359 4.53802 16.636 4.53802C16.6361 4.53802 16.6361 4.53802 16.6362 4.53802C16.6363 4.53802 16.6363 4.53802 16.6364 4.53802C16.6365 4.53802 16.6365 4.53802 16.6366 4.53802C16.6367 4.53802 16.6367 4.53802 16.6368 4.53802C16.6369 4.53802 16.6369 4.53802 16.637 4.53802C16.6371 4.53802 16.6371 4.53802 16.6372 4.53802C16.6373 4.53802 16.6373 4.53802 16.6374 4.53802C16.6375 4.53802 16.6375 4.53802 16.6376 4.53802C16.6377 4.53802 16.6377 4.53802 16.6378 4.53802C16.6379 4.53802 16.6379 4.53802 16.638 4.53802C16.6381 4.53802 16.6381 4.53802 16.6382 4.53802C16.6383 4.53802 16.6383 4.53802 16.6384 4.53802C16.6385 4.53802 16.6385 4.53802 16.6386 4.53802C16.6387 4.53802 16.6387 4.53802 16.6388 4.53802C16.6388 4.53802 16.6389 4.53802 16.639 4.53802C16.639 4.53802 16.6391 4.53802 16.6392 4.53802C16.6392 4.53802 16.6393 4.53802 16.6394 4.53802C16.6394 4.53802 16.6395 4.53802 16.6396 4.53802C16.6396 4.53802 16.6397 4.53802 16.6398 4.53802C16.6398 4.53802 16.6399 4.53802 16.64 4.53802C16.64 4.53802 16.6401 4.53802 16.6402 4.53802C16.6402 4.53802 16.6403 4.53802 16.6404 4.53802C16.6404 4.53802 16.6405 4.53802 16.6406 4.53802C16.6406 4.53802 16.6407 4.53802 16.6408 4.53802C16.6408 4.53802 16.6409 4.53802 16.641 4.53802C16.641 4.53802 16.6411 4.53802 16.6412 4.53802C16.6412 4.53802 16.6413 4.53802 16.6414 4.53802C16.6414 4.53802 16.6415 4.53802 16.6416 4.53802C16.6416 4.53802 16.6417 4.53802 16.6417 4.53802C16.6418 4.53802 16.6419 4.53802 16.6419 4.53802C16.642 4.53802 16.6421 4.53802 16.6421 4.53802C16.6422 4.53802 16.6423 4.53802 16.6423 4.53802C16.6424 4.53802 16.6425 4.53802 16.6425 4.53802C16.6426 4.53802 16.6427 4.53802 16.6427 4.53802C16.6428 4.53802 16.6429 4.53802 16.6429 4.53802C16.643 4.53802 16.6431 4.53802 16.6431 4.53802C16.6432 4.53802 16.6433 4.53802 16.6433 4.53802C16.6434 4.53802 16.6435 4.53802 16.6435 4.53802C16.6436 4.53802 16.6437 4.53802 16.6437 4.53802C16.6438 4.53802 16.6439 4.53802 16.6439 4.53802C16.644 4.53802 16.6441 4.53802 16.6441 4.53802C16.6442 4.53802 16.6443 4.53802 16.6443 4.53802C16.6444 4.53802 16.6445 4.53802 16.6445 4.53802C16.6446 4.53802 16.6446 4.53802 16.6447 4.53802C16.6448 4.53802 16.6448 4.53802 16.6449 4.53802C16.645 4.53802 16.645 4.53802 16.6451 4.53802C16.6452 4.53802 16.6452 4.53802 16.6453 4.53802C16.6454 4.53802 16.6454 4.53802 16.6455 4.53802C16.6456 4.53802 16.6456 4.53802 16.6457 4.53802C16.6458 4.53802 16.6458 4.53802 16.6459 4.53802C16.646 4.53802 16.646 4.53802 16.6461 4.53802C16.6462 4.53802 16.6462 4.53802 16.6463 4.53802C16.6464 4.53802 16.6464 4.53802 16.6465 4.53802C16.6466 4.53802 16.6466 4.53802 16.6467 4.53802C16.6468 4.53802 16.6468 4.53802 16.6469 4.53802C16.647 4.53802 16.647 4.53802 16.6471 4.53802C16.6472 4.53802 16.6472 4.53802 16.6473 4.53802C16.6474 4.53802 16.6474 4.53802 16.6475 4.53802C16.6476 4.53802 16.6476 4.53802 16.6477 4.53802C16.6477 4.53802 16.6478 4.53802 16.6479 4.53802C16.6479 4.53802 16.648 4.53802 16.6481 4.53802C16.6481 4.53802 16.6482 4.53802 16.6483 4.53802C16.6483 4.53802 16.6484 4.53802 16.6485 4.53802C16.6485 4.53802 16.6486 4.53802 16.6487 4.53802C16.6487 4.53802 16.6488 4.53802 16.6489 4.53802C16.6489 4.53802 16.649 4.53802 16.6491 4.53802C16.6491 4.53802 16.6492 4.53802 16.6493 4.53802C16.6493 4.53802 16.6494 4.53802 16.6495 4.53802C16.6495 4.53802 16.6496 4.53802 16.6497 4.53802C16.6497 4.53802 16.6498 4.53802 16.6499 4.53802C16.6499 4.53802 16.65 4.53802 16.6501 4.53802C16.6501 4.53802 16.6502 4.53802 16.6503 4.53802C16.6503 4.53802 16.6504 4.53802 16.6505 4.53802C16.6505 4.53802 16.6506 4.53802 16.6506 4.53802C16.6507 4.53802 16.6508 4.53802 16.6508 4.53802C16.6509 4.53802 16.651 4.53802 16.651 4.53802C16.6511 4.53802 16.6512 4.53802 16.6512 4.53802C16.6513 4.53802 16.6514 4.53802 16.6514 4.53802C16.6515 4.53802 16.6516 4.53802 16.6516 4.53802C16.6517 4.53802 16.6518 4.53802 16.6518 4.53802C16.6519 4.53802 16.652 4.53802 16.652 4.53802C16.6521 4.53802 16.6522 4.53802 16.6522 4.53802C16.6523 4.53802 16.6524 4.53802 16.6524 4.53802C16.6525 4.53802 16.6526 4.53802 16.6526 4.53802C16.6527 4.53802 16.6528 4.53802 16.6528 4.53802C16.6529 4.53802 16.653 4.53802 16.653 4.53802C16.6531 4.53802 16.6532 4.53802 16.6532 4.53802C16.6533 4.53802 16.6534 4.53802 16.6534 4.53802C16.6535 4.53802 16.6536 4.53802 16.6536 4.53802C16.6537 4.53802 16.6537 4.53802 16.6538 4.53802C16.6539 4.53802 16.6539 4.53802 16.654 4.53802C16.6541 4.53802 16.6541 4.53802 16.6542 4.53802C16.6543 4.53802 16.6543 4.53802 16.6544 4.53802C16.6545 4.53802 16.6545 4.53802 16.6546 4.53802C16.6547 4.53802 16.6547 4.53802 16.6548 4.53802C16.6549 4.53802 16.6549 4.53802 16.655 4.53802C16.6551 4.53802 16.6551 4.53802 16.6552 4.53802C16.6553 4.53802 16.6553 4.53802 16.6554 4.53802C16.6555 4.53802 16.6555 4.53802 16.6556 4.53802C16.6557 4.53802 16.6557 4.53802 16.6558 4.53802C16.6559 4.53802 16.6559 4.53802 16.656 4.53802C16.6561 4.53802 16.6561 4.53802 16.6562 4.53802C16.6563 4.53802 16.6563 4.53802 16.6564 4.53802C16.6565 4.53802 16.6565 4.53802 16.6566 4.53802C16.6566 4.53802 16.6567 4.53802 16.6568 4.53802C16.6568 4.53802 16.6569 4.53802 16.657 4.53802C16.657 4.53802 16.6571 4.53802 16.6572 4.53802C16.6572 4.53802 16.6573 4.53802 16.6574 4.53802C16.6574 4.53802 16.6575 4.53802 16.6576 4.53802C16.6576 4.53802 16.6577 4.53802 16.6578 4.53802C16.6578 4.53802 16.6579 4.53802 16.658 4.53802C16.658 4.53802 16.6581 4.53802 16.6582 4.53802C16.6582 4.53802 16.6583 4.53802 16.6584 4.53802C16.6584 4.53802 16.6585 4.53802 16.6586 4.53802C16.6586 4.53802 16.6587 4.53802 16.6588 4.53802C16.6588 4.53802 16.6589 4.53802 16.659 4.53802C16.659 4.53802 16.6591 4.53802 16.6592 4.53802C16.6592 4.53802 16.6593 4.53802 16.6594 4.53802C16.6594 4.53802 16.6595 4.53802 16.6595 4.53802C16.6596 4.53802 16.6597 4.53802 16.6597 4.53802C16.6598 4.53802 16.6599 4.53802 16.6599 4.53802C16.66 4.53802 16.6601 4.53802 16.6601 4.53802C16.6602 4.53802 16.6603 4.53802 16.6603 4.53802C16.6604 4.53802 16.6605 4.53802 16.6605 4.53802C16.6606 4.53802 16.6607 4.53802 16.6607 4.53802C16.6608 4.53802 16.6609 4.53802 16.6609 4.53802C16.661 4.53802 16.6611 4.53802 16.6611 4.53802C16.6612 4.53802 16.6613 4.53802 16.6613 4.53802C16.6614 4.53802 16.6615 4.53802 16.6615 4.53802C16.6616 4.53802 16.6617 4.53802 16.6617 4.53802C16.6618 4.53802 16.6619 4.53802 16.6619 4.53802C16.662 4.53802 16.6621 4.53802 16.6621 4.53802C16.6622 4.53802 16.6623 4.53802 16.6623 4.53802C16.6624 4.53802 16.6624 4.53802 16.6625 4.53802C16.6626 4.53802 16.6626 4.53802 16.6627 4.53802C16.6628 4.53802 16.6628 4.53802 16.6629 4.53802C16.663 4.53802 16.663 4.53802 16.6631 4.53802C16.6632 4.53802 16.6632 4.53802 16.6633 4.53802C16.6634 4.53802 16.6634 4.53802 16.6635 4.53802C16.6636 4.53802 16.6636 4.53802 16.6637 4.53802C16.6638 4.53802 16.6638 4.53802 16.6639 4.53802C16.664 4.53802 16.664 4.53802 16.6641 4.53802C16.6642 4.53802 16.6642 4.53802 16.6643 4.53802C16.6644 4.53802 16.6644 4.53802 16.6645 4.53802C16.6646 4.53802 16.6646 4.53802 16.6647 4.53802C16.6648 4.53802 16.6648 4.53802 16.6649 4.53802C16.665 4.53802 16.665 4.53802 16.6651 4.53802C16.6652 4.53802 16.6652 4.53802 16.6653 4.53802C16.6653 4.53802 16.6654 4.53802 16.6655 4.53802C16.6655 4.53802 16.6656 4.53802 16.6657 4.53802C16.6657 4.53802 16.6658 4.53802 16.6659 4.53802C16.6659 4.53802 16.666 4.53802 16.6661 4.53802C16.6661 4.53802 16.6662 4.53802 16.6663 4.53802C16.6663 4.53802 16.6664 4.53802 16.6665 4.53802C16.6665 4.53802 16.6666 4.53802 16.6667 4.53802C16.6667 4.53802 16.6668 4.53802 16.6669 4.53802C16.6669 4.53802 16.667 4.53802 16.6671 4.53802C16.6671 4.53802 16.6672 4.53802 16.6673 4.53802C16.6673 4.53802 16.6674 4.53802 16.6675 4.53802C16.6675 4.53802 16.6676 4.53802 16.6677 4.53802C16.6677 4.53802 16.6678 4.53802 16.6679 4.53802C16.6679 4.53802 16.668 4.53802 16.6681 4.53802C16.6681 4.53802 16.6682 4.53802 16.6683 4.53802C16.6683 4.53802 16.6684 4.53802 16.6684 4.53802C16.6685 4.53802 16.6686 4.53802 16.6686 4.53802C16.6687 4.53802 16.6688 4.53802 16.6688 4.53802C16.6689 4.53802 16.669 4.53802 16.669 4.53802C16.6691 4.53802 16.6692 4.53802 16.6692 4.53802C16.6693 4.53802 16.6694 4.53802 16.6694 4.53802C16.6695 4.53802 16.6696 4.53802 16.6696 4.53802C16.6697 4.53802 16.6698 4.53802 16.6698 4.53802C16.6699 4.53802 16.67 4.53802 16.67 4.53802C16.6701 4.53802 16.6702 4.53802 16.6702 4.53802C16.6703 4.53802 16.6704 4.53802 16.6704 4.53802C16.6705 4.53802 16.6706 4.53802 16.6706 4.53802C16.6707 4.53802 16.6708 4.53802 16.6708 4.53802C16.6709 4.53802 16.671 4.53802 16.671 4.53802C16.6711 4.53802 16.6712 4.53802 16.6712 4.53802C16.6713 4.53802 16.6713 4.53802 16.6714 4.53802C16.6715 4.53802 16.6715 4.53802 16.6716 4.53802C16.6717 4.53802 16.6717 4.53802 16.6718 4.53802C16.6719 4.53802 16.6719 4.53802 16.672 4.53802C16.6721 4.53802 16.6721 4.53802 16.6722 4.53802C16.6723 4.53802 16.6723 4.53802 16.6724 4.53802C16.6725 4.53802 16.6725 4.53802 16.6726 4.53802C16.6727 4.53802 16.6727 4.53802 16.6728 4.53802C16.6729 4.53802 16.6729 4.53802 16.673 4.53802C16.6731 4.53802 16.6731 4.53802 16.6732 4.53802C16.6733 4.53802 16.6733 4.53802 16.6734 4.53802C16.6735 4.53802 16.6735 4.53802 16.6736 4.53802C16.6737 4.53802 16.6737 4.53802 16.6738 4.53802C16.6739 4.53802 16.6739 4.53802 16.674 4.53802C16.6741 4.53802 16.6741 4.53802 16.6742 4.53802C16.6743 4.53802 16.6743 4.53802 16.6744 4.53802C16.6744 4.53802 16.6745 4.53802 16.6746 4.53802C16.6746 4.53802 16.6747 4.53802 16.6748 4.53802C16.6748 4.53802 16.6749 4.53802 16.675 4.53802C16.675 4.53802 16.6751 4.53802 16.6752 4.53802C16.6752 4.53802 16.6753 4.53802 16.6754 4.53802C16.6754 4.53802 16.6755 4.53802 16.6756 4.53802C16.6756 4.53802 16.6757 4.53802 16.6758 4.53802C16.6758 4.53802 16.6759 4.53802 16.676 4.53802C16.676 4.53802 16.6761 4.53802 16.6762 4.53802C16.6762 4.53802 16.6763 4.53802 16.6764 4.53802C16.6764 4.53802 16.6765 4.53802 16.6766 4.53802C16.6766 4.53802 16.6767 4.53802 16.6768 4.53802C16.6768 4.53802 16.6769 4.53802 16.677 4.53802C16.677 4.53802 16.6771 4.53802 16.6772 4.53802C16.6772 4.53802 16.6773 4.53802 16.6773 4.53802C16.6774 4.53802 16.6775 4.53802 16.6775 4.53802C16.6776 4.53802 16.6777 4.53802 16.6777 4.53802C16.6778 4.53802 16.6779 4.53802 16.6779 4.53802C16.678 4.53802 16.6781 4.53802 16.6781 4.53802C16.6782 4.53802 16.6783 4.53802 16.6783 4.53802C16.6784 4.53802 16.6785 4.53802 16.6785 4.53802C16.6786 4.53802 16.6787 4.53802 16.6787 4.53802C16.6788 4.53802 16.6789 4.53802 16.6789 4.53802C16.679 4.53802 16.6791 4.53802 16.6791 4.53802C16.6792 4.53802 16.6793 4.53802 16.6793 4.53802C16.6794 4.53802 16.6795 4.53802 16.6795 4.53802C16.6796 4.53802 16.6797 4.53802 16.6797 4.53802C16.6798 4.53802 16.6799 4.53802 16.6799 4.53802C16.68 4.53802 16.6801 4.53802 16.6801 4.53802C16.6802 4.53802 16.6802 4.53802 16.6803 4.53802C16.6804 4.53802 16.6804 4.53802 16.6805 4.53802C16.6806 4.53802 16.6806 4.53802 16.6807 4.53802C16.6808 4.53802 16.6808 4.53802 16.6809 4.53802C16.681 4.53802 16.681 4.53802 16.6811 4.53802C16.6812 4.53802 16.6812 4.53802 16.6813 4.53802C16.6814 4.53802 16.6814 4.53802 16.6815 4.53802C16.6816 4.53802 16.6816 4.53802 16.6817 4.53802C16.6818 4.53802 16.6818 4.53802 16.6819 4.53802C16.682 4.53802 16.682 4.53802 16.6821 4.53802C16.6822 4.53802 16.6822 4.53802 16.6823 4.53802C16.6824 4.53802 16.6824 4.53802 16.6825 4.53802C16.6826 4.53802 16.6826 4.53802 16.6827 4.53802C16.6828 4.53802 16.6828 4.53802 16.6829 4.53802C16.683 4.53802 16.683 4.53802 16.6831 4.53802C16.6832 4.53802 16.6832 4.53802 16.6833 4.53802C16.6833 4.53802 16.6834 4.53802 16.6835 4.53802C16.6835 4.53802 16.6836 4.53802 16.6837 4.53802C16.6837 4.53802 16.6838 4.53802 16.6839 4.53802C16.6839 4.53802 16.684 4.53802 16.6841 4.53802C16.6841 4.53802 16.6842 4.53802 16.6843 4.53802C16.6843 4.53802 16.6844 4.53802 16.6845 4.53802C16.6845 4.53802 16.6846 4.53802 16.6847 4.53802C16.6847 4.53802 16.6848 4.53802 16.6849 4.53802C16.6849 4.53802 16.685 4.53802 16.6851 4.53802C16.6851 4.53802 16.6852 4.53802 16.6853 4.53802C16.6853 4.53802 16.6854 4.53802 16.6855 4.53802C16.6855 4.53802 16.6856 4.53802 16.6857 4.53802C16.6857 4.53802 16.6858 4.53802 16.6859 4.53802C16.6859 4.53802 16.686 4.53802 16.6861 4.53802C16.6861 4.53802 16.6862 4.53802 16.6862 4.53802C16.6863 4.53802 16.6864 4.53802 16.6864 4.53802C16.6865 4.53802 16.6866 4.53802 16.6866 4.53802C16.6867 4.53802 16.6868 4.53802 16.6868 4.53802C16.6869 4.53802 16.687 4.53802 16.687 4.53802C16.6871 4.53802 16.6872 4.53802 16.6872 4.53802C16.6873 4.53802 16.6874 4.53802 16.6874 4.53802C16.6875 4.53802 16.6876 4.53802 16.6876 4.53802C16.6877 4.53802 16.6878 4.53802 16.6878 4.53802C16.6879 4.53802 16.688 4.53802 16.688 4.53802C16.6881 4.53802 16.6882 4.53802 16.6882 4.53802C16.6883 4.53802 16.6884 4.53802 16.6884 4.53802C16.6885 4.53802 16.6886 4.53802 16.6886 4.53802C16.6887 4.53802 16.6888 4.53802 16.6888 4.53802C16.6889 4.53802 16.689 4.53802 16.689 4.53802C16.6891 4.53802 16.6891 4.53802 16.6892 4.53802C16.6893 4.53802 16.6893 4.53802 16.6894 4.53802C16.6895 4.53802 16.6895 4.53802 16.6896 4.53802C16.6897 4.53802 16.6897 4.53802 16.6898 4.53802C16.6899 4.53802 16.6899 4.53802 16.69 4.53802C16.6901 4.53802 16.6901 4.53802 16.6902 4.53802C16.6903 4.53802 16.6903 4.53802 16.6904 4.53802C16.6905 4.53802 16.6905 4.53802 16.6906 4.53802C16.6907 4.53802 16.6907 4.53802 16.6908 4.53802C16.6909 4.53802 16.6909 4.53802 16.691 4.53802C16.6911 4.53802 16.6911 4.53802 16.6912 4.53802C16.6913 4.53802 16.6913 4.53802 16.6914 4.53802C16.6915 4.53802 16.6915 4.53802 16.6916 4.53802C16.6917 4.53802 16.6917 4.53802 16.6918 4.53802C16.6919 4.53802 16.6919 4.53802 16.692 4.53802C16.692 4.53802 16.6921 4.53802 16.6922 4.53802C16.6922 4.53802 16.6923 4.53802 16.6924 4.53802C16.6924 4.53802 16.6925 4.53802 16.6926 4.53802C16.6926 4.53802 16.6927 4.53802 16.6928 4.53802C16.6928 4.53802 16.6929 4.53802 16.693 4.53802C16.693 4.53802 16.6931 4.53802 16.6932 4.53802C16.6932 4.53802 16.6933 4.53802 16.6934 4.53802C16.6934 4.53802 16.6935 4.53802 16.6936 4.53802C16.6936 4.53802 16.6937 4.53802 16.6938 4.53802C16.6938 4.53802 16.6939 4.53802 16.694 4.53802C16.694 4.53802 16.6941 4.53802 16.6942 4.53802C16.6942 4.53802 16.6943 4.53802 16.6944 4.53802C16.6944 4.53802 16.6945 4.53802 16.6946 4.53802C16.6946 4.53802 16.6947 4.53802 16.6948 4.53802C16.6948 4.53802 16.6949 4.53802 16.695 4.53802C16.695 4.53802 16.6951 4.53802 16.6951 4.53802C16.6952 4.53802 16.6953 4.53802 16.6953 4.53802C16.6954 4.53802 16.6955 4.53802 16.6955 4.53802C16.6956 4.53802 16.6957 4.53802 16.6957 4.53802C16.6958 4.53802 16.6959 4.53802 16.6959 4.53802C16.696 4.53802 16.6961 4.53802 16.6961 4.53802C16.6962 4.53802 16.6963 4.53802 16.6963 4.53802C16.6964 4.53802 16.6965 4.53802 16.6965 4.53802C16.6966 4.53802 16.6967 4.53802 16.6967 4.53802C16.6968 4.53802 16.6969 4.53802 16.6969 4.53802C16.697 4.53802 16.6971 4.53802 16.6971 4.53802C16.6972 4.53802 16.6973 4.53802 16.6973 4.53802C16.6974 4.53802 16.6975 4.53802 16.6975 4.53802C16.6976 4.53802 16.6977 4.53802 16.6977 4.53802C16.6978 4.53802 16.6979 4.53802 16.6979 4.53802C16.698 4.53802 16.698 4.53802 16.6981 4.53802C16.6982 4.53802 16.6982 4.53802 16.6983 4.53802C16.6984 4.53802 16.6984 4.53802 16.6985 4.53802C16.6986 4.53802 16.6986 4.53802 16.6987 4.53802C16.6988 4.53802 16.6988 4.53802 16.6989 4.53802C16.699 4.53802 16.699 4.53802 16.6991 4.53802C16.6992 4.53802 16.6992 4.53802 16.6993 4.53802C16.6994 4.53802 16.6994 4.53802 16.6995 4.53802C16.6996 4.53802 16.6996 4.53802 16.6997 4.53802C16.6998 4.53802 16.6998 4.53802 16.6999 4.53802C16.7 4.53802 16.7 4.53802 16.7001 4.53802C16.7002 4.53802 16.7002 4.53802 16.7003 4.53802C16.7004 4.53802 16.7004 4.53802 16.7005 4.53802C16.7006 4.53802 16.7006 4.53802 16.7007 4.53802C16.7008 4.53802 16.7008 4.53802 16.7009 4.53802C16.7009 4.53802 16.701 4.53802 16.7011 4.53802C16.7011 4.53802 16.7012 4.53802 16.7013 4.53802C16.7013 4.53802 16.7014 4.53802 16.7015 4.53802C16.7015 4.53802 16.7016 4.53802 16.7017 4.53802C16.7017 4.53802 16.7018 4.53802 16.7019 4.53802C16.7019 4.53802 16.702 4.53802 16.7021 4.53802C16.7021 4.53802 16.7022 4.53802 16.7023 4.53802C16.7023 4.53802 16.7024 4.53802 16.7025 4.53802C16.7025 4.53802 16.7026 4.53802 16.7027 4.53802C16.7027 4.53802 16.7028 4.53802 16.7029 4.53802C16.7029 4.53802 16.703 4.53802 16.7031 4.53802C16.7031 4.53802 16.7032 4.53802 16.7033 4.53802C16.7033 4.53802 16.7034 4.53802 16.7035 4.53802C16.7035 4.53802 16.7036 4.53802 16.7037 4.53802C16.7037 4.53802 16.7038 4.53802 16.7039 4.53802C16.7039 4.53802 16.704 4.53802 16.704 4.53802C16.7041 4.53802 16.7042 4.53802 16.7042 4.53802C16.7043 4.53802 16.7044 4.53802 16.7044 4.53802C16.7045 4.53802 16.7046 4.53802 16.7046 4.53802C16.7047 4.53802 16.7048 4.53802 16.7048 4.53802C16.7049 4.53802 16.705 4.53802 16.705 4.53802C16.7051 4.53802 16.7052 4.53802 16.7052 4.53802C16.7053 4.53802 16.7054 4.53802 16.7054 4.53802C16.7055 4.53802 16.7056 4.53802 16.7056 4.53802C16.7057 4.53802 16.7058 4.53802 16.7058 4.53802C16.7059 4.53802 16.706 4.53802 16.706 4.53802C16.7061 4.53802 16.7062 4.53802 16.7062 4.53802C16.7063 4.53802 16.7064 4.53802 16.7064 4.53802C16.7065 4.53802 16.7066 4.53802 16.7066 4.53802C16.7067 4.53802 16.7068 4.53802 16.7068 4.53802C16.7069 4.53802 16.7069 4.53802 16.707 4.53802C16.7071 4.53802 16.7071 4.53802 16.7072 4.53802C16.7073 4.53802 16.7073 4.53802 16.7074 4.53802C16.7075 4.53802 16.7075 4.53802 16.7076 4.53802C16.7077 4.53802 16.7077 4.53802 16.7078 4.53802C16.7079 4.53802 16.7079 4.53802 16.708 4.53802C16.7081 4.53802 16.7081 4.53802 16.7082 4.53802C16.7083 4.53802 16.7083 4.53802 16.7084 4.53802C16.7085 4.53802 16.7085 4.53802 16.7086 4.53802C16.7087 4.53802 16.7087 4.53802 16.7088 4.53802C16.7089 4.53802 16.7089 4.53802 16.709 4.53802C16.7091 4.53802 16.7091 4.53802 16.7092 4.53802C16.7093 4.53802 16.7093 4.53802 16.7094 4.53802C16.7095 4.53802 16.7095 4.53802 16.7096 4.53802C16.7097 4.53802 16.7097 4.53802 16.7098 4.53802C16.7098 4.53802 16.7099 4.53802 16.71 4.53802C16.71 4.53802 16.7101 4.53802 16.7102 4.53802C16.7102 4.53802 16.7103 4.53802 16.7104 4.53802C16.7104 4.53802 16.7105 4.53802 16.7106 4.53802C16.7106 4.53802 16.7107 4.53802 16.7108 4.53802C16.7108 4.53802 16.7109 4.53802 16.711 4.53802C16.711 4.53802 16.7111 4.53802 16.7112 4.53802C16.7112 4.53802 16.7113 4.53802 16.7114 4.53802C16.7114 4.53802 16.7115 4.53802 16.7116 4.53802C16.7116 4.53802 16.7117 4.53802 16.7118 4.53802C16.7118 4.53802 16.7119 4.53802 16.712 4.53802C16.712 4.53802 16.7121 4.53802 16.7122 4.53802C16.7122 4.53802 16.7123 4.53802 16.7124 4.53802C16.7124 4.53802 16.7125 4.53802 16.7126 4.53802C16.7126 4.53802 16.7127 4.53802 16.7128 4.53802C16.7128 4.53802 16.7129 4.53802 16.7129 4.53802C16.713 4.53802 16.7131 4.53802 16.7131 4.53802C16.7132 4.53802 16.7133 4.53802 16.7133 4.53802C16.7134 4.53802 16.7135 4.53802 16.7135 4.53802C16.7136 4.53802 16.7137 4.53802 16.7137 4.53802C16.7138 4.53802 16.7139 4.53802 16.7139 4.53802C16.714 4.53802 16.7141 4.53802 16.7141 4.53802C16.7142 4.53802 16.7143 4.53802 16.7143 4.53802C16.7144 4.53802 16.7145 4.53802 16.7145 4.53802C16.7146 4.53802 16.7147 4.53802 16.7147 4.53802C16.7148 4.53802 16.7149 4.53802 16.7149 4.53802C16.715 4.53802 16.7151 4.53802 16.7151 4.53802C16.7152 4.53802 16.7153 4.53802 16.7153 4.53802C16.7154 4.53802 16.7155 4.53802 16.7155 4.53802C16.7156 4.53802 16.7157 4.53802 16.7157 4.53802C16.7158 4.53802 16.7158 4.53802 16.7159 4.53802C16.716 4.53802 16.716 4.53802 16.7161 4.53802C16.7162 4.53802 16.7162 4.53802 16.7163 4.53802C16.7164 4.53802 16.7164 4.53802 16.7165 4.53802C16.7166 4.53802 16.7166 4.53802 16.7167 4.53802C16.7168 4.53802 16.7168 4.53802 16.7169 4.53802C16.717 4.53802 16.717 4.53802 16.7171 4.53802C16.7172 4.53802 16.7172 4.53802 16.7173 4.53802V3.53802ZM16.66 3.53996C16.3948 3.51655 16.1207 3.51385 15.9451 3.50447L15.8918 4.50305C16.1438 4.51651 16.3197 4.51381 16.5721 4.53609L16.66 3.53996ZM15.9266 3.50383C12.366 3.4461 9.223 4.04157 7.23417 5.30628L7.77077 6.15012C9.51738 5.03944 12.4276 4.44723 15.9103 4.5037L15.9266 3.50383ZM7.00247 5.7282V12.5803H8.00247V5.7282H7.00247ZM7.24152 13.0068C8.41748 13.7263 9.71088 14.7197 10.6271 15.7831C11.5662 16.8732 11.9946 17.899 11.7581 18.737L12.7205 19.0086C13.1028 17.6539 12.3666 16.2701 11.3846 15.1304C10.3797 13.9639 8.99525 12.9075 7.76342 12.1538L7.24152 13.0068ZM11.7604 18.7288C11.6078 19.2366 11.7375 19.7296 12.0794 20.0696C12.4101 20.3984 12.894 20.5422 13.3946 20.4892L13.2892 19.4947C13.036 19.5216 12.8673 19.4428 12.7845 19.3604C12.7129 19.2893 12.6682 19.1827 12.7181 19.0167L11.7604 18.7288ZM13.3979 20.4888C14.6437 20.3483 15.378 19.1173 15.4168 17.9761L14.4174 17.9422C14.3886 18.7881 13.8628 19.43 13.2859 19.4951L13.3979 20.4888ZM15.4167 17.9788C15.4646 16.7635 15.2374 15.5426 14.8214 14.457L13.8876 14.8148C14.2593 15.7848 14.4596 16.8708 14.4175 17.9395L15.4167 17.9788ZM14.8484 14.558C14.845 14.5364 14.843 14.5175 14.8421 14.5013C14.8412 14.485 14.8415 14.4729 14.8421 14.4647C14.8435 14.4469 14.8459 14.4539 14.8356 14.4734C14.8302 14.4836 14.8222 14.4953 14.8115 14.5066C14.8007 14.5179 14.7899 14.5259 14.7813 14.5309C14.7644 14.5408 14.7678 14.5327 14.813 14.5289L14.7287 13.5324C14.3995 13.5603 14.1091 13.7089 13.9522 14.0047C13.8173 14.259 13.8321 14.5328 13.8606 14.7138L14.8484 14.558ZM14.8018 14.5297C15.3488 14.4957 16.0429 14.4616 16.5809 14.4388L16.5387 13.4397C15.9965 13.4627 15.2954 13.4971 14.7398 13.5316L14.8018 14.5297ZM16.5598 14.4393C16.8642 14.4393 17.1553 14.4274 17.4248 14.416L17.3825 13.4169C17.1119 13.4283 16.8404 13.4393 16.5598 13.4393V14.4393ZM17.4036 14.4164H17.4149V13.4164H17.4036V14.4164ZM17.4396 14.4158C17.9087 14.3926 18.3603 14.3575 18.7473 14.3099L18.6252 13.3174C18.2696 13.3611 17.8436 13.3946 17.3902 13.417L17.4396 14.4158ZM18.751 14.3095C19.2089 14.2497 19.6683 14.0923 20.0385 13.834C20.41 13.5747 20.7217 13.1894 20.7907 12.6819L19.7998 12.5472C19.7787 12.7021 19.6797 12.8649 19.4662 13.0139C19.2513 13.1639 18.9513 13.2748 18.6216 13.3179L18.751 14.3095ZM20.7907 12.6819C20.8606 12.1674 20.6587 11.729 20.3109 11.4246C19.9785 11.1337 19.5266 10.9722 19.0581 10.9187L18.9445 11.9122C19.2748 11.95 19.5149 12.0569 19.6523 12.1771C19.7742 12.2838 19.8199 12.3993 19.7998 12.5472L20.7907 12.6819ZM19.1008 10.9254C19.0412 10.9133 18.9821 10.9084 18.9572 10.9061C18.9202 10.9027 18.9174 10.9019 18.9208 10.9026L18.7218 11.8826C18.7814 11.8947 18.8405 11.8996 18.8654 11.9019C18.9024 11.9053 18.9052 11.9061 18.9018 11.9054L19.1008 10.9254ZM18.8511 11.8917C19.0615 11.8791 19.2576 11.8541 19.4355 11.8315L19.3097 10.8395C19.1276 10.8626 18.9636 10.8832 18.7915 10.8935L18.8511 11.8917ZM19.4286 11.8323C19.8988 11.7793 20.3665 11.6255 20.7408 11.3674C21.1171 11.1079 21.4284 10.7188 21.4893 10.2068L20.4963 10.0888C20.4784 10.2391 20.3847 10.3983 20.1731 10.5442C19.9595 10.6914 19.6565 10.8003 19.3166 10.8386L19.4286 11.8323Z" fill="#BACAF5"/>
</svg>
