<svg width="16" height="16" viewBox="0 0 16 16" fill="none" xmlns="http://www.w3.org/2000/svg">
<g clip-path="url(#clip0_0_380)">
<path fill-rule="evenodd" clip-rule="evenodd" d="M10.6668 6.00016C10.6668 6.70741 10.3859 7.38568 9.88578 7.88578C9.38568 8.38588 8.70741 8.66683 8.00016 8.66683C7.29292 8.66683 6.61464 8.38588 6.11454 7.88578C5.61445 7.38568 5.3335 6.70741 5.3335 6.00016C5.3335 5.29292 5.61445 4.61464 6.11454 4.11454C6.61464 3.61445 7.29292 3.3335 8.00016 3.3335C8.70741 3.3335 9.38568 3.61445 9.88578 4.11454C10.3859 4.61464 10.6668 5.29292 10.6668 6.00016ZM9.3335 6.00016C9.3335 6.35378 9.19302 6.69292 8.94297 6.94297C8.69292 7.19302 8.35378 7.3335 8.00016 7.3335C7.64654 7.3335 7.3074 7.19302 7.05735 6.94297C6.80731 6.69292 6.66683 6.35378 6.66683 6.00016C6.66683 5.64654 6.80731 5.3074 7.05735 5.05735C7.3074 4.80731 7.64654 4.66683 8.00016 4.66683C8.35378 4.66683 8.69292 4.80731 8.94297 5.05735C9.19302 5.3074 9.3335 5.64654 9.3335 6.00016Z" fill="#1E1E1E"/>
<path fill-rule="evenodd" clip-rule="evenodd" d="M8.00008 0.666748C3.95008 0.666748 0.666748 3.95008 0.666748 8.00008C0.666748 12.0501 3.95008 15.3334 8.00008 15.3334C12.0501 15.3334 15.3334 12.0501 15.3334 8.00008C15.3334 3.95008 12.0501 0.666748 8.00008 0.666748ZM2.00008 8.00008C2.00008 9.39341 2.47541 10.6761 3.27208 11.6947C3.83157 10.96 4.55335 10.3646 5.38104 9.95496C6.20873 9.54533 7.11991 9.33261 8.04341 9.33342C8.95497 9.33255 9.85469 9.53976 10.674 9.93927C11.4934 10.3388 12.2107 10.92 12.7714 11.6387C13.349 10.8812 13.738 9.99689 13.906 9.05914C14.074 8.12139 14.0164 7.1571 13.7377 6.24607C13.4591 5.33504 12.9676 4.50345 12.3037 3.82011C11.6399 3.13677 10.8229 2.62132 9.92034 2.31642C9.01776 2.01152 8.05555 1.92593 7.11332 2.06673C6.1711 2.20753 5.27594 2.57068 4.50193 3.12612C3.72791 3.68156 3.09729 4.41333 2.66223 5.26088C2.22718 6.10843 2.0002 7.04739 2.00008 8.00008ZM8.00008 14.0001C6.62271 14.0021 5.28693 13.5283 4.21875 12.6587C4.6487 12.0432 5.22097 11.5407 5.88688 11.1939C6.55278 10.847 7.29261 10.6662 8.04341 10.6667C8.78486 10.6662 9.51574 10.8425 10.1754 11.181C10.835 11.5196 11.4043 12.0107 11.8361 12.6134C10.7596 13.5112 9.4018 14.002 8.00008 14.0001Z" fill="#1E1E1E"/>
</g>
<defs>
<clipPath id="clip0_0_380">
<rect width="16" height="16" fill="white"/>
</clipPath>
</defs>
</svg>
