<svg width="16" height="16" viewBox="0 0 16 16" fill="none" xmlns="http://www.w3.org/2000/svg">
<path d="M7.66667 6.00016C7.66667 5.55814 7.84226 5.13421 8.15482 4.82165C8.46738 4.50909 8.89131 4.3335 9.33333 4.3335C10.0667 4.3335 10.6867 4.80683 10.9133 5.46016C10.9667 5.6335 11 5.8135 11 6.00016C11 6.21903 10.9569 6.43576 10.8731 6.63797C10.7894 6.84018 10.6666 7.02391 10.5118 7.17867C10.3571 7.33344 10.1733 7.4562 9.97114 7.53996C9.76893 7.62372 9.5522 7.66683 9.33333 7.66683C8.60667 7.66683 8 7.20683 7.76 6.56016C7.7 6.38683 7.66667 6.1935 7.66667 6.00016ZM3.33333 6.00016C3.33333 9.00016 6.72 13.1068 7.33333 13.8735L6.66667 14.6668C6.66667 14.6668 2 9.50016 2 6.00016C2 3.88683 3.40667 2.10016 5.33333 1.52683C4.10667 2.62683 3.33333 4.22016 3.33333 6.00016ZM9.33333 1.3335C11.9067 1.3335 14 3.42016 14 6.00016C14 9.50016 9.33333 14.6668 9.33333 14.6668C9.33333 14.6668 4.66667 9.50016 4.66667 6.00016C4.66667 3.42016 6.76 1.3335 9.33333 1.3335ZM9.33333 2.66683C7.49333 2.66683 6 4.16016 6 6.00016C6 6.66683 6 8.00016 9.33333 12.4735C12.6667 8.00016 12.6667 6.66683 12.6667 6.00016C12.6667 4.16016 11.1733 2.66683 9.33333 2.66683Z" fill="#1E1E1E"/>
</svg>
