<svg width="24" height="24" viewBox="0 0 24 24" fill="none" xmlns="http://www.w3.org/2000/svg">
<path d="M6.60195 16.2H7.10195V15.7H6.60195V16.2ZM8.65395 20.652L9.00751 21.0056L9.00798 21.0051L8.65395 20.652ZM13.094 16.2V15.7H12.8865L12.7399 15.8469L13.094 16.2ZM19.802 2.5H4.20195V3.5H19.802V2.5ZM4.20195 2.5C3.26581 2.5 2.50195 3.26386 2.50195 4.2H3.50195C3.50195 3.81614 3.8181 3.5 4.20195 3.5V2.5ZM2.50195 4.2V15H3.50195V4.2H2.50195ZM2.50195 15C2.50195 15.9361 3.26581 16.7 4.20195 16.7V15.7C3.8181 15.7 3.50195 15.3839 3.50195 15H2.50195ZM4.20195 16.7H6.60195V15.7H4.20195V16.7ZM6.10195 16.2V19.8H7.10195V16.2H6.10195ZM6.10195 19.8C6.10195 20.7361 6.86581 21.5 7.80195 21.5V20.5C7.4181 20.5 7.10195 20.1839 7.10195 19.8H6.10195ZM7.80195 21.5C8.27207 21.5 8.69881 21.3143 9.00751 21.0056L8.3004 20.2984C8.1771 20.4217 8.00384 20.5 7.80195 20.5V21.5ZM9.00798 21.0051L13.448 16.5531L12.7399 15.8469L8.29992 20.2989L9.00798 21.0051ZM13.094 16.7H19.802V15.7H13.094V16.7ZM19.802 16.7C20.7381 16.7 21.502 15.9361 21.502 15H20.502C20.502 15.3839 20.1858 15.7 19.802 15.7V16.7ZM21.502 15V4.2H20.502V15H21.502ZM21.502 4.2C21.502 3.26386 20.7381 2.5 19.802 2.5V3.5C20.1858 3.5 20.502 3.81614 20.502 4.2H21.502Z" fill="#BACAF5"/>
</svg>
