<svg width="10" height="10" viewBox="0 0 10 10" fill="none" xmlns="http://www.w3.org/2000/svg">
<path fill-rule="evenodd" clip-rule="evenodd" d="M9.73546 8.4884L8.16487 6.91193C8.57664 6.27075 8.81781 5.51193 8.81781 4.70017C8.81781 2.4237 6.97664 0.58252 4.70017 0.58252C2.4237 0.58252 0.58252 2.4237 0.58252 4.70017C0.58252 6.97664 2.4237 8.81781 4.70017 8.81781C5.51781 8.81781 6.27664 8.57075 6.91193 8.16487L8.4884 9.73546C8.64723 9.89428 8.87075 9.99428 9.11193 9.99428C9.60017 9.99428 9.99428 9.60017 9.99428 9.11193C9.99428 8.87075 9.89428 8.64723 9.73546 8.4884ZM4.70017 7.64134C3.07664 7.64134 1.75899 6.3237 1.75899 4.70017C1.75899 3.07664 3.07664 1.75899 4.70017 1.75899C6.3237 1.75899 7.64134 3.07664 7.64134 4.70017C7.64134 6.3237 6.3237 7.64134 4.70017 7.64134Z" fill="#8F95B2"/>
</svg>
