<svg width="324" height="255" viewBox="0 0 324 255" fill="none" xmlns="http://www.w3.org/2000/svg">
<path d="M112.74 55.9419H196.258C196.258 55.9419 188.548 25.3262 153.868 25.3262C123.022 25.3262 112.74 55.9419 112.74 55.9419Z" fill="#3366FF"/>
<path d="M155.394 0H153.605V25.3145H155.394V0Z" fill="#3366FF"/>
<path d="M275.762 60.7132C273.723 61.0988 272.732 63.0501 272.538 64.7769C272.344 66.5036 272.607 68.334 271.734 69.9111C270.749 71.684 268.399 72.9963 268.322 74.9476C268.274 76.139 269.127 77.2499 269.085 78.4529C269.016 80.4099 266.617 81.9065 266.485 83.8404C266.395 85.2506 267.525 86.5975 267.255 87.9905C267.047 89.0726 266.028 89.9244 265.598 90.9605C264.745 93.0326 266.457 95.3062 268.683 96.4689C269.93 97.1197 271.333 97.5366 272.794 97.6905C274.255 97.8444 275.739 97.7316 277.142 97.36C278.545 96.9883 279.833 96.3668 280.917 95.5388C282.001 94.7109 282.854 93.6964 283.416 92.5664C284.65 90.0799 284.38 87.2767 284.109 84.6002C283.277 76.2503 282.658 67.8889 282.251 59.516" fill="#263238"/>
<path d="M269.841 90.1721C270.26 89.9557 270.588 89.6357 270.777 89.2569C270.977 88.8065 271.057 88.3254 271.013 87.8467C270.937 87.2121 270.767 86.5877 270.506 85.9876C270.175 85.2333 270.052 84.4268 270.146 83.6277C270.319 82.7297 271.096 81.993 271.796 81.2677C272.173 80.9128 272.488 80.5156 272.732 80.0878C272.976 79.6551 273.016 79.1621 272.843 78.7064C272.482 77.7681 271.373 77.0774 270.867 75.9896C270.629 75.451 270.59 74.8657 270.756 74.3088C270.913 73.7867 271.146 73.2823 271.449 72.8065C272.035 71.9498 272.5 71.0402 272.836 70.0955C273.321 68.2709 273.093 66.5268 273.425 65.0936C273.61 63.9457 274.223 62.8748 275.179 62.0315C275.45 61.8043 275.758 61.6105 276.095 61.4559C276.211 61.4057 276.334 61.3689 276.462 61.3465C276.028 61.5451 275.628 61.7931 275.276 62.0833C274.391 62.935 273.833 63.9876 273.675 65.1051C273.553 65.8686 273.488 66.6375 273.481 67.4075C273.479 68.3137 273.372 69.2177 273.162 70.107C272.831 71.0734 272.366 72.0045 271.775 72.8814C271.255 73.7851 270.777 74.8441 271.234 75.8342C271.692 76.8242 272.794 77.5091 273.217 78.5682C273.408 79.0914 273.361 79.6546 273.086 80.1511C272.815 80.6219 272.465 81.0581 272.046 81.4462C271.352 82.1714 270.597 82.8621 270.43 83.668C270.333 84.4323 270.442 85.205 270.749 85.93C270.997 86.5487 271.15 87.1907 271.207 87.841C271.241 88.3418 271.134 88.8424 270.895 89.303C270.746 89.5917 270.506 89.8421 270.201 90.0282C270.093 90.0942 269.971 90.1429 269.841 90.1721Z" fill="#455A64"/>
<path d="M264.419 103.82L258.179 118.785L232.082 119.936L227.728 127.994L254.976 130.297C256.263 130.736 257.644 130.953 259.036 130.936C260.427 130.919 261.8 130.669 263.071 130.199C264.343 129.729 265.486 129.051 266.433 128.204C267.38 127.357 268.11 126.36 268.579 125.272L275.852 108.419L264.419 103.82Z" fill="#B78876"/>
<path d="M318.367 245.029C318.367 245.029 299.245 194.596 298.836 192.961C298.468 191.476 305.769 155.185 306.698 145.763L280.858 146.563V146.776L269.875 147.282L279.707 250.382H291.597L290.419 216.163C297.754 232.504 308.265 249.162 308.265 249.162L318.367 245.029Z" fill="#B78876"/>
<path d="M290.904 228.441C290.904 228.13 290.759 216.975 290.759 216.975C290.613 217.643 286.203 207.293 286.307 206.666C286.363 206.338 290.904 228.441 290.904 228.441Z" fill="#A36957"/>
<path d="M285.808 201.762C285.747 201.967 285.721 202.178 285.732 202.389C285.694 202.964 285.694 203.541 285.732 204.116C285.732 204.479 285.794 204.87 285.85 205.296C285.905 205.722 285.981 206.171 286.099 206.637C286.346 207.655 286.672 208.659 287.077 209.642C287.937 211.731 288.893 213.556 289.566 214.88C289.885 215.455 290.162 216.002 290.398 216.439C290.483 216.643 290.6 216.836 290.745 217.015C290.708 216.816 290.638 216.622 290.537 216.439C290.377 216.06 290.134 215.513 289.843 214.839C289.233 213.492 288.318 211.65 287.465 209.584C287.062 208.616 286.731 207.628 286.474 206.626C286.349 206.165 286.266 205.722 286.189 205.307C286.113 204.893 286.058 204.502 286.023 204.156C285.94 203.443 285.905 202.867 285.884 202.464C285.898 202.228 285.872 201.992 285.808 201.762Z" fill="#A36957"/>
<path d="M279.485 250.906V249.979L291.667 249.536L291.701 253.364L290.953 253.404C287.604 253.565 273.932 254.037 271.699 253.479C269.196 252.857 279.485 250.906 279.485 250.906Z" fill="#455A64"/>
<path d="M291.86 253.133C291.791 253.137 291.722 253.137 291.652 253.133L291.056 253.168L288.851 253.248C286.993 253.312 284.421 253.369 281.585 253.381C278.75 253.392 276.17 253.352 274.305 253.306L272.108 253.231H271.504H271.296C271.366 253.227 271.435 253.227 271.504 253.231H272.108L274.312 253.266C276.17 253.266 278.743 253.312 281.578 253.3C284.414 253.289 286.993 253.248 288.851 253.208L291.056 253.162H291.86V253.133Z" fill="#263238"/>
<path d="M275.513 253.456C275.411 253.155 275.272 252.863 275.097 252.587C274.877 252.332 274.624 252.098 274.341 251.89C274.719 252.003 275.033 252.228 275.221 252.523C275.451 252.795 275.554 253.126 275.513 253.456Z" fill="#263238"/>
<path d="M279.104 251.942C279.104 251.942 278.903 251.786 278.723 251.556C278.542 251.326 278.431 251.125 278.466 251.107C278.501 251.09 278.667 251.257 278.847 251.487C279.028 251.717 279.139 251.925 279.104 251.942Z" fill="#263238"/>
<path d="M280.088 251.533C280.088 251.562 279.866 251.453 279.658 251.297C279.45 251.142 279.297 250.998 279.325 250.975C279.353 250.952 279.547 251.055 279.755 251.211C279.963 251.366 280.115 251.481 280.088 251.533Z" fill="#263238"/>
<path d="M280.705 250.555C280.502 250.617 280.284 250.641 280.067 250.624C279.855 250.647 279.639 250.63 279.437 250.572C279.638 250.51 279.854 250.487 280.067 250.503C280.282 250.479 280.5 250.496 280.705 250.555Z" fill="#263238"/>
<path d="M280.913 249.887C280.707 249.999 280.466 250.058 280.22 250.06C279.984 250.086 279.744 250.058 279.526 249.979C279.755 249.947 279.987 249.932 280.22 249.933C280.448 249.899 280.681 249.884 280.913 249.887Z" fill="#263238"/>
<path d="M278.694 251.061C278.436 251.102 278.17 251.102 277.911 251.061C277.631 251.033 277.355 250.983 277.086 250.912C276.92 250.874 276.759 250.819 276.608 250.751C276.515 250.705 276.446 250.634 276.413 250.549C276.401 250.501 276.405 250.451 276.426 250.405C276.447 250.359 276.483 250.319 276.531 250.29C276.723 250.213 276.934 250.172 277.147 250.17C277.36 250.169 277.571 250.207 277.765 250.281C277.959 250.355 278.13 250.464 278.267 250.6C278.404 250.736 278.502 250.896 278.556 251.067C278.57 251.124 278.57 251.183 278.556 251.24C278.477 251.032 278.355 250.837 278.195 250.664C278.011 250.492 277.77 250.368 277.502 250.307C277.195 250.225 276.862 250.246 276.573 250.365C276.455 250.44 276.504 250.561 276.635 250.63C276.777 250.693 276.925 250.745 277.079 250.785C277.34 250.856 277.606 250.912 277.876 250.952C278.396 251.044 278.694 251.044 278.694 251.061Z" fill="#263238"/>
<path d="M278.493 251.096C278.392 250.962 278.358 250.802 278.396 250.647C278.422 250.478 278.495 250.316 278.611 250.175C278.676 250.079 278.769 249.998 278.882 249.94C278.995 249.881 279.123 249.847 279.256 249.841C279.335 249.856 279.403 249.896 279.448 249.951C279.493 250.007 279.511 250.074 279.499 250.141C279.482 250.244 279.437 250.342 279.367 250.428C279.262 250.571 279.139 250.704 279 250.826C278.879 250.94 278.727 251.029 278.556 251.085C278.556 251.085 278.708 250.969 278.923 250.762C279.048 250.644 279.157 250.514 279.249 250.377C279.353 250.238 279.429 249.991 279.249 249.962C279.069 249.933 278.861 250.112 278.743 250.238C278.633 250.363 278.557 250.507 278.521 250.659C278.493 250.803 278.484 250.95 278.493 251.096Z" fill="#263238"/>
<path d="M291.604 250.382C291.604 250.382 291.258 250.382 290.71 250.411C289.997 250.482 289.322 250.717 288.761 251.091C288.201 251.464 287.779 251.961 287.541 252.524C287.361 252.955 287.347 253.249 287.319 253.243C287.292 253.237 287.319 253.168 287.319 253.042C287.337 252.856 287.379 252.673 287.444 252.495C287.665 251.905 288.089 251.383 288.664 250.992C289.247 250.609 289.955 250.378 290.696 250.33C290.926 250.307 291.159 250.307 291.389 250.33C291.463 250.34 291.536 250.357 291.604 250.382Z" fill="#263238"/>
<path d="M285.773 252.328C285.191 252.44 284.595 252.488 283.998 252.472C283.404 252.496 282.81 252.454 282.23 252.345C282.23 252.31 283.02 252.345 283.998 252.345C284.976 252.345 285.766 252.293 285.773 252.328Z" fill="#263238"/>
<path d="M288.145 252.31C288.145 252.31 288.083 252.448 287.999 252.598C287.916 252.748 287.874 252.886 287.833 252.88C287.791 252.874 287.77 252.725 287.867 252.546C287.965 252.368 288.117 252.281 288.145 252.31Z" fill="#263238"/>
<path d="M289.039 251.384C289.039 251.384 288.991 251.51 288.866 251.614C288.741 251.718 288.616 251.787 288.581 251.764C288.546 251.741 288.63 251.637 288.755 251.528C288.88 251.418 289.005 251.355 289.039 251.384Z" fill="#263238"/>
<path d="M290.315 250.958C290.315 250.992 290.149 250.992 289.968 251.044C289.788 251.096 289.663 251.176 289.628 251.153C289.593 251.13 289.698 250.992 289.92 250.929C290.142 250.866 290.329 250.923 290.315 250.958Z" fill="#263238"/>
<path d="M291.223 250.75C291.223 250.785 291.175 250.837 291.071 250.866C290.967 250.894 290.876 250.9 290.863 250.866C290.849 250.831 290.918 250.779 291.015 250.75C291.112 250.722 291.21 250.722 291.223 250.75Z" fill="#263238"/>
<path d="M308.022 250.014L307.564 249.168L318.457 244.626L320.377 248.08L319.684 248.373C316.709 249.657 304.472 254.734 302.157 254.987C299.598 255.292 308.022 250.014 308.022 250.014Z" fill="#455A64"/>
<path d="M320.419 247.832L320.239 247.924L319.705 248.155L317.736 248.983C316.072 249.668 313.756 250.595 311.17 251.574C308.584 252.552 306.213 253.387 304.493 253.98L302.448 254.665L301.893 254.843C301.829 254.868 301.762 254.885 301.692 254.895L301.88 254.82L302.427 254.619L304.452 253.899C306.164 253.289 308.522 252.437 311.108 251.459C313.694 250.48 316.016 249.571 317.694 248.903L319.677 248.114L320.225 247.901L320.419 247.832Z" fill="#263238"/>
<path d="M305.686 253.686C305.445 253.443 305.173 253.223 304.874 253.03C304.549 252.87 304.202 252.743 303.841 252.65C304.239 252.646 304.63 252.743 304.959 252.928C305.289 253.113 305.543 253.378 305.686 253.686Z" fill="#263238"/>
<path d="M308.188 251.085C308.188 251.085 307.925 251.016 307.648 250.866C307.37 250.716 307.169 250.572 307.19 250.544C307.211 250.515 307.453 250.613 307.731 250.762C308.008 250.912 308.209 251.056 308.188 251.085Z" fill="#263238"/>
<path d="M308.868 250.382C308.868 250.411 308.632 250.382 308.362 250.313C308.091 250.244 307.89 250.158 307.897 250.123C308.072 250.11 308.249 250.133 308.41 250.192C308.674 250.244 308.882 250.325 308.868 250.382Z" fill="#263238"/>
<path d="M308.965 249.277C308.965 249.312 308.736 249.433 308.417 249.559C308.233 249.651 308.027 249.708 307.814 249.726C307.814 249.692 308.043 249.571 308.355 249.444C308.541 249.353 308.749 249.296 308.965 249.277Z" fill="#263238"/>
<path d="M308.827 248.598C308.827 248.598 308.626 248.828 308.265 248.995C308.061 249.11 307.819 249.17 307.572 249.168C307.77 249.057 307.982 248.962 308.203 248.886C308.542 248.73 308.792 248.569 308.827 248.598Z" fill="#263238"/>
<path d="M307.405 250.428C307.194 250.549 306.959 250.638 306.712 250.693C306.439 250.759 306.161 250.807 305.88 250.837C305.709 250.855 305.537 250.855 305.367 250.837C305.26 250.83 305.16 250.789 305.089 250.722C305.057 250.681 305.04 250.633 305.04 250.584C305.04 250.535 305.057 250.487 305.089 250.446C305.3 250.234 305.593 250.089 305.918 250.036C306.243 249.984 306.58 250.027 306.871 250.158C307.043 250.233 307.194 250.337 307.315 250.463C307.398 250.555 307.433 250.613 307.426 250.618C307.255 250.46 307.051 250.329 306.823 250.233C306.579 250.137 306.306 250.103 306.039 250.135C305.88 250.148 305.726 250.188 305.586 250.251C305.446 250.315 305.322 250.4 305.221 250.503C305.145 250.613 305.221 250.705 305.408 250.722C305.567 250.733 305.728 250.733 305.887 250.722C306.163 250.699 306.436 250.658 306.705 250.601C307.1 250.509 307.405 250.411 307.405 250.428Z" fill="#263238"/>
<path d="M307.211 250.526C307.057 250.435 306.948 250.3 306.906 250.146C306.845 249.984 306.831 249.813 306.864 249.646C306.876 249.535 306.922 249.429 306.997 249.337C307.073 249.246 307.175 249.171 307.294 249.122C307.468 249.076 307.87 249.369 307.898 249.479C307.925 249.588 307.696 249.53 307.683 249.623C307.66 249.786 307.614 249.946 307.544 250.1C307.493 250.248 307.398 250.383 307.267 250.492C307.267 250.492 307.35 250.336 307.447 250.077C307.497 249.924 307.531 249.769 307.551 249.611C307.551 249.45 307.551 249.202 307.329 249.243C307.107 249.283 307.045 249.507 306.996 249.669C306.954 249.818 306.954 249.974 306.996 250.123C307.053 250.263 307.125 250.397 307.211 250.526Z" fill="#263238"/>
<path d="M318.824 245.409C318.824 245.409 318.491 245.507 318.02 245.743C317.403 246.049 316.902 246.491 316.571 247.021C316.25 247.555 316.113 248.153 316.176 248.747C316.217 249.208 316.349 249.473 316.321 249.484C316.277 249.427 316.242 249.365 316.217 249.3C316.149 249.124 316.1 248.943 316.072 248.759C315.972 248.146 316.1 247.522 316.439 246.971C316.777 246.42 317.309 245.967 317.965 245.674C318.161 245.584 318.367 245.51 318.582 245.455C318.659 245.43 318.741 245.414 318.824 245.409Z" fill="#263238"/>
<path d="M314.463 249.173C313.485 249.738 312.393 250.151 311.239 250.394C311.239 250.359 311.967 250.129 312.854 249.818C313.742 249.507 314.442 249.145 314.463 249.173Z" fill="#263238"/>
<path d="M316.619 248.35C316.654 248.35 316.619 248.494 316.619 248.661C316.619 248.828 316.619 248.966 316.619 248.978C316.619 248.989 316.48 248.851 316.48 248.661C316.48 248.471 316.585 248.333 316.619 248.35Z" fill="#263238"/>
<path d="M316.974 247.199C317.008 247.199 316.974 247.331 316.932 247.47C316.89 247.608 316.786 247.711 316.752 247.7C316.717 247.688 316.752 247.567 316.793 247.429C316.835 247.291 316.932 247.187 316.974 247.199Z" fill="#263238"/>
<path d="M317.93 246.353C317.93 246.388 317.791 246.439 317.652 246.549C317.514 246.658 317.437 246.773 317.402 246.762C317.368 246.75 317.402 246.589 317.555 246.457C317.708 246.324 317.923 246.353 317.93 246.353Z" fill="#263238"/>
<path d="M318.658 245.881C318.658 245.881 318.658 245.973 318.575 246.036C318.491 246.1 318.415 246.134 318.387 246.111C318.36 246.088 318.387 246.019 318.471 245.956C318.554 245.892 318.63 245.858 318.658 245.881Z" fill="#263238"/>
<path d="M305.02 128.725L302.996 108.176L313.395 108.332C313.395 108.332 313.874 105.298 312.342 98.6562C311.399 94.581 308.133 92.0829 304.465 90.5979V90.5403L304.146 90.4713C301.127 89.3459 297.903 88.6475 294.606 88.4049L281.814 88.5258C281.814 88.5258 272.046 87.4897 266.658 93.2974C264.578 95.5249 258.124 110.772 258.124 110.772L273.481 116.908L272.046 108.453C272.046 108.453 272.337 114.583 273.28 116.511C273.8 117.593 275.36 120.955 275.36 120.955L275.159 131.096L305.02 128.725Z" fill="#3366FF"/>
<path d="M297.969 105.195L296.069 111.907H313.978L312.799 100.648L297.969 105.195Z" fill="#3366FF"/>
<path d="M313.978 111.906C313.195 111.787 312.402 111.721 311.607 111.711C310.137 111.642 308.14 111.578 305.866 111.59C303.592 111.601 301.588 111.682 300.118 111.774C299.323 111.797 298.532 111.878 297.754 112.016C298.548 112.068 299.345 112.068 300.139 112.016C301.602 111.976 303.606 111.929 305.866 111.924C308.126 111.918 310.13 111.924 311.6 111.952C312.393 111.989 313.188 111.974 313.978 111.906Z" fill="#263238"/>
<path d="M297.192 100.596C297.107 101.169 297.088 101.747 297.137 102.323C297.137 103.376 297.192 104.827 297.269 106.433C297.345 108.038 297.435 109.495 297.518 110.542C297.522 111.123 297.596 111.701 297.74 112.269C297.826 111.696 297.844 111.118 297.796 110.542C297.796 109.489 297.74 108.033 297.664 106.427C297.588 104.821 297.498 103.37 297.414 102.317C297.411 101.739 297.337 101.162 297.192 100.596Z" fill="#263238"/>
<g opacity="0.3">
<path opacity="0.3" d="M280.899 106.41C280.899 106.41 284.879 130.913 296.069 130.262C296.069 130.262 301.109 130.216 302.725 127.436V126.342L280.899 106.41Z" fill="black"/>
</g>
<g opacity="0.3">
<path opacity="0.3" d="M297.192 102.041L295.05 114.053L296.436 116.16L298.724 112.039L297.754 112.016L297.192 102.041Z" fill="black"/>
</g>
<path d="M275.297 120.966C275.164 120.787 275.062 120.593 274.992 120.391C274.819 120.016 274.59 119.47 274.299 118.785C273.605 117 273.033 115.184 272.586 113.345C272.141 111.506 271.859 109.642 271.74 107.768C271.699 107.048 271.685 106.467 271.699 106.041C271.681 105.833 271.697 105.624 271.747 105.419C271.803 105.419 271.844 106.306 271.99 107.722C272.185 109.579 272.502 111.425 272.94 113.253C273.453 115.394 274.07 117.311 274.541 118.687C274.763 119.326 274.951 119.872 275.103 120.321C275.198 120.529 275.263 120.746 275.297 120.966Z" fill="#263238"/>
<path d="M279.818 128.006C279.721 128.006 279.443 127.505 279.201 126.855C278.992 126.456 278.899 126.022 278.93 125.588C279.236 125.94 279.447 126.343 279.547 126.768C279.746 127.159 279.839 127.582 279.818 128.006Z" fill="#263238"/>
<path d="M281.364 127.914C280.839 126.759 280.817 125.489 281.301 124.322C281.356 124.92 281.356 125.52 281.301 126.118C281.377 126.715 281.398 127.315 281.364 127.914Z" fill="#263238"/>
<path d="M273.792 117.191C273.744 117.26 270.173 115.855 265.812 114.048C261.451 112.24 257.95 110.709 257.992 110.634C258.033 110.559 261.611 111.97 265.972 113.777C270.333 115.585 273.834 117.116 273.792 117.191Z" fill="#263238"/>
<path d="M280.088 90.5116C280.164 87.5992 280.185 84.537 280.185 84.537C280.185 84.537 275.685 83.8175 274.902 78.902C274.153 74.2167 276.247 63.2171 276.247 63.2171C282.82 61.1565 289.649 63.0272 294.149 67.4477L293.032 91.0872C292.901 93.8328 289.954 95.928 286.418 95.7898C282.841 95.6459 280.012 93.286 280.088 90.5116Z" fill="#B78876"/>
<path d="M275.9 72.0064C275.894 72.1677 275.963 72.3249 276.091 72.4459C276.22 72.5668 276.4 72.6422 276.594 72.6568C276.692 72.6647 276.791 72.6559 276.886 72.6309C276.98 72.6058 277.067 72.5652 277.141 72.5113C277.216 72.4574 277.277 72.3915 277.319 72.3176C277.362 72.2436 277.387 72.1632 277.391 72.0812C277.397 71.9204 277.328 71.7639 277.199 71.6439C277.07 71.524 276.891 71.4497 276.698 71.4365C276.599 71.4241 276.498 71.4295 276.402 71.4524C276.306 71.4754 276.217 71.5153 276.141 71.5694C276.066 71.6235 276.005 71.6906 275.963 71.766C275.922 71.8414 275.9 71.9234 275.9 72.0064Z" fill="#263238"/>
<path d="M275.623 71.1834C275.713 71.2639 276.316 70.9243 277.114 70.9474C277.911 70.9704 278.5 71.3158 278.597 71.2352C278.694 71.1546 278.556 71.051 278.299 70.884C277.952 70.6752 277.535 70.5606 277.107 70.5559C276.684 70.5426 276.268 70.6436 275.921 70.8437C275.665 70.9992 275.574 71.1431 275.623 71.1834Z" fill="#263238"/>
<path d="M284.158 72.4325C284.15 72.5942 284.218 72.7522 284.347 72.8734C284.476 72.9946 284.657 73.0697 284.851 73.0829C284.951 73.0954 285.052 73.0899 285.149 73.0666C285.245 73.0434 285.334 73.0029 285.41 72.9482C285.486 72.8934 285.547 72.8256 285.588 72.7495C285.629 72.6734 285.65 72.5907 285.648 72.5073C285.656 72.3462 285.588 72.1889 285.459 72.0686C285.329 71.9483 285.149 71.8744 284.955 71.8626C284.856 71.8502 284.756 71.8556 284.66 71.8785C284.563 71.9015 284.475 71.9414 284.399 71.9955C284.323 72.0496 284.262 72.1167 284.221 72.1921C284.179 72.2675 284.158 72.3495 284.158 72.4325Z" fill="#263238"/>
<path d="M284.103 71.6093C284.193 71.6957 284.796 71.356 285.593 71.3733C286.39 71.3906 286.98 71.7417 287.084 71.6611C287.188 71.5805 287.035 71.4769 286.779 71.3158C286.437 71.1015 286.021 70.9844 285.593 70.9819C285.169 70.9713 284.752 71.0721 284.401 71.2697C284.151 71.4251 284.061 71.569 284.103 71.6093Z" fill="#263238"/>
<path d="M280.997 76.5539C280.571 76.4325 280.128 76.357 279.679 76.3294C279.471 76.3294 279.277 76.2661 279.249 76.151C279.233 75.9711 279.286 75.7914 279.402 75.6387L280.054 74.3436C280.66 73.2428 281.159 72.1032 281.544 70.9359C280.834 71.9935 280.227 73.0965 279.728 74.2342C279.513 74.6889 279.298 75.1264 279.097 75.5408C278.962 75.7465 278.918 75.9846 278.972 76.2143C278.999 76.2767 279.044 76.3331 279.101 76.379C279.159 76.4249 279.229 76.4592 279.305 76.4791C279.42 76.5068 279.539 76.5222 279.658 76.5252C280.101 76.5817 280.551 76.5914 280.997 76.5539Z" fill="#263238"/>
<path d="M280.186 84.5371C282.959 84.6293 285.71 84.0814 288.131 82.9542C288.131 82.9542 286.113 86.2755 280.227 85.6941L280.186 84.5371Z" fill="#A36957"/>
<path d="M286.709 69.6467C286.543 69.8596 285.919 69.7675 285.226 69.6467C284.532 69.5258 283.922 69.4279 283.839 69.1804C283.756 68.9329 284.484 68.6048 285.413 68.7602C286.342 68.9156 286.876 69.4625 286.709 69.6467Z" fill="#263238"/>
<path d="M278.618 68.668C278.556 68.9155 277.89 69.0076 277.127 69.0364C276.365 69.0652 275.692 69.0364 275.602 68.7831C275.512 68.5299 276.157 68.173 277.079 68.1384C278.001 68.1039 278.68 68.432 278.618 68.668Z" fill="#263238"/>
<path d="M281.011 78.1711C280.923 78.1539 280.831 78.1616 280.749 78.1929C280.668 78.2242 280.601 78.2773 280.56 78.3438C280.52 78.4025 280.5 78.4688 280.501 78.536C280.502 78.6032 280.524 78.6691 280.565 78.7271C280.606 78.785 280.664 78.8331 280.735 78.8665C280.805 78.8999 280.885 78.9175 280.965 78.9175C281.046 78.9175 281.126 78.8999 281.196 78.8665C281.267 78.8331 281.325 78.785 281.366 78.7271C281.407 78.6691 281.429 78.6032 281.43 78.536C281.431 78.4688 281.411 78.4025 281.371 78.3438C281.321 78.2665 281.241 78.2056 281.144 78.171C281.047 78.1365 280.939 78.1304 280.837 78.1539" fill="#A36957"/>
<path d="M281.197 78.2401C281.197 78.2113 281.065 78.0444 280.712 78.1077C280.606 78.1306 280.509 78.1761 280.431 78.2398C280.354 78.3034 280.297 78.3829 280.268 78.4703C280.231 78.5806 280.234 78.6975 280.277 78.8061C280.32 78.9148 280.402 79.0103 280.511 79.0805C280.626 79.1461 280.762 79.1812 280.902 79.1812C281.042 79.1812 281.179 79.1461 281.294 79.0805C281.386 79.0289 281.459 78.9566 281.503 78.8719C281.547 78.7872 281.561 78.6938 281.544 78.6027C281.474 78.2977 281.204 78.2516 281.19 78.2919C281.176 78.3322 281.287 78.4358 281.266 78.6142C281.262 78.6583 281.244 78.7008 281.215 78.7379C281.186 78.7751 281.146 78.8057 281.1 78.8272C281.046 78.853 280.985 78.8666 280.923 78.8666C280.861 78.8666 280.8 78.853 280.746 78.8272C280.698 78.7931 280.661 78.7493 280.639 78.6998C280.617 78.6504 280.611 78.5971 280.621 78.5452C280.629 78.4997 280.651 78.4565 280.683 78.4194C280.716 78.3823 280.759 78.3523 280.809 78.3322C281.003 78.2343 281.176 78.2804 281.197 78.2401Z" fill="#263238"/>
<path d="M291.459 73.2209C290.765 74.5678 289.046 75.6096 289.282 77.0659C289.434 78.0041 290.162 78.879 290.024 79.823C289.843 80.9742 288.367 81.826 288.152 83.006C287.895 84.4507 289.594 85.5731 290.266 86.92C291.258 88.8885 289.996 91.0988 289.961 93.2515C290.002 94.8859 290.755 96.4526 292.081 97.6612C293.407 98.8699 295.216 99.6385 297.172 99.8248C298.753 99.9341 300.534 99.537 301.332 98.4088C302.025 97.4764 301.873 96.2906 302.275 95.2603C302.885 93.7177 304.653 92.5896 305.048 91.001C305.741 88.123 301.512 85.7055 301.789 82.7585C301.907 81.4979 302.843 80.4043 303.238 79.1841C303.49 78.3821 303.509 77.5421 303.295 76.7328C303.08 75.9234 302.638 75.1677 302.004 74.5275C300.957 73.4972 299.446 72.8008 298.538 71.6956C297.532 70.4236 297.498 68.8177 297.151 67.3154C296.685 65.4894 295.67 63.7912 294.199 62.3795C292.729 60.9678 290.851 59.8887 288.741 59.243C286.632 58.5974 284.36 58.4063 282.137 58.6876C279.915 58.9689 277.814 59.7134 276.032 60.8515C276.032 60.8515 275.027 64.6446 279.721 65.2835C284.415 65.9224 286.585 65.1857 287.112 66.7455C286.987 67.3881 287.048 68.046 287.289 68.6653C287.53 69.2846 287.945 69.8477 288.498 70.3085C290.412 72.0237 292.235 71.6553 291.459 73.2209Z" fill="#263238"/>
<path d="M298.912 99.5314C298.767 99.5355 298.623 99.5239 298.482 99.4969C298.075 99.437 297.676 99.3465 297.289 99.2263C295.858 98.7707 294.602 98.0008 293.656 96.9988C292.993 96.3074 292.473 95.5294 292.117 94.6964C291.712 93.7478 291.499 92.7501 291.486 91.7437C291.472 90.6344 291.64 89.5286 291.986 88.457C292.175 87.8911 292.406 87.3355 292.679 86.7936C292.965 86.2542 293.217 85.7028 293.435 85.1416C293.625 84.5887 293.625 84.0024 293.435 83.4494C293.232 82.905 292.969 82.3771 292.651 81.8723C292.33 81.3716 292.058 80.8499 291.84 80.3124C291.626 79.7804 291.576 79.2126 291.694 78.6605C291.972 77.5784 292.762 76.7725 293.234 75.9494C293.683 75.1875 293.897 74.345 293.858 73.4974C293.794 72.257 293.252 71.0664 292.311 70.1014C291.947 69.7634 291.555 69.4461 291.14 69.1517C291.626 69.3785 292.06 69.6746 292.422 70.0266C293.432 70.9901 294.027 72.205 294.114 73.4802C294.171 74.3647 293.962 75.2471 293.504 76.0473C293.026 76.8992 292.256 77.7107 292.02 78.7008C291.784 79.6908 292.346 80.7326 292.963 81.7341C293.3 82.2534 293.574 82.7991 293.781 83.363C293.986 83.9652 293.986 84.6027 293.781 85.2049C293.551 85.7856 293.284 86.3562 292.984 86.9144C292.711 87.4446 292.48 87.9887 292.291 88.5434C291.946 89.5879 291.776 90.6666 291.784 91.7494C291.763 93.5936 292.48 95.3915 293.823 96.8607C294.721 97.8501 295.916 98.6262 297.289 99.1112C298.322 99.4451 298.919 99.4969 298.912 99.5314Z" fill="#455A64"/>
<path d="M298.218 70.4873C297.881 70.5599 297.534 70.6024 297.185 70.614C296.234 70.6984 295.273 70.6771 294.329 70.5506C293.613 70.4626 292.925 70.2569 292.306 69.9456C291.687 69.6342 291.149 69.2235 290.724 68.7374C290.327 68.1225 290.011 67.4741 289.781 66.8034C289.485 66.1334 288.929 65.5643 288.2 65.1859C286.682 64.3857 284.9 64.2879 283.347 64.1325C281.914 64.0732 280.523 63.7127 279.305 63.0848C278.488 62.6358 277.899 61.9538 277.648 61.168C277.587 60.9551 277.571 60.7351 277.599 60.5176C277.599 60.3679 277.641 60.2931 277.654 60.2931C277.663 60.5782 277.707 60.8618 277.786 61.1393C278.073 61.874 278.662 62.5015 279.45 62.9122C280.646 63.4916 281.997 63.816 283.381 63.8562C284.934 64.0058 286.779 64.0807 288.401 64.9326C289.195 65.3465 289.8 65.9683 290.12 66.6997C290.338 67.3535 290.637 67.9863 291.015 68.5878C291.822 69.5075 293.032 70.1275 294.384 70.3146C295.298 70.4557 296.229 70.5079 297.158 70.4701C297.511 70.4535 297.866 70.4593 298.218 70.4873Z" fill="#455A64"/>
<path d="M296.499 65.8016C296.238 65.8742 295.963 65.9073 295.688 65.8995C294.395 65.9067 293.151 65.4935 292.221 64.7483C291.797 64.3952 291.435 63.994 291.146 63.5567C290.522 62.6818 289.919 61.6054 288.623 61.1564C287.374 60.8085 286.043 60.7118 284.74 60.8743C283.641 61.0026 282.525 61.0026 281.426 60.8743C280.661 60.7862 279.941 60.5232 279.346 60.1145C279.192 60.0032 279.057 59.8755 278.944 59.7346C278.861 59.6348 278.826 59.583 278.84 59.5792C278.84 59.5792 279.034 59.7634 279.436 60.0224C280.029 60.3725 280.718 60.5941 281.44 60.6671C282.519 60.7682 283.61 60.7527 284.685 60.6211C286.044 60.4367 287.438 60.5356 288.741 60.9089C289.41 61.1587 289.983 61.557 290.398 62.0601C290.763 62.5089 291.099 62.9739 291.403 63.4531C291.676 63.8715 292.014 64.2585 292.408 64.6044C292.756 64.8968 293.156 65.1434 293.594 65.3354C294.239 65.615 294.948 65.7778 295.674 65.8132C296.208 65.8074 296.492 65.7729 296.499 65.8016Z" fill="#455A64"/>
<path d="M300.978 98.2878C300.943 98.2878 301.165 97.9079 301.422 97.1942C301.769 96.1922 301.923 95.151 301.879 94.109C301.829 92.5666 301.322 91.0583 300.402 89.7173C299.896 88.9632 299.127 88.2898 298.496 87.461C298.162 87.0387 297.927 86.5682 297.802 86.0738C297.693 85.5534 297.746 85.0185 297.955 84.5197C298.343 83.5239 299.037 82.6893 299.189 81.7741C299.342 80.8589 298.815 80.0473 298.288 79.2818C298.016 78.9093 297.768 78.525 297.546 78.1306C297.343 77.7481 297.21 77.3427 297.151 76.9276C297.086 76.1962 297.113 75.4612 297.234 74.7346C297.456 73.7076 297.341 72.65 296.901 71.6725C296.705 71.3301 296.426 71.0245 296.083 70.7746C296.083 70.7746 296.118 70.7746 296.166 70.8091C296.248 70.843 296.323 70.8877 296.388 70.9415C296.659 71.129 296.879 71.3626 297.033 71.6264C297.534 72.6123 297.691 73.6956 297.484 74.7519C297.388 75.4649 297.376 76.184 297.449 76.8989C297.62 77.703 298.003 78.4658 298.572 79.1321C298.868 79.5211 299.121 79.9315 299.328 80.3582C299.546 80.8188 299.618 81.3184 299.536 81.8087C299.369 82.8159 298.655 83.6678 298.295 84.606C298.106 85.0587 298.056 85.5434 298.149 86.0162C298.27 86.4735 298.491 86.9086 298.801 87.2998C299.39 88.0999 300.188 88.7848 300.694 89.5734C301.622 90.9597 302.118 92.517 302.136 94.1033C302.158 95.165 301.961 96.2221 301.553 97.2287C301.442 97.5012 301.308 97.7666 301.151 98.0231C301.109 98.1177 301.051 98.2069 300.978 98.2878Z" fill="#455A64"/>
<path d="M272.739 205.538C272.739 205.538 268.066 168.792 267.795 155.214C267.525 141.636 275.151 128.236 275.151 128.236L305.02 127.206C305.02 127.206 310.927 140.979 311.031 146.776C311.239 158.023 307.433 169.126 307.869 178.048L308.868 205.561" fill="#263238"/>
<path d="M309.873 160.36C309.717 160.472 309.553 160.576 309.381 160.67L309.111 160.826L308.819 161.062C308.563 161.246 308.33 161.453 308.126 161.678C307.162 162.656 306.462 164.412 305.79 166.593C305.446 167.803 304.939 168.977 304.278 170.093C304.077 170.398 303.845 170.689 303.585 170.962C303.46 171.1 303.342 171.25 303.196 171.382L302.739 171.762C302.083 172.271 301.322 172.676 300.493 172.959C298.822 173.569 296.929 173.857 295.209 174.577C293.448 175.364 292.087 176.651 291.375 178.203C290.529 179.763 289.989 181.397 289.295 182.929C288.602 184.46 287.666 185.922 286.175 186.854C284.75 187.676 283.058 188.12 281.322 188.126C279.714 188.207 278.223 188.166 276.885 188.333C275.681 188.437 274.529 188.798 273.543 189.381C272.823 189.848 272.283 190.481 271.99 191.2C271.804 191.653 271.763 192.139 271.872 192.61C271.955 192.932 272.059 193.088 272.038 193.093C271.927 192.949 271.847 192.789 271.803 192.621C271.656 192.141 271.676 191.637 271.858 191.165C272.134 190.41 272.677 189.742 273.418 189.249C274.429 188.615 275.626 188.218 276.885 188.097C278.271 187.913 279.748 187.936 281.336 187.85C283.021 187.841 284.662 187.407 286.044 186.607C287.445 185.59 288.479 184.271 289.032 182.796C289.725 181.282 290.231 179.642 291.112 178.053C291.858 176.437 293.281 175.099 295.119 174.283C296.908 173.546 298.801 173.264 300.43 172.677C301.228 172.403 301.96 172.013 302.593 171.526L303.03 171.163C303.169 171.037 303.287 170.893 303.411 170.761C303.656 170.499 303.872 170.22 304.056 169.926C304.72 168.826 305.234 167.667 305.588 166.472C306.282 164.297 307.038 162.518 308.057 161.534C308.26 161.31 308.492 161.105 308.75 160.924C308.861 160.843 308.958 160.763 309.055 160.699L309.339 160.55C309.513 160.477 309.691 160.414 309.873 160.36Z" fill="white"/>
<path d="M310.053 143.357C310.085 143.519 310.099 143.682 310.095 143.846C310.093 144.321 310.023 144.795 309.887 145.256C309.29 146.94 308.117 148.444 306.51 149.585C305.45 150.394 304.288 151.106 303.044 151.709C301.706 152.365 300.229 152.992 298.711 153.706C297.116 154.416 295.63 155.284 294.287 156.29C292.909 157.425 291.774 158.747 290.931 160.199C290.081 161.67 289.111 163.091 288.026 164.452C287.475 165.087 286.838 165.666 286.127 166.179C285.425 166.674 284.655 167.097 283.832 167.44C282.342 168.047 280.79 168.542 279.193 168.919C277.71 169.299 276.323 169.638 275.117 170.07C274.022 170.432 272.98 170.895 272.011 171.452C271.281 171.871 270.626 172.373 270.062 172.942C269.591 173.436 269.197 173.978 268.891 174.554C268.94 174.394 269.005 174.239 269.085 174.088C269.312 173.653 269.603 173.243 269.951 172.867C270.505 172.274 271.158 171.751 271.893 171.313C272.866 170.737 273.915 170.254 275.02 169.874C276.355 169.423 277.718 169.029 279.103 168.694C280.677 168.309 282.208 167.812 283.679 167.209C284.46 166.871 285.192 166.462 285.863 165.989C286.547 165.483 287.161 164.916 287.694 164.297C288.763 162.942 289.724 161.531 290.571 160.072C291.441 158.588 292.614 157.241 294.038 156.089C295.404 155.067 296.918 154.19 298.544 153.476C300.069 152.768 301.546 152.152 302.884 151.502C304.125 150.919 305.287 150.228 306.351 149.441C307.944 148.334 309.127 146.875 309.762 145.233C309.94 144.618 310.038 143.989 310.053 143.357Z" fill="white"/>
<path d="M267.948 157.136C267.92 157.101 267.899 157.062 267.885 157.021C267.833 156.91 267.789 156.797 267.754 156.681C267.635 156.224 267.659 155.748 267.823 155.3C268.211 154.149 269.743 152.67 272.212 151.939C273.446 151.588 274.839 151.363 276.295 151.064C277.505 150.897 278.648 150.493 279.631 149.886C280.614 149.278 281.408 148.484 281.946 147.57C282.34 146.899 282.685 146.209 282.979 145.504C283.521 143.971 284.258 142.491 285.177 141.089C286.23 139.71 287.828 138.678 289.697 138.17C291.398 137.712 293.133 137.347 294.89 137.077C296.459 136.827 297.978 136.397 299.404 135.799C300.612 135.226 301.653 134.44 302.455 133.497C303.638 132.134 304.314 130.513 304.396 128.834C304.399 128.218 304.35 127.603 304.25 126.993C304.46 127.59 304.556 128.212 304.535 128.834C304.508 130.549 303.855 132.217 302.663 133.618C301.851 134.592 300.787 135.404 299.55 135.995C298.105 136.615 296.562 137.062 294.967 137.324C293.225 137.599 291.507 137.966 289.822 138.424C288.028 138.912 286.493 139.903 285.482 141.227C284.578 142.611 283.85 144.069 283.312 145.578C283.012 146.297 282.658 146.998 282.251 147.679C281.84 148.333 281.317 148.934 280.698 149.464C279.48 150.385 277.982 151.013 276.365 151.277C274.895 151.588 273.508 151.783 272.295 152.117C269.889 152.796 268.364 154.195 267.955 155.312C267.787 155.742 267.742 156.199 267.823 156.647C267.882 156.807 267.923 156.97 267.948 157.136Z" fill="white"/>
<path d="M307.489 188.218C307.517 188.338 307.533 188.459 307.537 188.581C307.55 188.93 307.506 189.278 307.405 189.617C306.97 190.865 306.048 191.958 304.785 192.725C303.941 193.283 303.008 193.741 302.011 194.084C300.951 194.458 299.779 194.757 298.545 195.074C297.264 195.384 296.01 195.769 294.794 196.225C293.53 196.726 292.397 197.428 291.459 198.291C290.447 199.166 289.573 200.127 288.602 200.979C287.674 201.804 286.596 202.504 285.406 203.051C283.382 203.968 281.118 204.458 278.813 204.479C277.269 204.493 275.734 204.28 274.278 203.852C273.883 203.739 273.499 203.602 273.127 203.443C272.992 203.396 272.864 203.336 272.746 203.264C272.886 203.296 273.023 203.337 273.155 203.385C273.536 203.52 273.925 203.64 274.32 203.742C275.773 204.12 277.291 204.297 278.813 204.266C281.067 204.217 283.274 203.718 285.247 202.81C286.399 202.268 287.444 201.583 288.346 200.778C289.296 199.937 290.162 198.982 291.195 198.084C292.189 197.189 293.386 196.465 294.718 195.954C295.952 195.497 297.224 195.112 298.524 194.803C299.744 194.492 300.909 194.228 301.991 193.848C302.958 193.519 303.867 193.083 304.695 192.553C305.937 191.824 306.863 190.783 307.336 189.583C307.438 189.133 307.489 188.676 307.489 188.218Z" fill="white"/>
<path d="M304.084 111.929L298.301 112.044C298.079 113.012 297.636 113.936 296.998 114.767C292.145 107.802 288.421 98.4778 287.492 94.7307C287.631 94.3565 287.791 93.9421 287.992 93.4816C288.136 92.7822 288.11 92.0659 287.915 91.375C287.749 90.5404 287.472 89.418 287.388 88.8999C287.132 87.3113 286.82 87.0638 286.154 87.2422C285.253 87.4897 286.529 91.6916 285.787 91.7837C285.385 91.8297 284.899 90.3907 284.761 89.2108C284.622 88.0308 283.97 84.3931 283.506 84.1513C282.812 83.7944 282.209 84.3585 282.389 85.5327C282.57 86.7069 282.785 90.2756 282.036 90.3274C281.287 90.3792 280.649 84.347 280.649 84.347C280.649 84.347 280.767 83.0347 279.894 83.0634C278.327 83.121 279.554 89.4755 279.686 90.0799C279.783 90.4943 278.992 90.5749 278.895 90.1202C278.798 89.6655 278.438 84.0937 276.815 84.1398C275.581 84.1398 277.765 89.3719 277.072 90.5807C276.378 91.7894 275.907 86.4825 274.735 86.5515C274.298 86.5803 273.973 86.6494 274.777 89.6482C275.547 92.0309 276.473 94.377 277.55 96.6762C279.408 104.993 287.562 131.603 300.34 126.734C307.495 124.005 310.393 111.929 310.393 111.929H304.084Z" fill="#B78876"/>
<path d="M279.436 90.4828C279.491 90.4943 279.548 90.4943 279.602 90.4828C279.686 90.4616 279.758 90.4163 279.805 90.3551C279.852 90.2939 279.871 90.2208 279.859 90.149C279.859 89.7921 279.776 89.2741 279.679 88.6006C279.516 87.789 279.41 86.9703 279.36 86.1486C279.36 85.6651 279.36 85.1471 279.394 84.6003C279.405 84.3222 279.439 84.0452 279.498 83.7714C279.554 83.5124 279.762 83.1958 280.004 83.2476H280.046C280.289 83.2476 280.483 83.3973 280.559 83.639C280.645 83.8895 280.678 84.1505 280.656 84.4103C280.799 86.0223 281.047 87.6267 281.398 89.2165C281.454 89.4295 281.509 89.6482 281.592 89.8669C281.629 89.9789 281.675 90.0885 281.731 90.195C281.766 90.2543 281.806 90.3119 281.849 90.3677C281.88 90.4098 281.922 90.4452 281.973 90.4712C282.023 90.4972 282.081 90.513 282.14 90.5173C282.241 90.5081 282.336 90.4742 282.414 90.4199C282.492 90.3656 282.548 90.2933 282.577 90.2123C282.636 90.0997 282.68 89.9819 282.708 89.8612C282.762 89.6292 282.799 89.3947 282.819 89.1589C282.883 88.1998 282.866 87.2383 282.771 86.281C282.683 85.803 282.66 85.3185 282.701 84.8363C282.727 84.628 282.849 84.436 283.041 84.301C283.086 84.279 283.135 84.2651 283.187 84.2601C283.238 84.2552 283.29 84.2593 283.339 84.2722C283.398 84.2839 283.454 84.3033 283.506 84.3297C283.541 84.3516 283.567 84.3817 283.582 84.4161C283.8 84.8828 283.961 85.3669 284.06 85.8608C284.185 86.3673 284.289 86.8911 284.386 87.4149C284.483 87.9387 284.573 88.4682 284.65 89.0035C284.709 89.5559 284.816 90.1041 284.969 90.644C285.051 90.92 285.155 91.1911 285.281 91.4556C285.351 91.6036 285.45 91.7415 285.572 91.8642C285.619 91.9153 285.682 91.9542 285.754 91.9766C285.827 91.999 285.905 92.004 285.981 91.9909C286.051 91.9716 286.114 91.9377 286.164 91.8923C286.214 91.8469 286.249 91.7917 286.265 91.7318C286.347 91.4377 286.373 91.1347 286.341 90.8339C286.341 90.5461 286.3 90.2583 286.265 89.982C286.217 89.4985 286.161 89.0208 286.14 88.5488C286.123 88.3169 286.123 88.0843 286.14 87.8524C286.154 87.7497 286.184 87.649 286.231 87.553C286.245 87.5214 286.266 87.4922 286.293 87.4667H286.383C286.841 87.3113 286.993 87.8408 287.118 88.2668C287.243 88.6927 287.291 89.1762 287.402 89.6309C287.583 90.5346 287.818 91.4383 287.936 92.3017C288.016 92.7151 287.997 93.1376 287.881 93.545C287.714 93.9594 287.548 94.368 287.388 94.7767V94.817V94.8515C288.201 97.6793 289.236 100.46 290.488 103.175C291.583 105.632 292.685 107.779 293.649 109.506C294.613 111.233 295.486 112.586 296.083 113.495L296.776 114.525C296.851 114.648 296.942 114.764 297.046 114.871C296.988 114.743 296.916 114.619 296.831 114.502L296.138 113.449C295.57 112.522 294.752 111.147 293.809 109.42C292.866 107.693 291.798 105.546 290.73 103.088C289.508 100.377 288.494 97.6052 287.693 94.7882V94.8688C287.853 94.4659 288.012 94.0572 288.179 93.6486C288.323 93.2 288.351 92.7312 288.262 92.2729C288.137 91.3692 287.908 90.4943 287.728 89.5849C287.624 89.1359 287.555 88.6755 287.444 88.2035C287.437 87.961 287.388 87.7206 287.298 87.4897C287.219 87.3493 287.085 87.2356 286.917 87.1674C286.739 87.1191 286.547 87.1191 286.369 87.1674H286.258C286.199 87.183 286.145 87.2085 286.099 87.2422C286.022 87.2964 285.962 87.3657 285.925 87.4437C285.862 87.5683 285.822 87.7003 285.808 87.8351C285.787 88.0842 285.787 88.3342 285.808 88.5834C285.808 89.0668 285.891 89.5503 285.939 90.0338C285.939 90.3159 285.995 90.6094 286.009 90.8684C286.036 91.1281 286.02 91.3896 285.96 91.6455C285.96 91.7031 285.905 91.6916 285.96 91.7203L285.919 91.6858C285.83 91.5918 285.76 91.4869 285.711 91.375C285.589 91.126 285.49 90.8702 285.412 90.6094C285.26 90.0853 285.156 89.5523 285.1 89.015C285.026 88.474 284.936 87.9387 284.83 87.4091C284.733 86.8796 284.622 86.3616 284.497 85.8435C284.393 85.3163 284.216 84.8006 283.97 84.3067C283.923 84.2242 283.848 84.1544 283.755 84.1053C283.674 84.0664 283.588 84.0355 283.499 84.0132C283.4 83.9916 283.297 83.9866 283.196 83.9985C283.095 84.0103 282.997 84.0388 282.909 84.0822C282.767 84.1709 282.647 84.2832 282.559 84.4119C282.471 84.5407 282.415 84.6832 282.396 84.8305C282.351 85.092 282.351 85.3575 282.396 85.6191C282.396 85.8666 282.466 86.1083 282.487 86.3501C282.583 87.2918 282.604 88.2379 282.549 89.182C282.533 89.4062 282.498 89.6293 282.445 89.8497C282.425 89.9526 282.39 90.0531 282.341 90.149C282.323 90.1869 282.297 90.222 282.265 90.2526C282.265 90.3044 282.216 90.2526 282.223 90.3216C282.223 90.2641 282.223 90.3216 282.223 90.2468C282.192 90.2079 282.165 90.1676 282.14 90.1259C282.091 90.0338 282.05 89.9302 282.008 89.8324C281.932 89.6252 281.876 89.4122 281.821 89.205C281.459 87.6289 281.198 86.038 281.038 84.4391C281.058 84.1497 281.018 83.8595 280.92 83.5815C280.874 83.4364 280.78 83.3049 280.649 83.2016C280.581 83.1472 280.501 83.1048 280.413 83.0771C280.325 83.0494 280.23 83.0369 280.136 83.0404H280.178C280.06 83.0262 279.941 83.0409 279.833 83.0829C279.726 83.1249 279.636 83.1922 279.575 83.2764C279.472 83.4137 279.401 83.5661 279.367 83.7254C279.308 84.0108 279.276 84.2994 279.27 84.5888C279.27 85.1643 279.27 85.6651 279.27 86.1544C279.335 86.9813 279.463 87.804 279.651 88.6179C279.769 89.2856 279.859 89.8036 279.9 90.1547C279.914 90.2162 279.901 90.2796 279.864 90.3342C279.828 90.3887 279.769 90.4311 279.699 90.454C279.491 90.4713 279.429 90.477 279.436 90.4828Z" fill="#A36957"/>
<path d="M234.28 119.855C232.927 119.831 231.576 119.961 230.266 120.241C226.681 121.024 220.504 124.132 220.247 127.971H224.74C224.74 127.971 222.223 132.415 222.958 132C224.878 130.93 228.692 127.712 228.692 127.712L234.28 119.855Z" fill="#B78876"/>
<path d="M295.521 52.9544C295.417 52.9544 295.015 49.8807 294.613 46.0473C294.211 42.2139 293.961 39.1402 294.059 39.1402C294.156 39.1402 294.565 42.2139 294.967 46.0473C295.369 49.8807 295.619 52.9544 295.521 52.9544Z" fill="#263238"/>
<path d="M315.218 39.3762C315.295 39.4222 312.265 43.0772 308.445 47.5381C304.624 51.9989 301.456 55.5963 301.373 55.5273C301.29 55.4582 304.326 51.8262 308.147 47.3654C311.967 42.9045 315.135 39.3301 315.218 39.3762Z" fill="#263238"/>
<path d="M323.4 55.9417C323.4 56.0223 319.878 56.6958 315.496 57.4441C311.114 58.1924 307.537 58.7335 307.516 58.6529C307.495 58.5723 311.031 57.8989 315.42 57.1505C319.808 56.4022 323.351 55.8612 323.4 55.9417Z" fill="#263238"/>
<path d="M87.6207 134.999L63.077 239.642L59.8877 253.341L223.512 252.684C230.862 252.656 237.379 247.239 239.729 239.193L268.752 140.404C270.548 134.297 266.61 127.942 261.035 127.948L95.386 128.092C91.7807 128.086 88.5498 130.918 87.6207 134.999Z" fill="#3366FF"/>
<g opacity="0.5">
<path opacity="0.5" d="M87.6207 134.999L63.077 239.642L59.8877 253.341L223.512 252.684C230.862 252.656 237.379 247.239 239.729 239.193L268.752 140.404C270.548 134.297 266.61 127.942 261.035 127.948L95.386 128.092C91.7807 128.086 88.5498 130.918 87.6207 134.999Z" fill="black"/>
</g>
<path d="M207.837 232.539L190.503 116.609C189.81 111.86 185.241 108.315 179.854 108.332L141.86 108.43C140.448 108.443 139.054 108.695 137.763 109.17C136.472 109.645 135.311 110.333 134.351 111.193L116.325 127.119L10.6618 127.591C4.20697 127.62 -0.757246 132.697 0.0955439 138.395L16.1876 245.541C16.881 250.284 21.45 253.824 26.8232 253.818L211.005 253.513C231.514 253.864 233.476 248.839 233.476 248.839C209.93 253.162 207.837 232.567 207.837 232.539Z" fill="#3366FF"/>
<path d="M234.135 59.7348C233.91 59.6563 233.718 59.5263 233.579 59.3602C233.44 59.194 233.361 58.9986 233.351 58.7966L233.074 53.4551C233.064 53.2891 233.101 53.1235 233.182 52.9714C233.262 52.8193 233.385 52.6849 233.539 52.5788C233.693 52.4727 233.874 52.3978 234.069 52.3601C234.264 52.3224 234.467 52.3228 234.662 52.3614C235.199 52.4576 235.754 52.4618 236.292 52.3737C236.831 52.2856 237.343 52.1071 237.796 51.8492C238.213 51.6301 238.571 51.3423 238.849 51.0038C239.127 50.6652 239.318 50.283 239.411 49.8807C239.474 49.4733 239.437 49.0596 239.304 48.6641C239.171 48.2686 238.943 47.8994 238.635 47.5783C238.31 47.213 237.901 46.9044 237.432 46.6704C236.964 46.4363 236.444 46.2812 235.903 46.2141C234.812 46.1638 233.732 46.4205 232.839 46.9428C231.946 47.4651 231.291 48.2224 230.98 49.0921C230.877 49.3556 230.655 49.5758 230.36 49.7068C230.066 49.8378 229.722 49.8695 229.401 49.7953C229.079 49.7211 228.804 49.5468 228.633 49.3085C228.463 49.0703 228.409 48.7866 228.484 48.5165C228.956 47.1486 229.981 45.9572 231.386 45.1427C232.791 44.3282 234.492 43.9403 236.201 44.0442C237.091 44.1426 237.947 44.3884 238.72 44.7671C239.493 45.1458 240.167 45.6497 240.701 46.2487C241.22 46.8038 241.6 47.4399 241.818 48.1191C242.036 48.7983 242.087 49.5069 241.969 50.203C241.812 50.898 241.485 51.5589 241.008 52.145C240.531 52.731 239.914 53.2298 239.196 53.6105C238.156 54.1919 236.941 54.5208 235.688 54.5602L235.903 58.6814C235.911 58.8625 235.864 59.0423 235.766 59.2042C235.668 59.3662 235.522 59.5049 235.342 59.6077C235.163 59.7104 234.955 59.7738 234.737 59.792C234.52 59.8102 234.301 59.7826 234.1 59.7117L234.135 59.7348Z" fill="#3366FF"/>
<path d="M236.034 61.9221C236.049 62.0959 236.001 62.2694 235.897 62.4207C235.792 62.572 235.636 62.6941 235.449 62.7718C235.261 62.8495 235.049 62.8791 234.841 62.857C234.633 62.8348 234.437 62.7619 234.279 62.6474C234.121 62.533 234.007 62.3821 233.952 62.2139C233.897 62.0458 233.903 61.8678 233.97 61.7027C234.037 61.5375 234.162 61.3925 234.328 61.2861C234.494 61.1796 234.695 61.1165 234.904 61.1047C235.043 61.0961 235.183 61.1105 235.315 61.147C235.447 61.1835 235.569 61.2415 235.675 61.3175C235.78 61.3935 235.866 61.4861 235.927 61.5899C235.989 61.6937 236.025 61.8066 236.034 61.9221Z" fill="#3366FF"/>
<path d="M211.858 52.2003C211.888 52.0865 211.909 51.9711 211.921 51.855C211.921 51.6017 211.997 51.2794 212.052 50.8247C212.121 50.2664 212.234 49.7126 212.392 49.167C212.482 48.8446 212.531 48.4878 212.669 48.1252C212.808 47.7625 212.947 47.3711 213.099 46.974C213.902 45.0062 215.072 43.1552 216.566 41.4886C218.524 39.3305 221.007 37.5381 223.853 36.2277C225.473 35.4694 227.198 34.878 228.99 34.4664C230.925 34.0407 232.917 33.824 234.918 33.8217C235.972 33.8077 237.026 33.8538 238.073 33.9599C238.607 34.0059 239.134 34.121 239.668 34.1958C240.207 34.2726 240.74 34.3803 241.262 34.5182C243.448 35.0252 245.526 35.8075 247.426 36.8378C251.65 39.1121 254.867 42.466 256.592 46.3926C257.52 48.496 257.99 50.7199 257.978 52.9601C258.007 55.2679 257.515 57.5598 256.529 59.7176L256.217 60.3737L256.176 60.4601L256.217 60.5464C257.957 63.8676 259.684 67.1312 261.313 70.2912L261.604 70.0149L251.205 66.7052L251.08 66.6649L250.976 66.7455C248.225 68.9585 244.857 70.5721 241.172 71.4423C238.024 72.1619 234.727 72.319 231.501 71.9033C228.274 71.4876 225.19 70.5085 222.452 69.0306C220.21 67.8099 218.234 66.2821 216.608 64.5122C214.251 61.9289 212.724 58.8905 212.17 55.6827C212.087 55.1071 212.018 54.6236 211.955 54.1861C211.893 53.7487 211.955 53.3918 211.921 53.0867C211.886 52.7817 211.921 52.5802 211.921 52.4133C211.955 52.4089 211.987 52.3939 212.008 52.3712C212.03 52.3485 212.041 52.3198 212.038 52.2908C212.036 52.2619 212.02 52.2348 211.994 52.2151C211.969 52.1953 211.935 52.1844 211.9 52.1844C211.865 52.1844 211.831 52.1953 211.806 52.2151C211.78 52.2348 211.764 52.2619 211.762 52.2908C211.759 52.3198 211.77 52.3485 211.791 52.3712C211.813 52.3939 211.845 52.4089 211.879 52.4133C211.879 52.5802 211.879 52.8047 211.879 53.0867C211.879 53.3688 211.879 53.7602 211.879 54.1976C211.879 54.6351 211.997 55.1358 212.066 55.7057C212.294 57.0901 212.692 58.4517 213.252 59.7694C214.046 61.5094 215.113 63.1546 216.427 64.6619C218.06 66.4633 220.051 68.0205 222.314 69.2666C225.085 70.7814 228.213 71.7895 231.489 72.2242C234.765 72.6589 238.116 72.5101 241.318 71.7877C245.047 70.9085 248.457 69.2794 251.246 67.0448L251.017 67.0851L261.417 70.412L261.937 70.579L261.708 70.1358C260.058 66.9758 258.353 63.7179 256.619 60.391V60.5579L256.938 59.8845C257.95 57.6797 258.453 55.3366 258.422 52.9774C258.444 50.6896 257.974 48.417 257.035 46.266C255.274 42.2611 251.985 38.8435 247.669 36.5327C245.721 35.4784 243.588 34.6822 241.345 34.1728C240.815 34.0334 240.273 33.9276 239.723 33.8562C239.182 33.7757 238.648 33.6605 238.108 33.6203C237.047 33.511 235.98 33.461 234.911 33.4706C232.878 33.4777 230.855 33.7061 228.893 34.1498C227.077 34.578 225.329 35.1847 223.686 35.9572C220.812 37.2997 218.314 39.1342 216.358 41.3389C214.868 43.0331 213.714 44.9141 212.94 46.9107C212.794 47.3251 212.656 47.7222 212.531 48.0618C212.421 48.4088 212.333 48.7604 212.267 49.1152C212.119 49.6645 212.021 50.2226 211.976 50.7844C211.935 51.2276 211.907 51.5672 211.886 51.8204C211.857 51.9455 211.848 52.0732 211.858 52.2003Z" fill="#263238"/>
<path opacity="0.5" d="M128.416 209.354L122.204 214.891L74.3647 179.159L80.5769 173.621L128.416 209.354Z" fill="white"/>
<path opacity="0.5" d="M119.604 172.395L126.468 177.524L83.1834 216.117L76.3125 210.989L119.604 172.395Z" fill="white"/>
</svg>
