<svg width="16" height="16" viewBox="0 0 16 16" fill="none" xmlns="http://www.w3.org/2000/svg">
<path fill-rule="evenodd" clip-rule="evenodd" d="M8.02979 12C9.13435 12 10.0298 12.8954 10.0298 14C10.0298 15.1046 9.13435 16 8.02979 16C6.92522 16 6.02979 15.1046 6.02979 14C6.02979 12.8954 6.92522 12 8.02979 12ZM8.02979 0C9.13435 0 10.0298 0.895431 10.0298 2C10.0298 3.10457 9.13435 4 8.02979 4C6.92522 4 6.02979 3.10457 6.02979 2C6.02979 0.895431 6.92522 0 8.02979 0ZM10.0298 8C10.0298 6.89543 9.13435 6 8.02979 6C6.92522 6 6.02979 6.89543 6.02979 8C6.02979 9.10457 6.92522 10 8.02979 10C9.13435 10 10.0298 9.10457 10.0298 8Z" fill="#8F95B2"/>
</svg>
