<svg width="16" height="16" viewBox="0 0 16 16" fill="none" xmlns="http://www.w3.org/2000/svg">
<g clip-path="url(#clip0_0_268)">
<path fill-rule="evenodd" clip-rule="evenodd" d="M10.6673 6.00016C10.6673 6.70741 10.3864 7.38568 9.88627 7.88578C9.38617 8.38588 8.7079 8.66683 8.00065 8.66683C7.29341 8.66683 6.61513 8.38588 6.11503 7.88578C5.61494 7.38568 5.33398 6.70741 5.33398 6.00016C5.33398 5.29292 5.61494 4.61464 6.11503 4.11454C6.61513 3.61445 7.29341 3.3335 8.00065 3.3335C8.7079 3.3335 9.38617 3.61445 9.88627 4.11454C10.3864 4.61464 10.6673 5.29292 10.6673 6.00016ZM9.33398 6.00016C9.33398 6.35378 9.19351 6.69292 8.94346 6.94297C8.69341 7.19302 8.35427 7.3335 8.00065 7.3335C7.64703 7.3335 7.30789 7.19302 7.05784 6.94297C6.80779 6.69292 6.66732 6.35378 6.66732 6.00016C6.66732 5.64654 6.80779 5.3074 7.05784 5.05735C7.30789 4.80731 7.64703 4.66683 8.00065 4.66683C8.35427 4.66683 8.69341 4.80731 8.94346 5.05735C9.19351 5.3074 9.33398 5.64654 9.33398 6.00016Z" fill="#FBFAFC"/>
<path fill-rule="evenodd" clip-rule="evenodd" d="M8.00033 0.666748C3.95033 0.666748 0.666992 3.95008 0.666992 8.00008C0.666992 12.0501 3.95033 15.3334 8.00033 15.3334C12.0503 15.3334 15.3337 12.0501 15.3337 8.00008C15.3337 3.95008 12.0503 0.666748 8.00033 0.666748ZM2.00033 8.00008C2.00033 9.39341 2.47566 10.6761 3.27233 11.6947C3.83181 10.96 4.55359 10.3646 5.38128 9.95496C6.20897 9.54533 7.12015 9.33261 8.04366 9.33342C8.95521 9.33255 9.85494 9.53976 10.6743 9.93927C11.4936 10.3388 12.211 10.92 12.7717 11.6387C13.3493 10.8812 13.7382 9.99689 13.9063 9.05914C14.0743 8.12139 14.0166 7.1571 13.738 6.24607C13.4594 5.33504 12.9678 4.50345 12.304 3.82011C11.6402 3.13677 10.8232 2.62132 9.92058 2.31642C9.018 2.01152 8.05579 1.92593 7.11357 2.06673C6.17134 2.20753 5.27619 2.57068 4.50217 3.12612C3.72816 3.68156 3.09753 4.41333 2.66248 5.26088C2.22742 6.10843 2.00045 7.04739 2.00033 8.00008ZM8.00033 14.0001C6.62296 14.0021 5.28717 13.5283 4.21899 12.6587C4.64895 12.0432 5.22122 11.5407 5.88712 11.1939C6.55302 10.847 7.29285 10.6662 8.04366 10.6667C8.7851 10.6662 9.51598 10.8425 10.1756 11.181C10.8352 11.5196 11.4046 12.0107 11.8363 12.6134C10.7599 13.5112 9.40205 14.002 8.00033 14.0001Z" fill="#FBFAFC"/>
</g>
<defs>
<clipPath id="clip0_0_268">
<rect width="16" height="16" fill="white"/>
</clipPath>
</defs>
</svg>
