<svg width="15" height="16" viewBox="0 0 15 16" fill="none" xmlns="http://www.w3.org/2000/svg">
<path d="M8.39907 13.6668L8.8 14.2048L9.20093 13.6668C11.212 10.968 12.2378 9.18997 12.7598 7.96734C13.2922 6.72055 13.3 6.05076 13.3 5.6C13.3 3.11586 11.2841 1.1 8.8 1.1C6.31586 1.1 4.3 3.11586 4.3 5.6C4.3 6.05076 4.3078 6.72055 4.84016 7.96734C5.36221 9.18997 6.38804 10.968 8.39907 13.6668ZM7.3 5.6C7.3 5.20218 7.45803 4.82064 7.73934 4.53934C8.02064 4.25804 8.40217 4.1 8.8 4.1C9.45556 4.1 10.0134 4.5211 10.2208 5.10771C10.2717 5.27579 10.3 5.43876 10.3 5.6C10.3 5.79698 10.2612 5.99204 10.1858 6.17403C10.1104 6.35601 9.99995 6.52137 9.86066 6.66066C9.72137 6.79995 9.55601 6.91044 9.37402 6.98582C9.19204 7.0612 8.99698 7.1 8.8 7.1C8.15135 7.1 7.60367 6.69234 7.38271 6.10326C7.33003 5.94915 7.3 5.7744 7.3 5.6ZM1.1 5.6C1.1 7.5513 2.18633 9.78781 3.2984 11.5914C4.23297 13.1071 5.23116 14.3873 5.75307 15.0407L5.59383 15.2301C5.4611 15.0737 5.29826 14.8785 5.11323 14.6505C4.59467 14.0116 3.90408 13.1174 3.21448 12.0953C2.52392 11.0718 1.84053 9.92913 1.3313 8.79245C0.819136 7.64923 0.5 6.54883 0.5 5.6C0.5 4.19186 1.07168 2.91592 1.99547 1.99256C1.42421 3.06779 1.1 4.29486 1.1 5.6ZM8.8 0.5C11.6123 0.5 13.9 2.78061 13.9 5.6C13.9 6.54883 13.5809 7.64923 13.0687 8.79245C12.5595 9.92913 11.8761 11.0718 11.1855 12.0953C10.4959 13.1174 9.80533 14.0116 9.28677 14.6505C9.09887 14.8821 8.93384 15.0797 8.8 15.2374C8.66616 15.0797 8.50113 14.8821 8.31323 14.6505C7.79467 14.0116 7.10408 13.1174 6.41448 12.0953C5.72392 11.0718 5.04053 9.92913 4.5313 8.79245C4.01914 7.64923 3.7 6.54883 3.7 5.6C3.7 2.78061 5.98768 0.5 8.8 0.5Z" stroke="#FBFAFC"/>
</svg>
