<svg width="32" height="32" viewBox="0 0 32 32" fill="none" xmlns="http://www.w3.org/2000/svg">
<rect width="32" height="32" rx="16" fill="#303030"/>
<path d="M18.659 14.0683C18.659 14.7072 18.4052 15.32 17.9534 15.7718C17.5016 16.2235 16.8888 16.4774 16.2499 16.4774C15.611 16.4774 14.9982 16.2235 14.5464 15.7718C14.0946 15.32 13.8408 14.7072 13.8408 14.0683C13.8408 13.4293 14.0946 12.8166 14.5464 12.3648C14.9982 11.913 15.611 11.6592 16.2499 11.6592C16.8888 11.6592 17.5016 11.913 17.9534 12.3648C18.4052 12.8166 18.659 13.4293 18.659 14.0683ZM17.632 15.4503C17.9985 15.0838 18.2045 14.5866 18.2045 14.0683C18.2045 13.5499 17.9985 13.0527 17.632 12.6862C17.2654 12.3196 16.7683 12.1137 16.2499 12.1137C15.7315 12.1137 15.2344 12.3196 14.8678 12.6862C14.5013 13.0527 14.2954 13.5499 14.2954 14.0683C14.2954 14.5866 14.5013 15.0838 14.8678 15.4503C15.2344 15.8169 15.7315 16.0228 16.2499 16.0228C16.7683 16.0228 17.2654 15.8169 17.632 15.4503Z" stroke="#FBFAFC"/>
<path d="M16.2976 18.6591C15.398 18.6585 14.5116 18.8751 13.7137 19.2907C12.9159 19.7062 12.2302 20.3084 11.715 21.0459L11.449 21.4267L11.8092 21.7199C13.0637 22.7412 14.6325 23.2977 16.2501 23.2955C17.8962 23.2976 19.4908 22.7211 20.755 21.6667L21.1117 21.3692L20.8412 20.9916C20.3239 20.2693 19.6417 19.681 18.8514 19.2753C18.0612 18.8697 17.1858 18.6585 16.2976 18.6591ZM16.2976 18.6591L16.2973 19.1591L16.2969 18.6591C16.2971 18.6591 16.2974 18.6591 16.2976 18.6591ZM9.20455 16.2499V16.25C9.20455 17.8857 9.76298 19.3926 10.6983 20.5886L11.0975 21.0989L11.49 20.5835C12.0536 19.8433 12.7808 19.2434 13.6146 18.8307C14.4485 18.418 15.3665 18.2037 16.2968 18.2045L16.2977 18.2045C17.2161 18.2037 18.1225 18.4124 18.9479 18.8149C19.7733 19.2174 20.496 19.8029 21.0609 20.527L21.4596 21.0382L21.8527 20.5226C22.531 19.633 22.9877 18.5947 23.185 17.4935C23.3823 16.3924 23.3146 15.2601 22.9874 14.1903C22.6602 13.1205 22.083 12.144 21.3035 11.3416C20.524 10.5392 19.5647 9.93397 18.5048 9.57594C17.445 9.21791 16.3151 9.11741 15.2087 9.28274C14.1023 9.44808 13.0512 9.8745 12.1423 10.5267C11.2334 11.1789 10.4929 12.0382 9.98207 13.0334C9.47121 14.0287 9.20469 15.1313 9.20455 16.2499ZM8.75 16.25C8.75 12.108 12.108 8.75 16.25 8.75C20.392 8.75 23.75 12.108 23.75 16.25C23.75 20.392 20.392 23.75 16.25 23.75C12.108 23.75 8.75 20.392 8.75 16.25Z" stroke="#FBFAFC"/>
</svg>
