<svg width="14" height="14" viewBox="0 0 14 14" fill="none" xmlns="http://www.w3.org/2000/svg">
<path d="M6.29648 1.42111V0C4.88241 0.140704 3.59497 0.703518 2.55377 1.55477L3.55276 2.5608C4.33367 1.95578 5.26935 1.54774 6.29648 1.42111ZM11.4462 1.55477C10.405 0.703518 9.11759 0.140704 7.70352 0V1.42111C8.73065 1.54774 9.66633 1.95578 10.4472 2.5608L11.4462 1.55477ZM12.5789 6.29648H14C13.8593 4.88241 13.2965 3.59497 12.4452 2.55377L11.4392 3.55276C12.0442 4.33367 12.4523 5.26935 12.5789 6.29648ZM2.5608 3.55276L1.55477 2.55377C0.703518 3.59497 0.140704 4.88241 0 6.29648H1.42111C1.54774 5.26935 1.95578 4.33367 2.5608 3.55276ZM1.42111 7.70352H0C0.140704 9.11759 0.703518 10.405 1.55477 11.4462L2.5608 10.4402C1.95578 9.66633 1.54774 8.73065 1.42111 7.70352ZM9.11055 7C9.11055 5.83216 8.16784 4.88945 7 4.88945C5.83216 4.88945 4.88945 5.83216 4.88945 7C4.88945 8.16784 5.83216 9.11055 7 9.11055C8.16784 9.11055 9.11055 8.16784 9.11055 7ZM11.4392 10.4472L12.4452 11.4533C13.2965 10.4121 13.8593 9.11759 14 7.71055H12.5789C12.4523 8.73065 12.0442 9.66633 11.4392 10.4472ZM7.70352 12.5789V14C9.11759 13.8593 10.405 13.2965 11.4462 12.4452L10.4402 11.4392C9.66633 12.0442 8.73065 12.4523 7.70352 12.5789ZM2.55377 12.4452C3.59497 13.2965 4.88945 13.8593 6.29648 14V12.5789C5.26935 12.4523 4.33367 12.0442 3.55276 11.4392L2.55377 12.4452Z" fill="#1E1E1E" fill-opacity="0.7"/>
</svg>
